<?xml version="1.0" standalone="no"?>
<!DOCTYPE svg PUBLIC "-//W3C//DTD SVG 20010904//EN"
 "http://www.w3.org/TR/2001/REC-SVG-20010904/DTD/svg10.dtd">
<svg version="1.0" xmlns="http://www.w3.org/2000/svg"
 width="1024.000000pt" height="1536.000000pt" viewBox="0 0 1024.000000 1536.000000"
 preserveAspectRatio="xMidYMid meet">
<metadata>
Created by potrace 1.16, written by Peter Selinger 2001-2019
</metadata>
<g transform="translate(0.000000,1536.000000) scale(0.100000,-0.100000)"
fill="#000000" stroke="none">
<path d="M4900 11474 c-63 -7 -139 -19 -167 -28 -29 -8 -63 -12 -75 -9 -15 3
-19 2 -11 -4 15 -10 -140 -68 -156 -58 -6 3 -11 0 -11 -8 0 -7 -41 -33 -91
-57 -51 -24 -127 -67 -170 -96 -46 -31 -75 -46 -71 -36 5 15 4 15 -11 3 -9 -7
-14 -17 -11 -22 5 -8 -10 -13 -29 -10 -5 1 -6 -2 -4 -6 6 -9 -18 -34 -26 -27
-2 2 -10 -3 -18 -13 -12 -15 -12 -16 1 -8 9 5 8 0 -4 -13 -24 -27 -25 -27 -19
1 5 22 5 22 -10 2 -12 -15 -13 -23 -4 -34 9 -11 9 -13 0 -8 -7 4 -14 0 -18
-10 -3 -10 -20 -34 -37 -53 -17 -19 -27 -29 -23 -21 5 9 4 12 -3 7 -6 -4 -9
-13 -6 -20 3 -7 -2 -18 -10 -25 -8 -7 -20 -28 -26 -46 -7 -22 -16 -32 -28 -30
-9 1 -11 0 -4 -2 14 -5 11 -22 -15 -83 -34 -80 -23 -265 19 -337 28 -47 32
-36 6 15 -28 58 -32 266 -6 325 9 20 15 37 12 37 -2 0 9 26 25 58 45 89 120
164 250 251 172 114 288 148 478 137 195 -11 251 -28 438 -134 78 -45 112 -69
188 -134 49 -43 225 -253 258 -309 15 -24 59 -95 98 -157 39 -62 71 -115 71
-117 0 -3 30 -67 66 -143 113 -234 162 -388 195 -612 29 -201 44 -445 29 -465
-4 -5 -10 -44 -13 -85 -6 -71 -7 -76 -49 -117 -47 -46 -58 -51 -58 -28 0 8 9
15 20 15 11 0 20 5 20 11 0 6 -7 8 -16 5 -9 -3 -19 -6 -24 -6 -5 0 -11 -13
-15 -30 -4 -16 -11 -30 -16 -30 -6 0 -6 7 0 19 13 24 32 160 36 266 3 54 1 70
-4 50 -10 -37 -13 -21 -11 70 1 75 -29 305 -55 420 -48 213 -193 539 -337 757
-41 62 -98 149 -127 194 -58 91 -184 219 -279 283 -95 64 -335 142 -482 156
-40 4 -109 1 -180 -9 -131 -19 -234 -60 -298 -121 -40 -38 -58 -45 -48 -18 6
15 4 15 -14 -2 -25 -22 -25 -26 -2 -18 10 4 3 -9 -18 -32 -19 -21 -28 -34 -21
-30 10 6 8 -1 -5 -21 -33 -49 -53 -101 -47 -125 4 -20 3 -21 -7 -9 -9 12 -10
9 -5 -16 7 -38 -3 -86 -17 -78 -17 11 -2 -79 16 -91 9 -7 16 -19 16 -27 0 -8
9 -41 20 -74 13 -36 17 -60 10 -62 -5 -2 -10 -10 -10 -18 0 -8 -7 -14 -16 -14
-8 0 -12 -5 -9 -10 4 -6 11 -8 16 -5 8 6 11 -22 13 -112 1 -16 4 -30 8 -33 3
-3 9 -23 12 -45 5 -31 4 -36 -4 -20 -9 18 -10 17 -5 -5 2 -14 5 -29 5 -35 0
-5 5 -3 10 5 7 11 10 7 10 -18 0 -18 4 -31 9 -28 5 4 7 -3 4 -14 -3 -12 0 -20
6 -20 7 0 11 -6 10 -12 -2 -13 1 -24 32 -96 19 -45 80 -144 85 -139 6 6 -8 47
-16 47 -4 0 -11 8 -14 17 -6 14 -3 14 15 -3 l22 -19 -8 25 c-15 49 -15 55 -1
25 8 -16 13 -37 10 -47 -3 -9 0 -19 6 -23 5 -3 10 -1 10 6 0 7 2 10 4 8 3 -3
1 -21 -3 -40 -7 -32 -5 -39 15 -54 13 -10 24 -25 24 -34 1 -18 29 -72 30 -56
0 6 -7 30 -16 54 -8 24 -13 46 -10 48 3 3 8 -6 12 -21 3 -14 10 -26 16 -26 5
0 7 -4 4 -9 -4 -5 -1 -11 4 -13 6 -2 17 -21 25 -43 8 -22 18 -39 23 -38 12 3
26 -43 23 -72 -2 -19 -1 -19 12 -2 14 17 15 16 20 -3 3 -14 -3 -26 -20 -38
-21 -15 -25 -24 -19 -45 3 -15 13 -27 22 -27 9 0 14 -7 12 -17 -2 -12 2 -17
12 -14 8 2 29 5 46 7 30 4 32 2 44 -43 6 -27 16 -58 21 -71 5 -13 9 -32 9 -43
0 -11 6 -30 14 -42 8 -12 27 -60 42 -107 14 -47 29 -87 33 -90 3 -3 8 -14 9
-25 2 -11 10 -34 18 -51 8 -17 14 -35 13 -40 -4 -24 2 -54 11 -54 6 0 8 12 5
28 -5 26 -5 26 5 3 10 -23 4 -68 -8 -57 -8 8 -32 -50 -32 -78 0 -16 -2 -18 -9
-7 -7 11 -16 2 -40 -35 -17 -27 -31 -59 -31 -71 0 -12 -4 -25 -10 -28 -5 -3
-10 -11 -10 -16 0 -6 4 -8 9 -5 5 3 8 -5 7 -19 -1 -28 -16 -34 -17 -7 0 9 -5
4 -10 -12 -5 -19 -4 -34 2 -42 6 -7 8 -17 6 -22 -3 -4 -2 -14 4 -22 7 -13 9
-12 9 3 0 9 5 17 10 17 17 0 11 -18 -12 -40 -12 -11 -18 -23 -15 -27 4 -3 7
-1 7 6 0 7 4 10 10 6 6 -4 6 -15 0 -31 -11 -27 -5 -48 11 -39 5 4 9 -5 9 -18
0 -14 -7 -27 -15 -31 -8 -3 -15 -1 -15 4 0 6 -5 10 -11 10 -5 0 -8 -4 -5 -8 2
-4 1 -14 -4 -22 -6 -10 -3 -21 8 -35 17 -20 17 -20 -5 -1 -13 10 -20 23 -16
29 3 5 1 7 -4 4 -18 -11 -22 19 -8 47 10 19 11 33 4 49 l-10 22 5 -22 c2 -13
0 -26 -5 -29 -5 -3 -9 -15 -9 -27 0 -18 -11 -10 -55 40 -62 69 -159 138 -207
148 -65 13 -89 27 -95 56 -7 37 -21 38 -15 1 4 -32 37 -53 119 -77 28 -9 74
-33 101 -55 47 -37 80 -73 272 -299 75 -88 170 -181 185 -181 16 0 64 -63 76
-98 8 -24 8 -40 1 -56 -6 -11 -18 -38 -27 -58 -30 -67 -91 -126 -149 -144
l-53 -17 -119 81 c-129 87 -167 102 -324 126 -131 20 -222 42 -259 61 -38 19
-41 28 -5 15 32 -13 43 -12 24 0 -8 6 -34 15 -58 21 -46 12 -146 94 -157 130
-5 14 -15 19 -40 19 -19 0 -37 -4 -40 -10 -4 -6 7 -10 25 -10 24 0 31 -4 27
-14 -4 -10 -1 -13 8 -10 8 4 20 -6 29 -24 9 -17 25 -33 36 -37 37 -12 21 -24
-17 -13 -21 6 -73 8 -116 6 -81 -5 -103 4 -91 35 3 9 2 22 -2 29 -10 15 -10
19 -12 72 -1 22 -5 36 -8 33 -4 -3 -6 -30 -4 -59 1 -29 1 -63 1 -75 0 -12 4
-25 10 -29 6 -3 -6 -14 -28 -24 -42 -19 -193 -165 -228 -220 -12 -19 -34 -57
-48 -83 -15 -26 -33 -58 -41 -70 -7 -12 -26 -60 -42 -107 -15 -47 -31 -86 -35
-88 -5 -2 -6 -9 -3 -16 2 -6 -2 -31 -10 -54 -9 -24 -21 -81 -27 -127 -8 -59
-16 -85 -26 -85 -7 0 -13 -6 -14 -12 0 -7 -4 -4 -9 7 -7 15 -9 16 -9 4 -1 -9
7 -23 17 -30 16 -13 17 -29 14 -179 -3 -91 -8 -156 -12 -145 -6 17 -7 17 -12
-7 -3 -15 -1 -25 3 -22 5 3 9 -1 9 -8 0 -9 3 -9 10 2 8 12 10 11 10 -7 0 -17
-5 -21 -20 -18 -12 2 -18 0 -15 -6 4 -5 11 -6 17 -3 7 5 9 0 6 -14 -4 -12 -2
-22 2 -22 5 0 10 8 12 18 2 9 8 -10 12 -43 4 -33 21 -102 37 -153 16 -51 29
-97 29 -103 0 -6 11 -33 24 -59 13 -26 21 -52 17 -57 -12 -18 -136 -81 -150
-76 -9 4 -11 1 -6 -7 6 -10 4 -12 -9 -7 -9 4 -15 3 -12 -2 3 -5 -38 -37 -92
-72 -101 -65 -212 -143 -272 -191 -19 -16 -39 -32 -45 -36 -5 -4 -43 -38 -83
-75 -41 -37 -78 -65 -83 -61 -5 3 -8 2 -7 -3 2 -5 -67 -80 -152 -168 -248
-255 -301 -306 -312 -299 -7 5 -8 2 -3 -5 7 -13 -32 -48 -47 -43 -5 1 -7 -3
-5 -9 3 -16 -142 -141 -155 -133 -6 4 -8 3 -5 -3 9 -14 -49 -67 -62 -58 -7 3
-10 2 -9 -3 13 -44 -485 -315 -677 -368 -109 -31 -130 -38 -140 -46 -5 -4 15
-1 44 8 44 13 62 13 102 4 48 -12 75 -30 45 -30 -8 0 -18 -4 -21 -10 -3 -5 0
-8 7 -5 15 5 61 -33 71 -58 9 -24 -34 -67 -66 -67 -26 0 -83 25 -92 41 -4 5
-13 5 -25 -1 -13 -7 -20 -6 -24 3 -3 6 -4 1 -3 -12 1 -13 11 -29 22 -35 11 -6
22 -14 25 -17 3 -3 18 -13 34 -21 27 -14 33 -14 63 3 40 23 40 23 40 4 0 -10
-10 -15 -29 -15 -16 0 -27 -4 -24 -9 12 -18 97 -32 221 -35 110 -2 137 -6 177
-25 45 -22 128 -96 128 -114 0 -5 16 -29 35 -54 34 -45 45 -70 25 -58 -6 3 -7
-1 -4 -9 3 -9 11 -13 17 -9 7 4 8 0 3 -12 -5 -14 7 -32 52 -74 32 -31 73 -65
92 -75 l35 -19 -20 23 -20 23 20 -11 c38 -19 266 15 330 50 62 34 260 13 260
-28 0 -14 8 -20 30 -22 20 -2 26 0 17 6 -10 7 -8 11 10 15 12 4 32 7 43 6 18
0 18 -1 -2 -9 -13 -5 -23 -13 -23 -17 0 -5 -18 -19 -40 -33 -22 -14 -40 -27
-40 -30 0 -3 -21 -17 -47 -30 -26 -14 -54 -31 -61 -37 -19 -18 -27 -16 -12 2
8 10 9 15 1 15 -6 0 -16 -9 -23 -20 -7 -11 -21 -20 -30 -20 -10 0 -18 -4 -18
-10 0 -5 -11 -12 -24 -16 -13 -3 -26 -14 -29 -25 -4 -16 1 -14 33 11 21 16 48
30 61 30 20 0 194 103 235 138 6 5 20 13 32 16 12 4 26 16 32 26 5 10 22 21
37 25 27 6 42 20 98 88 30 37 51 49 42 25 -2 -7 -1 -20 3 -28 5 -9 1 -24 -11
-39 -17 -21 -19 -21 -20 -5 0 11 -3 14 -5 7 -3 -7 -11 -10 -18 -7 -7 3 -18 -7
-24 -21 -11 -23 -10 -25 6 -17 19 10 42 5 42 -9 0 -5 -12 -9 -26 -9 -14 0 -23
-4 -20 -9 3 -5 15 -7 26 -4 12 3 28 -1 38 -9 33 -28 133 -79 143 -72 6 3 29
-7 52 -23 23 -15 49 -31 57 -35 13 -6 13 -7 -1 -7 -9 -1 -35 12 -57 29 -46 33
-68 40 -36 13 72 -64 185 -126 259 -142 33 -7 86 -19 117 -27 73 -18 122 -18
137 0 6 7 31 16 56 18 25 3 52 12 61 19 18 15 24 17 74 25 26 4 31 3 20 -5
-10 -7 -11 -11 -2 -11 6 0 12 -11 12 -25 0 -14 5 -25 10 -25 6 0 10 8 10 18 0
9 5 24 10 32 8 11 9 7 4 -15 -13 -67 -26 -95 -42 -95 -15 0 -15 -2 -2 -10 12
-8 9 -10 -13 -10 -15 0 -45 -12 -67 -26 -22 -15 -50 -28 -63 -29 -31 -4 -74
-22 -82 -34 -8 -15 5 -14 52 3 22 8 52 11 68 8 20 -3 26 -1 21 7 -4 6 -12 8
-18 5 -7 -4 -8 -2 -4 4 4 7 20 10 37 7 27 -5 34 2 30 28 0 4 6 7 15 7 14 0 14
-3 4 -15 -9 -11 -10 -19 -3 -26 21 -21 -7 -75 -49 -98 -45 -24 -52 -25 -43
-11 8 13 -22 2 -67 -27 -20 -12 -94 -46 -165 -75 -107 -44 -140 -53 -205 -56
-43 -2 -75 -8 -72 -13 7 -12 -37 -11 -110 2 -72 13 -116 31 -174 70 -24 16
-51 28 -60 27 -10 -2 -16 2 -15 9 5 26 -313 241 -396 267 -66 20 -113 28 -106
16 3 -6 2 -10 -4 -10 -18 0 -21 17 -5 31 8 7 20 21 25 31 9 18 8 18 -10 8 -12
-6 -21 -16 -21 -22 0 -5 -8 -8 -19 -5 -10 2 -18 -1 -18 -7 1 -36 -4 -45 -21
-40 -13 5 -14 4 -3 -4 12 -9 12 -14 -2 -36 -19 -29 -21 -36 -8 -36 5 0 19 20
31 45 15 32 26 43 34 36 6 -5 34 -9 61 -9 59 0 110 -20 182 -72 40 -28 49 -39
37 -44 -24 -9 -44 -7 -44 5 0 6 9 8 20 4 31 -10 24 1 -16 24 -41 25 -48 26
-41 7 3 -7 0 -13 -6 -12 -7 0 -14 -3 -17 -9 -3 -5 7 -11 23 -13 15 -2 27 -8
27 -14 0 -6 19 -8 51 -5 30 3 48 2 43 -3 -5 -5 -56 -14 -114 -20 -58 -6 -129
-14 -158 -18 -38 -6 -60 -5 -79 5 -34 17 -36 17 -21 -9 7 -13 11 -27 10 -31
-1 -4 6 -4 15 1 27 14 94 22 88 11 -4 -5 -15 -9 -25 -9 -25 0 -74 -19 -67 -26
3 -3 41 2 84 11 137 30 175 35 194 24 15 -7 17 -6 13 6 -4 8 -18 15 -32 15
-14 0 -23 2 -21 5 9 9 139 -8 133 -17 -3 -5 -14 -6 -24 -3 -10 3 -21 1 -25 -5
-4 -6 -3 -10 2 -9 4 1 21 -3 36 -9 15 -7 31 -11 35 -11 18 3 33 -2 29 -8 -3
-5 18 -8 46 -8 38 0 51 -4 49 -13 -1 -8 3 -11 10 -7 7 4 5 0 -5 -8 -17 -14
-16 -16 15 -23 18 -5 38 -9 43 -9 6 0 17 -5 25 -10 79 -52 130 -72 208 -84 86
-13 145 -14 138 -3 -7 12 104 3 131 -10 19 -9 27 -8 45 8 12 10 4 -3 -19 -29
-40 -46 -41 -48 -26 -77 15 -31 33 -40 33 -16 0 8 -7 17 -15 20 -14 5 -14 9 0
35 15 29 88 81 114 81 7 0 25 8 39 18 15 10 54 24 87 31 33 7 70 17 83 22 29
12 45 11 37 0 -3 -6 10 -5 31 0 29 8 39 7 53 -5 10 -9 21 -16 26 -16 5 0 0 6
-11 14 -10 8 -16 18 -11 22 4 4 7 2 7 -4 0 -7 8 -12 18 -12 10 0 22 -3 26 -7
3 -4 30 -8 59 -8 28 -1 40 0 25 2 -18 3 -25 9 -22 18 4 9 -7 17 -35 25 -47 12
-69 39 -78 93 -4 26 -8 34 -14 25 -6 -9 -9 -6 -9 10 0 13 3 21 8 19 4 -3 8 14
9 37 2 22 8 43 13 44 25 9 70 55 70 73 0 28 17 23 25 -8 4 -18 2 -31 -8 -38
-8 -5 -17 -21 -21 -35 -6 -22 -4 -21 14 7 21 32 22 32 47 16 22 -15 27 -15 37
-2 6 7 23 20 36 27 16 8 10 0 -15 -22 -22 -20 -36 -36 -31 -36 9 0 64 39 89
64 19 19 84 46 111 46 20 0 21 5 19 82 -1 66 1 75 7 43 4 -22 6 -55 4 -72 -4
-36 -2 -38 26 -23 23 12 287 14 275 1 -12 -11 214 -141 245 -141 11 0 40 -7
66 -16 40 -13 64 -14 168 -5 121 11 243 41 239 59 -1 6 5 9 15 7 9 -1 28 7 42
20 14 12 39 27 55 32 17 6 39 15 50 19 11 4 23 7 27 6 4 -1 26 5 49 13 23 8
60 15 83 15 39 1 40 1 21 16 -19 15 -19 15 8 9 17 -5 33 -2 42 5 9 7 19 10 22
6 4 -4 1 -11 -7 -16 -15 -9 0 -13 145 -30 50 -6 142 -23 205 -37 140 -32 202
-39 180 -23 -12 9 -10 11 10 6 23 -5 79 9 105 26 52 33 296 67 335 47 27 -14
172 -59 190 -59 10 0 25 -7 33 -15 8 -8 17 -12 20 -8 3 3 36 -5 74 -18 88 -30
155 -29 212 2 67 37 79 45 98 62 26 23 164 57 233 57 33 0 98 -9 144 -21 78
-20 86 -20 130 -5 26 9 55 16 65 16 10 0 29 8 42 18 31 24 236 127 302 152 34
13 77 20 122 20 70 0 184 -23 195 -39 3 -5 20 -12 39 -16 21 -5 31 -4 27 3 -5
9 38 22 77 23 9 0 17 5 17 10 0 6 -4 7 -10 4 -32 -20 5 41 76 125 24 30 30 72
8 63 -10 -4 -12 0 -8 11 7 18 24 22 24 6 0 -12 27 -8 58 9 13 7 26 10 29 8 2
-3 23 3 46 14 64 29 153 25 267 -11 82 -26 196 -59 305 -90 25 -6 26 -8 8 -9
-13 -1 -23 -6 -23 -13 0 -6 -3 -9 -6 -6 -6 6 -44 -27 -44 -37 0 -3 14 2 32 11
53 27 168 20 237 -16 42 -21 96 -30 96 -15 0 6 -15 10 -33 11 -19 1 -37 5 -40
11 -4 5 -61 26 -127 47 -66 21 -129 42 -140 46 -11 5 -56 18 -100 30 -136 38
-470 147 -529 174 -31 14 -59 26 -62 26 -22 0 -393 230 -595 369 -122 84 -437
373 -518 476 -27 33 -79 94 -116 135 -139 154 -358 455 -437 600 -19 36 -74
136 -122 222 -85 154 -95 176 -100 230 -1 15 -6 31 -11 35 -4 4 -5 0 -2 -9 4
-10 3 -18 -1 -18 -9 0 -53 112 -47 118 4 4 10 -10 31 -67 2 -8 7 -11 10 -9 3
3 -8 37 -25 74 -16 38 -32 77 -35 87 -3 10 -10 16 -15 13 -5 -3 -7 3 -4 14 3
13 0 20 -8 20 -11 0 -11 2 -2 8 9 6 9 21 -3 67 -9 33 -19 65 -24 70 -9 13 -22
81 -13 72 3 -4 14 -28 23 -54 18 -52 34 -65 36 -29 1 17 -2 23 -12 19 -10 -3
-14 2 -13 18 0 13 3 18 6 12 2 -7 9 -13 14 -13 4 0 6 7 3 15 -4 8 -12 15 -20
15 -8 0 -14 5 -14 11 0 5 5 7 11 3 7 -4 10 -1 7 7 -3 8 -10 13 -16 12 -6 -2
-14 6 -17 17 -4 11 -10 20 -15 20 -5 0 -7 6 -4 14 3 7 -1 20 -9 27 -26 27 -40
60 -28 72 7 7 18 2 36 -17 14 -16 28 -26 30 -24 3 3 -4 14 -15 26 -11 12 -20
25 -20 29 0 4 -8 17 -17 28 -15 20 -15 19 -10 -5 6 -24 5 -24 -8 -6 -17 23
-20 40 -5 31 15 -9 12 -1 -15 50 -14 27 -18 42 -10 35 18 -15 20 1 3 18 -6 6
-9 14 -6 17 5 5 16 -10 63 -86 30 -49 75 -140 66 -134 -7 3 -8 0 -5 -9 3 -9
10 -14 14 -11 10 6 53 -92 46 -104 -3 -5 1 -26 8 -47 8 -22 15 -34 15 -27 1 6
-4 24 -9 39 -20 53 -3 33 20 -24 99 -241 311 -658 371 -730 5 -7 41 -58 79
-115 37 -56 98 -138 134 -182 37 -44 102 -126 146 -182 44 -55 94 -113 111
-127 16 -14 27 -30 24 -36 -3 -5 -3 -10 2 -10 4 0 67 -57 138 -126 141 -137
389 -361 445 -402 19 -15 58 -45 86 -68 65 -55 218 -150 364 -228 264 -140
515 -236 805 -306 171 -41 165 -40 165 -28 0 6 8 7 17 4 9 -4 20 -1 24 5 8 13
29 4 29 -13 0 -6 -13 -8 -30 -6 -16 3 -30 1 -30 -4 0 -4 12 -8 28 -8 15 -1 54
-7 87 -15 32 -8 61 -12 64 -10 4 5 -14 12 -43 17 -11 2 -21 9 -24 16 -3 11 0
12 17 2 30 -16 96 -9 96 10 0 10 -9 14 -29 13 -27 -2 -28 -1 -14 14 11 10 23
13 35 8 10 -5 22 -7 26 -6 12 2 71 10 86 10 8 1 11 7 7 17 -5 13 -2 15 11 9
28 -12 202 -17 178 -6 -15 8 -8 10 31 9 28 -1 58 3 66 8 12 6 0 9 -35 7 -29 0
-71 -2 -95 -2 -26 -1 -41 -5 -37 -11 3 -5 0 -10 -9 -10 -30 0 -121 24 -136 35
-8 7 -33 15 -55 18 -27 5 -35 3 -25 -3 11 -7 3 -10 -30 -11 l-45 -2 40 -6 c22
-3 42 -3 43 2 2 4 15 7 28 7 24 0 30 -14 18 -44 -7 -18 -64 -23 -64 -6 0 6 11
8 28 4 19 -5 24 -3 17 4 -15 16 -85 27 -85 13 0 -6 8 -11 18 -12 9 0 1 -6 -18
-13 -41 -14 -73 -1 -65 25 3 10 -1 19 -10 23 -9 3 -13 10 -10 16 3 5 -2 10
-11 10 -10 0 -15 2 -12 5 3 3 48 8 99 11 52 2 158 11 236 19 78 8 145 15 149
15 4 0 2 6 -4 13 -8 10 -2 12 30 12 24 0 43 6 46 13 2 6 20 13 40 13 24 1 29
3 14 6 -12 2 -20 7 -18 11 2 4 -9 7 -25 7 -19 0 -28 -4 -24 -12 3 -9 -9 -13
-40 -13 -35 0 -45 -4 -45 -16 0 -17 -29 -16 -75 1 -16 5 -17 5 -5 -4 13 -9 13
-11 -2 -11 -10 0 -18 7 -18 15 0 8 -5 15 -11 15 -6 0 -8 -9 -4 -20 7 -23 -3
-26 -19 -6 -7 10 -22 12 -46 9 -30 -5 -32 -7 -15 -14 13 -6 8 -7 -16 -3 -19 3
-71 1 -115 -5 -47 -6 -101 -7 -134 -2 -30 5 -43 9 -28 10 16 0 41 14 59 32 22
22 34 27 43 20 9 -7 16 -7 23 0 6 6 59 12 119 13 114 3 152 8 174 21 9 5 11 4
6 -3 -5 -8 0 -12 13 -12 12 0 21 -4 21 -10 0 -5 12 -10 26 -10 23 0 25 2 14
15 -7 9 -19 14 -25 11 -7 -2 -18 0 -26 5 -14 10 44 7 106 -5 21 -4 24 -4 11 2
-19 8 -18 9 5 17 l24 8 -25 5 c-23 4 -24 5 -5 13 17 6 17 8 3 8 -11 1 -15 6
-12 16 8 19 -46 42 -57 24 -5 -8 -25 -9 -75 -3 -57 8 -69 12 -72 29 -2 16 -1
17 7 5 7 -10 32 -15 90 -15 44 -1 78 2 76 6 -8 11 -45 18 -51 8 -9 -15 -37
-10 -31 5 6 15 -12 26 -41 26 -13 0 -13 -3 4 -16 18 -14 18 -15 -3 -4 -24 11
-31 30 -12 30 5 0 8 4 4 10 -3 5 -13 7 -23 4 -13 -5 -14 -4 -3 4 11 8 11 11 0
16 -8 3 -4 3 9 0 13 -3 22 -1 22 6 0 6 -16 10 -37 9 -21 0 -60 8 -87 19 -47
18 -48 19 -20 25 16 3 41 3 57 0 17 -3 27 -1 27 6 0 7 4 9 10 6 6 -4 7 1 3 11
-4 11 -8 13 -11 6 -8 -26 -36 -12 -34 18 0 3 -12 6 -26 7 -14 0 -35 12 -46 25
-12 14 -17 16 -13 6 5 -14 0 -16 -29 -15 -39 2 -44 14 -11 27 12 5 16 9 9 9
-7 1 -34 11 -60 23 -26 12 -63 28 -82 34 -23 8 -28 12 -15 13 11 0 41 -10 66
-23 26 -12 66 -26 90 -30 51 -8 70 -22 62 -43 -5 -12 -2 -13 13 -5 11 6 32 8
48 5 20 -4 27 -2 22 6 -4 6 -13 11 -19 11 -7 0 -31 9 -52 20 -22 11 -57 25
-78 31 -22 6 -71 25 -110 44 -40 19 -85 37 -100 41 -16 3 -31 13 -34 20 -3 8
-9 11 -14 9 -14 -9 -261 116 -300 151 -10 9 -19 14 -19 10 0 -8 -33 13 -112
70 -32 22 -54 45 -50 49 4 5 2 5 -4 2 -10 -6 -34 8 -86 52 -9 8 -14 19 -11 25
3 6 3 8 -2 4 -9 -9 -75 41 -152 116 -38 36 -49 52 -40 58 8 6 5 8 -8 6 -12 -2
-19 2 -17 10 1 8 -2 11 -7 8 -11 -7 -147 142 -143 156 1 5 -2 7 -7 4 -12 -8
-64 61 -56 74 4 6 1 9 -7 8 -8 -2 -12 5 -11 20 2 12 -2 22 -8 22 -5 0 -7 -6
-3 -12 26 -43 -39 31 -110 126 -148 197 -292 428 -280 447 4 8 3 10 -4 5 -7
-4 -12 -3 -12 3 0 5 3 11 8 14 4 2 1 2 -5 1 -11 -3 -136 239 -169 326 -7 19
-22 60 -34 90 -125 321 -235 673 -350 1115 -135 520 -265 893 -371 1060 -16
26 -26 52 -23 62 4 13 3 14 -3 5 -7 -8 -23 14 -54 75 -24 48 -45 91 -46 96 -1
4 1 3 4 -3 2 -5 9 -10 15 -10 6 0 6 6 -2 15 -7 8 -16 12 -21 9 -5 -3 -16 10
-24 30 -8 19 -20 38 -26 41 -5 4 -8 14 -5 22 3 8 1 11 -4 8 -10 -6 -145 253
-136 262 3 3 -2 12 -10 21 -10 9 -13 24 -9 41 3 17 2 21 -3 13 -6 -10 -15 0
-29 35 -17 39 -43 111 -48 133 -1 3 -6 16 -12 30 -44 103 -72 188 -67 205 3
13 2 16 -3 8 -6 -9 -17 11 -32 60 -13 39 -26 78 -29 86 -3 9 -1 12 6 7 18 -11
14 5 -4 19 -9 6 -17 26 -18 42 0 17 -3 29 -5 27 -5 -5 -72 202 -74 229 -1 9
-4 17 -8 17 -11 0 -49 111 -42 122 3 6 2 8 -4 5 -5 -3 -20 15 -32 40 -18 37
-20 48 -9 55 10 8 9 9 -3 5 -19 -6 -72 93 -63 120 5 14 4 15 -4 4 -8 -11 -12
-10 -21 8 -7 12 -9 27 -5 33 4 6 3 8 -3 5 -6 -4 -20 8 -30 26 -11 17 -46 65
-79 106 -32 41 -58 78 -57 82 1 4 -4 13 -12 19 -8 7 -15 9 -15 4 0 -4 -13 5
-30 21 -16 15 -27 33 -23 38 3 6 1 7 -6 3 -13 -9 -64 28 -53 39 4 3 3 5 -3 3
-5 -1 -25 8 -43 22 -23 17 -29 26 -20 33 10 6 9 7 -2 4 -19 -5 -100 34 -82 40
6 3 9 9 6 15 -4 7 -9 6 -14 -2 -9 -14 -121 39 -148 70 -9 11 -21 20 -27 20 -5
0 -3 -5 5 -10 24 -16 -4 -11 -46 7 -41 17 -45 19 -83 27 -13 3 -38 10 -55 15
-82 26 -256 32 -406 15z m-719 -501 c-11 -16 -22 -49 -25 -75 -3 -26 -8 -58
-12 -71 -6 -25 16 -57 39 -57 7 0 21 -7 31 -15 18 -13 17 -14 -12 -10 -18 2
-32 -1 -32 -6 0 -6 -4 -8 -9 -4 -5 3 -13 0 -16 -6 -9 -13 21 -46 32 -35 4 4 1
11 -7 16 -13 8 -12 10 3 10 9 0 17 5 17 11 0 7 9 5 24 -5 14 -9 27 -12 30 -7
4 5 22 5 43 0 35 -7 77 -6 158 6 23 4 27 3 15 -6 -12 -8 -10 -9 10 -4 138 37
347 40 324 4 -3 -5 0 -9 6 -9 6 0 29 -12 51 -26 23 -14 43 -23 46 -20 3 2 -9
12 -27 21 -18 9 -30 19 -27 21 12 12 68 -31 164 -124 105 -101 135 -147 138
-212 2 -46 38 -146 61 -174 11 -12 16 -17 12 -12 -34 55 -64 222 -35 198 13
-11 67 -11 67 0 0 4 -12 19 -27 33 -15 14 -24 25 -20 25 4 0 3 9 -2 19 -8 14
-7 20 2 24 16 6 40 107 31 130 -3 10 -1 23 5 31 6 7 12 29 13 49 2 27 6 33 16
25 8 -7 9 -13 3 -18 -6 -3 8 -25 32 -50 23 -25 60 -72 81 -105 22 -33 42 -62
45 -65 3 -3 20 -33 38 -66 25 -47 29 -64 20 -73 -8 -8 -9 -14 -1 -19 13 -9 13
-64 -1 -74 -16 -12 -25 -9 -25 8 0 10 -6 14 -14 11 -8 -3 -16 -1 -19 6 -3 9
-10 9 -32 -1 -21 -10 -25 -16 -17 -24 15 -15 16 -55 2 -63 -8 -5 -8 -11 0 -19
16 -20 -17 -156 -36 -149 -10 3 -12 0 -8 -10 4 -11 -2 -17 -18 -20 -21 -4 -20
-4 5 -6 15 0 27 -5 27 -11 0 -5 5 -10 11 -10 6 0 8 8 4 19 -3 11 -1 22 5 26 5
3 10 17 10 31 0 13 4 24 9 24 35 0 54 67 26 90 -9 7 -14 27 -13 50 0 20 -2 41
-5 47 -3 5 7 9 24 9 24 0 29 -4 29 -24 0 -13 -7 -30 -15 -38 -21 -22 -19 -31
8 -30 18 1 22 7 20 31 -2 27 -2 28 7 8 11 -27 19 -29 34 -9 15 20 64 9 82 -19
8 -12 15 -39 17 -61 1 -30 -2 -39 -16 -42 -12 -2 -20 4 -24 18 -5 20 -6 20
-25 4 -14 -14 -16 -20 -6 -27 10 -6 9 -8 -2 -4 -9 2 -16 18 -18 37 -3 28 -1
32 14 26 17 -6 16 -5 -1 14 -22 24 -26 22 -27 -20 l-1 -32 -19 23 -20 24 8
-30 c4 -16 8 -42 8 -56 1 -24 3 -25 24 -16 16 8 26 7 34 -1 9 -9 9 -12 1 -12
-6 0 -10 -8 -9 -17 2 -10 9 -18 17 -18 8 0 17 -5 21 -11 9 -14 -12 -94 -24
-94 -6 0 -8 -7 -5 -15 4 -8 1 -17 -5 -21 -7 -4 -8 -3 -4 4 4 7 2 12 -3 12 -6
0 -11 -4 -11 -10 0 -5 -7 -10 -15 -10 -8 0 -15 -4 -15 -10 0 -5 8 -7 18 -4 14
5 14 3 -2 -10 -17 -13 -17 -16 -4 -16 26 0 48 11 48 25 0 7 12 15 28 18 15 3
36 19 47 36 11 17 22 31 25 31 9 0 70 -205 90 -306 11 -55 22 -109 25 -120 2
-10 9 -37 14 -59 5 -22 12 -61 15 -88 3 -26 8 -52 11 -57 10 -17 7 -120 -4
-134 -9 -10 -8 -15 4 -20 11 -4 15 -22 15 -76 0 -67 -1 -71 -20 -65 -11 4 -20
2 -20 -4 0 -10 14 -15 33 -12 12 2 8 -11 -10 -31 -15 -17 -15 -21 -3 -30 12
-8 11 -9 -4 -4 -13 5 -28 -5 -55 -36 -20 -24 -85 -90 -145 -148 -60 -58 -127
-124 -149 -147 -34 -36 -46 -43 -79 -43 -22 0 -53 7 -71 17 -30 15 -31 15 -18
-1 7 -9 39 -24 70 -33 31 -8 63 -20 72 -26 13 -8 33 -3 83 21 37 18 70 32 74
32 4 1 25 17 47 36 28 25 32 32 15 23 -15 -7 6 21 51 67 41 44 90 106 109 139
39 71 204 239 300 307 109 77 250 122 360 114 84 -6 185 -35 185 -53 0 -6 4
-15 9 -20 5 -5 6 -3 2 5 -12 20 11 14 57 -14 65 -41 138 -105 134 -118 -2 -6
2 -23 10 -38 14 -30 26 -38 17 -13 -32 81 171 -229 211 -323 90 -216 165 -446
230 -712 26 -102 59 -239 76 -305 16 -66 41 -176 54 -245 14 -69 30 -150 36
-180 25 -127 85 -364 120 -478 22 -68 39 -130 39 -137 0 -12 27 -84 56 -152 8
-17 14 -39 14 -48 0 -9 6 -31 14 -48 8 -18 21 -52 29 -77 27 -78 106 -261 141
-326 31 -55 93 -152 184 -285 32 -48 40 -65 23 -54 -16 9 38 -82 56 -97 13 -9
12 -5 -3 17 -12 17 -27 41 -33 55 l-12 25 18 -22 c10 -11 47 -61 83 -109 36
-49 101 -127 145 -175 114 -123 144 -157 139 -162 -3 -2 21 -24 53 -48 32 -23
66 -52 75 -64 10 -11 18 -17 18 -12 0 4 8 -1 18 -10 9 -10 29 -26 42 -36 28
-19 -78 35 -116 59 -13 9 -21 20 -18 25 3 5 -1 6 -9 4 -28 -11 -191 113 -324
247 -170 172 -229 247 -388 493 -141 217 -267 502 -326 733 -16 64 -43 163
-60 220 -16 57 -38 144 -49 195 -19 84 -30 132 -76 325 -8 34 -22 81 -30 104
-8 23 -16 53 -19 67 -10 56 -98 444 -130 571 -49 196 -60 237 -90 315 -14 39
-39 106 -54 150 -86 241 -244 463 -394 554 -89 54 -258 64 -352 20 -62 -29
-153 -104 -225 -186 -30 -34 -59 -62 -64 -62 -13 -1 -56 -42 -56 -53 0 -5 12
4 26 19 38 41 18 8 -44 -72 -29 -38 -61 -70 -70 -70 -9 -1 -16 -7 -14 -15 3
-14 -82 -106 -130 -141 -26 -19 -27 -19 -22 -2 5 16 4 16 -8 2 -7 -9 -38 -29
-68 -43 -30 -15 -63 -32 -73 -37 -46 -25 -121 -30 -196 -13 -67 15 -82 23
-129 68 -52 48 -130 154 -165 221 -29 58 -83 242 -103 355 -10 61 -8 144 5
170 7 14 27 38 44 53 29 26 31 27 41 10 6 -10 13 -49 17 -88 17 -169 74 -400
114 -461 20 -31 19 -40 -2 -23 -16 13 -17 12 -4 -3 7 -10 17 -16 21 -13 4 3
11 -2 14 -11 4 -9 9 -15 12 -12 3 3 -2 23 -10 44 -26 72 -58 175 -61 202 -2
15 -11 50 -19 77 -9 28 -19 89 -22 136 l-7 86 35 21 c32 20 77 32 53 14 -14
-10 -19 -52 -6 -52 5 0 16 6 23 13 7 8 24 19 37 26 21 12 23 18 20 84 -2 40
-8 90 -15 112 -6 22 -19 69 -29 105 -9 36 -21 75 -26 88 -5 12 -5 22 -1 22 5
0 21 20 37 45 15 25 39 57 53 70 23 24 21 33 -5 17 -6 -4 -54 -49 -107 -99
-52 -51 -114 -104 -138 -119 -24 -15 -45 -30 -48 -33 -12 -14 -79 -34 -125
-37 -47 -3 -52 -1 -92 41 -51 53 -70 85 -51 85 12 0 27 23 46 70 5 13 3 13
-10 2 -9 -7 -19 -24 -22 -37 -5 -19 -14 -24 -44 -27 -39 -3 -112 28 -112 48 0
6 -16 28 -35 48 -36 38 -46 76 -21 76 16 0 29 27 17 34 -5 3 -19 -3 -31 -14
-14 -12 -38 -20 -60 -20 -49 0 -60 25 -70 162 -14 182 -24 215 -84 271 -28 27
-72 59 -98 72 -25 14 -55 36 -66 50 -29 37 -55 154 -50 228 4 58 26 125 39
116 3 -2 13 3 22 13 9 9 22 18 29 20 8 3 6 13 -8 34 -30 42 -33 58 -19 77 7 9
11 29 9 43 -4 38 14 74 55 111 44 40 47 40 22 6z m190 -1272 c17 -42 34 -78
38 -81 28 -22 189 -377 197 -435 3 -22 26 -102 50 -177 47 -147 56 -215 28
-204 -12 5 -15 2 -9 -11 4 -10 8 -34 11 -53 l4 -35 -13 37 c-11 33 -12 21 -12
-101 0 -98 -4 -145 -14 -164 -10 -19 -11 -33 -3 -56 9 -25 8 -29 -4 -24 -8 3
-21 -2 -28 -12 -7 -10 -17 -15 -22 -12 -14 8 -16 65 -3 73 9 5 10 0 7 -14 -7
-27 8 -40 16 -14 4 10 8 41 11 69 2 28 9 70 14 94 17 77 19 149 5 164 -11 10
-11 14 -1 18 22 7 12 124 -18 207 -15 41 -35 102 -44 135 -10 33 -20 67 -23
75 -3 8 -20 69 -38 135 -29 109 -98 264 -121 273 -5 2 -9 11 -9 21 0 15 -43
114 -70 163 -6 10 -10 23 -10 30 1 23 29 -23 61 -101z m540 -235 c-9 -11 -7
-15 11 -20 17 -4 29 -22 45 -63 13 -33 18 -59 13 -61 -6 -2 -10 -13 -11 -25 0
-21 -1 -21 -9 -2 -9 20 -15 7 -11 -22 1 -7 -2 -13 -7 -13 -6 0 -16 -15 -24
-34 l-13 -35 -24 109 c-25 119 -23 151 11 168 31 14 32 14 19 -2z m-74 -1652
l-6 -36 19 22 c18 21 19 21 29 1 6 -11 11 -27 11 -36 0 -11 5 -15 14 -12 11 5
14 -3 12 -34 -2 -21 1 -39 5 -39 5 0 9 10 10 23 0 18 4 16 17 -14 10 -20 23
-34 30 -31 9 3 11 -3 7 -20 -3 -13 -2 -36 4 -50 6 -15 6 -28 1 -30 -5 -2 -24
-33 -43 -70 -19 -37 -37 -64 -41 -61 -3 3 -8 -2 -12 -11 -3 -9 -10 -13 -15
-10 -5 3 -6 -1 -3 -9 3 -8 -2 -20 -11 -27 -13 -11 -15 -10 -9 6 5 18 5 18 -9
2 -21 -26 -72 -34 -80 -14 -4 9 -1 16 6 16 8 0 7 3 -2 9 -8 5 -20 7 -28 4 -7
-3 -13 0 -13 7 0 6 -4 8 -10 5 -6 -3 -7 1 -4 9 3 9 13 16 21 16 8 0 11 -4 8
-10 -3 -5 -1 -10 4 -10 6 0 11 5 11 10 0 6 7 10 15 10 20 0 96 70 89 81 -3 5
2 9 10 9 8 0 18 5 22 12 4 7 3 8 -4 4 -26 -16 5 49 37 78 12 11 21 29 21 40
-1 16 -4 14 -15 -11 -15 -34 -30 -42 -38 -20 -3 7 -6 5 -6 -5 -1 -10 -5 -18
-11 -18 -5 0 -10 -11 -10 -25 0 -14 -5 -25 -11 -25 -5 0 -7 5 -3 12 5 7 3 8
-5 3 -7 -4 -11 -16 -8 -26 7 -27 0 -23 -17 9 l-14 27 1 -35 c1 -23 -2 -34 -10
-32 -7 1 -13 -7 -13 -17 0 -24 -55 -45 -125 -47 -37 -1 -58 5 -80 21 -33 25
-72 85 -56 85 6 0 11 -7 11 -15 0 -40 113 2 176 65 27 28 55 50 62 50 6 0 12
11 12 24 0 13 5 26 12 28 6 2 12 15 14 29 1 13 3 26 5 29 2 5 4 24 7 68 1 12
5 22 8 22 4 0 4 -16 1 -36z m366 -256 c22 -7 33 -14 26 -19 -8 -5 -7 -13 6
-30 11 -15 15 -18 12 -6 -8 23 5 22 20 -2 11 -18 9 -20 -14 -23 -15 -2 -29
-10 -31 -18 -5 -13 -3 -13 11 -2 24 20 81 -14 72 -43 -4 -11 -11 -43 -16 -72
-5 -29 -14 -65 -21 -80 -6 -15 -11 -31 -10 -35 1 -4 -10 -16 -23 -26 -14 -11
-25 -24 -25 -30 0 -5 -9 -21 -21 -36 -20 -25 -21 -25 -50 -10 -23 11 -29 20
-24 35 6 18 -2 23 -42 22 -6 0 -11 8 -10 18 1 9 4 16 8 13 8 -5 56 94 71 146
5 19 18 44 28 55 16 18 17 26 6 77 -6 31 -15 60 -19 65 -5 4 -6 -3 -3 -17 10
-51 17 -120 11 -120 -3 0 -10 10 -15 23 -8 20 -9 19 -9 -12 -2 -70 -50 -166
-122 -242 -43 -44 -73 -68 -80 -63 -8 4 -9 3 -5 -5 4 -6 16 -9 26 -6 10 3 21
1 25 -5 9 -14 45 -13 45 2 0 9 3 9 12 0 10 -10 10 -15 -2 -22 -12 -7 -12 -12
-2 -22 9 -9 12 -9 12 4 0 9 5 18 11 20 5 2 11 10 12 18 6 36 18 41 38 16 25
-31 25 -31 -13 -47 -18 -7 -39 -19 -46 -26 -17 -17 -43 -17 -41 0 3 28 -2 37
-22 37 -11 0 -18 4 -15 8 2 4 -16 9 -41 10 -27 1 -60 11 -82 24 l-36 23 41 3
c50 4 102 45 167 130 52 68 67 116 67 210 0 88 7 92 113 60z m-1386 -62 c28
-31 32 -40 29 -84 -2 -27 -7 -59 -11 -71 -8 -25 -53 -51 -89 -51 -29 0 -81 41
-102 81 -19 38 -3 108 34 145 38 37 94 29 139 -20z m1510 -40 c4 -7 70 -45
147 -84 76 -40 145 -77 154 -84 40 -34 66 -139 64 -261 -4 -153 -31 -235 -108
-317 -26 -27 -51 -50 -56 -50 -48 0 -458 342 -458 382 0 5 21 18 47 29 53 22
60 29 121 109 28 38 46 75 56 117 7 34 12 64 9 66 -2 3 3 19 12 37 15 30 15
32 -7 50 -19 16 -20 19 -6 20 9 0 21 -6 25 -14z m-1925 -118 c17 -32 19 -128
2 -159 -22 -44 -71 -52 -104 -19 -26 26 -28 115 -2 146 25 29 57 45 78 37 12
-4 15 -3 10 5 -4 7 -5 12 -2 12 3 0 11 -10 18 -22z m2434 -94 c13 -3 24 -10
24 -15 0 -5 6 -9 13 -9 7 0 22 -6 32 -14 18 -13 18 -14 -8 -9 -16 3 -27 1 -27
-6 0 -6 3 -10 8 -9 20 5 49 -15 59 -42 10 -28 10 -30 -12 -30 -12 0 -26 7 -29
16 -4 9 -9 14 -12 11 -4 -3 -13 1 -21 9 -9 8 -18 12 -22 9 -3 -4 6 -17 21 -30
15 -13 24 -26 21 -29 -4 -3 12 -6 34 -6 25 0 43 -5 46 -13 7 -19 -8 -41 -22
-33 -6 4 -11 3 -11 -2 0 -5 -16 -5 -38 1 -27 7 -42 18 -51 38 -7 16 -10 33 -7
38 4 5 -3 25 -14 43 -11 18 -20 45 -20 60 0 14 -3 28 -7 31 -5 2 -2 2 5 0 8
-2 25 -6 38 -9z m-1614 -55 c22 -12 60 -88 51 -102 -3 -5 1 -13 8 -18 11 -6
11 -11 2 -20 -6 -6 -9 -17 -7 -24 5 -13 -58 -74 -79 -76 -58 -6 -105 17 -128
62 -25 50 -24 92 4 142 35 64 78 74 149 36z m1722 -169 c17 0 27 -10 39 -40
l15 -40 -50 0 c-58 0 -58 -12 -1 -14 35 -1 38 -3 41 -33 2 -18 -1 -41 -7 -50
-9 -16 -10 -16 -11 -1 0 9 -4 20 -10 23 -7 4 -7 -3 0 -20 22 -57 6 -110 -29
-97 -14 5 -14 3 2 -12 23 -24 21 -52 -5 -70 -12 -9 -19 -16 -15 -16 19 0 -15
-38 -38 -42 -20 -4 -25 -1 -26 16 0 21 -1 21 -9 1 -7 -17 -9 -17 -9 -3 -1 11
-6 15 -15 12 -8 -3 -17 0 -22 7 -5 8 -3 10 6 4 10 -6 12 -3 7 15 -4 16 1 29
19 45 24 22 33 42 14 30 -14 -9 -13 1 5 35 26 51 35 164 14 185 -7 7 -9 3 -7
-15 2 -14 -1 -27 -6 -30 -5 -3 -11 17 -12 43 -3 38 0 48 11 44 8 -4 15 3 19
18 5 21 9 23 32 15 14 -6 36 -10 48 -10z m-2158 -121 c46 -28 74 -78 37 -65
-12 4 -10 0 5 -10 46 -33 17 -110 -53 -140 -56 -23 -135 -5 -135 33 0 7 -7 13
-15 13 -11 0 -15 13 -16 53 -2 63 -2 58 7 81 6 15 4 17 -6 11 -8 -5 -11 -4 -6
3 4 6 12 9 19 6 7 -2 22 4 32 16 24 27 87 27 131 -1z m-466 -129 c0 8 11 -9
25 -36 24 -47 37 -138 15 -104 -8 12 -10 11 -11 -7 -1 -13 -2 -29 -3 -35 -1
-7 -7 -18 -15 -24 -9 -7 -11 -16 -6 -25 5 -8 5 -11 1 -7 -5 4 -18 3 -31 -2
-20 -7 -22 -6 -18 11 4 14 0 19 -16 19 -11 0 -21 -5 -21 -11 0 -5 5 -7 10 -4
11 7 13 -6 4 -29 -8 -22 -57 -20 -77 2 -25 27 -47 87 -47 128 0 29 20 79 46
113 7 9 120 16 132 8 8 -6 12 -5 12 3z m1840 -145 c17 -51 7 -78 -33 -93 -66
-24 -97 -13 -143 49 -28 39 -30 66 -7 114 18 38 36 44 59 20 17 -17 39 -21 29
-5 -3 6 -1 10 6 10 8 0 6 8 -6 23 -10 12 5 -2 33 -30 28 -29 56 -69 62 -88z
m-605 45 c61 -34 73 -162 19 -208 -23 -20 -34 -23 -68 -17 -56 8 -84 29 -107
78 -29 65 -25 103 16 144 31 31 38 33 72 27 21 -4 51 -15 68 -24z m-493 -364
c15 -5 30 -18 34 -29 3 -12 13 -30 21 -39 8 -9 12 -21 9 -27 -4 -6 -2 -20 4
-32 26 -48 -42 -129 -110 -129 -44 0 -92 18 -84 32 3 5 -2 8 -12 6 -10 -2 -19
2 -19 7 0 6 -3 15 -6 20 -4 6 -12 26 -18 46 -13 41 -5 63 44 121 26 30 36 34
70 33 22 -1 52 -5 67 -9z m1327 -116 c13 6 28 4 52 -8 65 -33 73 -154 12 -201
-40 -32 -104 -28 -141 8 -44 45 -50 100 -15 152 26 40 65 66 71 48 2 -5 12 -5
21 1z m-577 -94 c47 -20 58 -36 64 -92 4 -44 -12 -104 -28 -104 -5 0 -8 -5 -8
-11 0 -5 6 -7 13 -3 6 4 9 3 4 -1 -4 -5 -15 -10 -25 -11 -9 -1 -33 -5 -52 -9
-50 -9 -99 20 -127 76 -12 24 -22 56 -23 71 0 35 47 91 72 85 10 -3 18 -1 18
4 0 14 53 11 92 -5z m1598 -141 c7 -8 17 -15 23 -15 5 0 16 -8 24 -17 8 -10
12 -12 8 -5 -4 7 0 12 10 12 11 0 15 -5 11 -15 -3 -9 0 -15 8 -15 8 0 33 -21
55 -46 41 -47 42 -51 24 -117 -7 -27 -59 -50 -83 -37 -11 6 -20 7 -20 3 0 -4
-4 -2 -9 5 -7 11 -23 18 -53 21 -3 1 -18 22 -32 47 -28 51 -27 91 6 133 19 24
19 25 -2 36 -11 6 -17 14 -14 18 12 11 31 8 44 -8z m-2000 -185 c14 -4 21 -8
16 -9 -4 -1 2 -10 15 -22 13 -11 17 -17 9 -13 -11 6 -11 3 2 -12 22 -25 25
-68 9 -116 -16 -48 -45 -68 -97 -68 -57 0 -98 34 -113 95 -26 102 57 178 159
145z m1307 -78 c38 -11 90 -69 96 -104 2 -18 -2 -48 -9 -67 -17 -41 -17 -44
-1 -35 7 4 9 3 4 -2 -5 -5 -10 -8 -13 -7 -2 1 -19 -4 -38 -12 -103 -43 -199
18 -193 123 1 28 4 48 6 46 2 -2 22 12 44 31 40 34 60 39 104 27z m-3074 -71
c30 -12 57 -67 50 -103 -11 -58 -121 -119 -158 -88 -8 6 -20 8 -27 4 -7 -4
-10 -4 -6 1 4 4 3 14 -3 22 -12 14 -14 86 -3 104 9 15 95 69 110 69 7 0 24 -4
37 -9z m384 -14 c3 10 10 10 25 2 11 -6 22 -8 25 -6 6 7 43 -30 43 -42 0 -5
-5 -12 -10 -14 -6 -3 -5 -4 2 -3 16 3 58 -51 58 -74 0 -9 -17 -42 -37 -73 -38
-56 -58 -67 -122 -67 -38 0 -106 42 -107 65 -1 11 -3 29 -4 40 -6 48 2 73 34
108 18 20 41 37 50 37 10 0 14 5 11 10 -10 17 6 34 17 19 7 -11 11 -11 15 -2z
m2103 -73 c0 -8 -4 -12 -10 -9 -6 3 -10 -5 -10 -18 0 -17 7 -26 21 -30 14 -4
18 -10 13 -19 -6 -11 -5 -11 8 0 14 11 23 7 66 -35 44 -44 50 -53 50 -93 1
-53 -16 -75 -76 -101 -49 -21 -95 -24 -140 -8 -38 13 -88 103 -77 140 7 24 7
24 -9 4 -15 -19 -16 -19 -6 8 18 51 30 66 65 83 23 10 35 23 35 36 0 21 36 57
58 58 6 0 12 -7 12 -16z m1290 -80 c0 -3 -4 -2 -10 1 -5 3 -10 1 -10 -4 0 -6
4 -11 9 -11 14 0 41 -66 41 -102 0 -24 -10 -43 -36 -70 -48 -52 -72 -56 -133
-23 -54 30 -71 59 -71 123 0 67 66 133 120 119 11 -3 23 -1 26 4 5 9 64 -26
64 -37z m-1780 -281 c17 -16 33 -39 35 -53 3 -14 7 -39 11 -56 4 -21 1 -34
-10 -43 -9 -8 -16 -19 -16 -26 0 -19 -46 -38 -74 -31 -15 4 -26 2 -26 -4 0 -5
-5 -10 -11 -10 -5 0 -7 5 -3 11 4 7 0 9 -12 5 -13 -4 -32 6 -62 33 -38 35 -42
43 -42 87 0 27 4 54 8 59 42 60 150 75 202 28z m2265 -37 c31 -28 34 -36 31
-78 -3 -55 -20 -78 -76 -103 -38 -17 -42 -17 -85 -1 -54 21 -66 40 -68 111 -2
42 2 58 17 72 18 17 19 17 12 -2 -7 -19 -6 -19 16 1 54 50 100 50 153 0z
m-3124 -12 c11 -9 19 -12 19 -6 0 6 -6 12 -12 15 -7 2 -10 7 -6 11 13 15 46
-14 62 -53 13 -34 14 -45 2 -73 -7 -18 -11 -39 -9 -46 3 -8 -1 -10 -11 -6 -11
4 -16 0 -16 -15 0 -14 -5 -19 -15 -14 -10 3 -15 1 -13 -7 4 -17 -39 -22 -79
-9 -102 33 -136 161 -55 212 33 21 105 16 133 -9z m-1030 -34 c25 0 109 -82
108 -106 0 -10 -13 -39 -28 -64 -37 -62 -101 -90 -161 -70 -45 15 -65 40 -75
94 -6 30 -3 44 19 77 29 43 83 82 104 74 8 -3 22 -5 33 -5z m618 -70 c11 -32
11 -32 -44 -34 -30 -2 -43 -58 -20 -92 15 -23 22 -26 55 -21 50 6 60 -15 21
-43 -34 -24 -50 -25 -96 -5 -87 36 -70 186 24 212 20 6 39 11 43 12 3 0 11
-12 17 -29z m-1156 -22 c18 -18 35 -32 38 -31 13 4 -12 -82 -29 -100 -24 -27
-91 -57 -127 -57 -72 0 -101 98 -48 161 54 64 119 75 166 27z m3846 -60 c36
-22 54 -70 49 -127 -6 -66 -22 -81 -86 -87 -80 -7 -128 25 -149 99 -23 78 34
142 119 133 25 -3 56 -11 67 -18z m-4382 -67 c-1 -7 7 -15 17 -17 11 -1 29
-14 42 -29 19 -23 21 -31 12 -63 -15 -53 -59 -90 -100 -84 -71 10 -100 60 -63
108 8 10 15 27 15 36 0 10 12 25 26 34 17 12 22 19 13 25 -7 4 -1 6 14 6 17
-1 26 -7 24 -16z m2521 -82 c9 -12 29 -36 45 -54 34 -41 57 -103 50 -138 -10
-50 -83 -88 -97 -51 -4 9 -13 14 -21 10 -8 -3 -15 -1 -15 4 0 5 -6 7 -14 4
-26 -10 -45 100 -25 147 11 27 39 47 39 29 0 -6 4 -10 10 -10 10 0 8 50 -4 69
-13 20 14 12 32 -10z m2374 -2 c7 -7 26 -20 41 -30 20 -13 27 -25 24 -38 -3
-10 -1 -16 4 -13 10 6 4 -30 -12 -73 -5 -13 -6 -29 -3 -37 3 -8 1 -17 -5 -21
-7 -3 -8 0 -5 9 9 22 -5 20 -26 -5 -10 -11 -30 -22 -44 -25 -34 -6 -91 19
-110 48 -22 33 -23 96 -2 136 25 49 107 78 138 49z m-1306 -29 c13 -6 35 -34
49 -62 22 -45 24 -56 14 -91 -18 -63 -87 -98 -139 -69 -33 18 -84 64 -77 70 2
3 1 21 -4 41 -8 40 3 71 41 111 18 20 29 23 57 17 19 -3 46 -11 59 -17z
m-1342 -227 c35 -37 48 -120 24 -149 -8 -9 -18 -25 -21 -34 -6 -16 -25 -23
-49 -19 -5 0 -8 -3 -8 -9 0 -5 -7 -10 -16 -10 -9 0 -12 5 -8 12 5 7 3 8 -5 3
-21 -13 -59 16 -75 57 -26 64 -21 96 22 137 52 49 97 53 136 12z m-2211 -38
c45 -45 47 -73 9 -134 -43 -67 -102 -110 -152 -111 -46 0 -61 8 -40 23 12 8
10 9 -7 4 -27 -7 -43 16 -43 61 0 8 -4 12 -10 9 -12 -8 -2 51 15 85 28 54 100
99 161 100 22 0 41 -10 67 -37z m989 -2 c9 -9 18 -23 19 -31 6 -33 -14 -99
-34 -118 -29 -26 -130 -73 -124 -58 3 8 -4 11 -22 8 -40 -6 -69 32 -76 97 -5
50 -3 54 32 87 20 19 46 36 57 39 69 15 114 8 148 -24z m4799 8 c30 -26 37
-94 11 -104 -13 -5 -14 -8 -4 -14 17 -10 -45 -64 -64 -57 -8 3 -14 1 -14 -3 0
-17 -34 -22 -46 -7 -6 9 -16 16 -22 16 -13 0 -27 38 -24 65 6 49 14 66 35 75
22 9 22 9 -3 10 -24 1 -23 2 10 20 46 25 91 25 121 -1z m-491 -101 c14 -13 27
-22 31 -21 8 2 5 -29 -4 -44 -4 -6 -2 -13 4 -15 18 -6 -6 -67 -40 -104 -26
-27 -35 -31 -73 -27 -50 4 -85 27 -111 71 -25 42 -9 101 36 136 44 35 122 36
157 4z m-2321 -25 c-3 -20 2 -27 11 -13 13 21 140 -106 140 -142 0 -30 -23
-79 -48 -101 -24 -22 -96 -25 -119 -6 -10 8 -30 21 -46 29 -34 17 -50 69 -37
123 9 44 18 56 24 36 20 -67 41 -110 61 -123 23 -15 60 -12 50 4 -2 4 7 6 20
4 14 -1 25 0 25 2 0 7 -23 47 -40 69 -14 18 -14 19 3 6 10 -8 17 -9 17 -3 0
16 -34 32 -65 32 -19 0 -29 -6 -33 -22 -5 -19 -7 -17 -19 17 -13 38 -5 65 19
65 6 0 5 -7 -2 -15 -9 -11 -9 -15 -1 -15 6 0 14 7 16 15 3 8 7 22 10 30 4 15
16 21 14 8z m1125 -34 c71 -56 70 -146 -3 -198 -34 -25 -75 -27 -123 -7 -42
18 -74 87 -63 136 10 44 75 84 146 89 9 1 28 -8 43 -20z m-3768 -65 c21 -5 74
-97 76 -131 2 -30 -12 -74 -22 -68 -5 3 -12 0 -16 -6 -4 -8 -3 -9 4 -5 18 11
14 -3 -10 -36 l-21 -31 -19 23 c-10 12 -18 18 -18 12 0 -20 -69 6 -104 38 -44
42 -53 91 -25 136 36 58 95 84 155 68z m1356 -84 c28 -28 30 -35 26 -82 -4
-42 -11 -57 -37 -80 -46 -41 -117 -37 -167 10 -22 21 -39 96 -29 124 11 27 77
58 128 58 41 0 53 -5 79 -30z m3142 -27 c4 -5 13 -8 19 -8 7 -1 11 -6 10 -13
-2 -6 4 -9 11 -6 29 11 58 -83 40 -131 -10 -24 -84 -59 -123 -56 -40 2 -53 14
-81 75 l-22 46 26 41 c15 22 31 37 36 34 6 -4 10 -2 10 4 0 5 12 12 28 14 15
2 30 5 33 6 3 0 9 -2 13 -6z m-2084 -94 c0 -5 6 -9 13 -9 22 -1 62 -44 75 -83
17 -47 7 -93 -23 -113 -31 -20 -91 -29 -99 -15 -5 8 -13 8 -27 1 -15 -9 -26
-7 -48 9 -51 36 -79 181 -35 181 8 0 19 -10 24 -22 8 -20 9 -18 7 11 -2 29 2
36 23 41 37 10 90 9 90 -1z m-1527 -45 c70 -52 57 -169 -20 -189 -26 -7 -26
-8 -8 -16 26 -11 -47 -1 -91 12 -82 25 -97 119 -32 189 18 19 32 38 31 42 -4
11 95 -19 120 -38z m4594 -32 c51 -26 55 -98 8 -156 -13 -17 -27 -20 -102 -19
-105 1 -118 11 -109 87 7 59 10 63 78 92 55 24 72 23 125 -4z m-2110 -98 c30
-8 75 -79 72 -112 -2 -15 0 -32 4 -39 4 -6 3 -14 -2 -17 -5 -3 -11 1 -15 9 -5
15 -36 10 -36 -6 0 -4 8 -5 17 -2 13 5 15 2 10 -11 -5 -11 -3 -15 5 -10 7 5 8
3 3 -5 -4 -7 -16 -11 -26 -8 -11 3 -17 2 -15 -1 2 -4 -24 -7 -59 -7 -45 0 -61
3 -54 11 6 7 0 10 -20 9 -20 -1 -34 6 -46 21 -10 13 -20 22 -24 20 -3 -2 -6
16 -6 41 1 33 7 51 23 68 31 32 119 52 169 39z m166 -23 c113 -54 291 -127
347 -142 19 -6 42 -13 50 -16 8 -3 24 -7 35 -9 11 -2 40 -8 65 -13 l45 -10
-50 5 c-27 2 -59 6 -69 8 -10 1 -36 -3 -57 -10 -32 -11 -49 -11 -113 3 -66 14
-75 19 -74 38 2 17 7 20 33 17 23 -3 27 -1 15 7 -8 6 -25 11 -37 11 -13 0 -23
4 -23 10 0 5 -6 7 -14 4 -7 -3 -16 2 -19 10 -4 9 -13 16 -22 16 -8 0 -15 4
-15 10 0 5 -12 13 -26 16 -14 4 -46 17 -71 30 -24 13 -49 24 -55 24 -13 0 30
-34 55 -43 9 -3 17 -11 17 -17 0 -7 -6 -8 -19 -1 -10 6 -21 7 -25 4 -3 -3 -6
2 -6 11 0 12 -5 16 -16 12 -8 -3 -12 -2 -9 4 3 5 -7 16 -22 25 -25 14 -25 15
-4 9 16 -4 21 -3 17 5 -10 16 -2 14 67 -18z m1307 -101 c-10 -7 15 -10 80 -8
110 2 210 -8 224 -22 13 -13 -24 -13 -58 0 -16 6 -27 6 -31 0 -4 -6 0 -10 7
-10 8 0 30 -9 51 -19 20 -10 39 -15 42 -11 3 5 2 10 -2 13 -5 2 -1 2 7 -1 8
-3 27 -7 43 -10 15 -2 30 -8 33 -13 7 -11 -79 -11 -128 0 -21 5 -36 5 -33 1 3
-4 -5 -11 -18 -14 -21 -7 -21 -7 -2 -16 13 -5 -17 -8 -82 -9 -56 0 -105 4
-108 8 -7 12 -59 20 -164 26 -47 3 -92 7 -102 10 -10 3 -20 2 -23 -3 -3 -5
-18 -8 -33 -6 -15 1 -30 0 -33 -4 -3 -4 -21 -5 -40 -1 l-35 5 28 8 c15 5 27
11 27 15 0 5 33 13 73 20 39 7 91 17 115 23 34 9 93 18 167 27 6 0 3 -4 -5 -9z
m-152 -126 c12 -20 22 -41 22 -49 0 -7 6 -16 13 -18 6 -3 2 -6 -10 -6 -13 -1
-23 -6 -23 -12 0 -5 4 -8 8 -5 5 3 9 -2 9 -10 0 -10 -4 -11 -11 -4 -5 5 -35
10 -65 10 -57 0 -121 17 -121 33 0 5 -7 6 -16 3 -14 -5 -15 -4 -4 9 7 9 19 14
25 11 7 -2 18 1 24 7 9 9 11 8 6 -5 -9 -22 8 -24 25 -4 6 8 17 13 23 11 17 -6
46 15 30 21 -8 4 -7 11 5 25 23 27 34 24 60 -17z"/>
<path d="M4708 10626 c-48 -12 -100 -31 -116 -43 -16 -12 -45 -28 -65 -37 -58
-24 -147 -94 -147 -116 0 -33 27 -23 94 34 89 75 172 121 273 152 49 14 93 27
98 29 6 2 -3 3 -20 3 -16 0 -69 -10 -117 -22z"/>
<path d="M4728 10370 c-93 -83 -215 -125 -248 -86 -6 8 -18 12 -25 10 -18 -7
1 -54 22 -54 7 0 12 -3 12 -7 -1 -5 -1 -16 0 -27 1 -15 4 -16 16 -6 13 10 15
9 15 -10 0 -22 1 -22 25 -6 17 11 24 13 23 4 -6 -28 104 -14 136 17 8 8 21 15
28 15 15 1 58 34 58 45 0 4 -7 2 -15 -5 -9 -8 -15 -9 -15 -2 0 6 9 17 21 25
14 10 20 24 17 40 -1 13 2 30 8 38 7 8 15 24 18 37 13 41 -34 27 -96 -28z"/>
<path d="M5162 5422 c-9 -12 -14 -14 -18 -4 -16 35 -89 -25 -91 -76 -1 -29 1
-32 20 -27 15 4 18 4 8 -3 -11 -8 -10 -13 5 -30 17 -20 41 -21 28 -1 -3 6 4 5
16 -3 18 -10 24 -10 27 0 3 6 11 12 19 12 8 0 14 8 13 18 0 10 -3 12 -6 5 -2
-7 -8 -13 -13 -13 -13 0 1 41 17 47 11 4 9 10 -8 29 -18 20 -20 26 -9 39 7 8
11 17 9 20 -3 2 -10 -4 -17 -13z"/>
<path d="M839 3945 c-4 -3 -48 -8 -100 -11 -89 -5 -134 -14 -73 -14 l29 -1
-25 -14 -25 -14 31 1 c17 1 37 -3 45 -7 11 -7 11 -5 -1 10 -11 14 -11 17 -1
11 7 -5 16 -4 20 2 3 6 36 13 72 16 57 5 66 3 77 -14 11 -19 9 -20 -30 -19
-36 1 -39 2 -18 9 20 6 14 8 -24 8 -30 -1 -43 -4 -35 -9 10 -6 11 -9 2 -9 -21
0 -15 -17 10 -25 30 -11 107 -13 101 -3 -9 15 33 8 46 -7 11 -13 6 -15 -31
-16 -24 0 -37 -3 -29 -6 8 -3 28 -18 44 -34 15 -16 31 -27 35 -25 6 4 10 -11
13 -52 1 -8 9 -11 22 -8 12 3 28 1 36 -4 9 -6 17 -5 22 3 13 20 9 40 -7 33 -8
-3 -15 -1 -15 3 0 5 6 11 14 14 16 6 26 -13 26 -48 0 -13 4 -26 9 -29 16 -11
20 -46 4 -46 -8 0 -11 5 -8 10 8 12 -52 12 -80 0 -15 -7 -10 -9 23 -9 24 -1
41 -5 38 -10 -3 -4 5 -6 17 -4 16 3 36 -7 67 -34 74 -63 88 -70 35 -18 -27 28
-53 49 -56 48 -3 -1 -13 22 -22 50 -9 29 -26 82 -37 119 -12 37 -26 70 -31 73
-5 4 -7 0 -6 -7 2 -7 -1 -3 -6 8 -12 25 -60 56 -102 66 -16 3 -39 9 -50 13
-11 3 -23 3 -26 0z"/>
<path d="M8737 3859 c-32 -4 -70 -18 -84 -29 -14 -11 -31 -20 -37 -20 -15 0
-86 -59 -86 -71 0 -5 -16 -23 -35 -40 -19 -17 -32 -36 -28 -42 3 -5 1 -7 -4
-4 -6 4 -17 0 -24 -9 -7 -8 -25 -22 -41 -30 -28 -15 -74 -54 -62 -54 3 0 31
12 62 26 31 15 62 27 69 27 6 0 9 6 6 13 -3 8 11 16 39 22 24 6 36 10 26 11
-20 1 -18 24 6 50 10 11 15 24 12 30 -4 5 12 21 35 35 31 18 48 22 64 16 29
-11 65 -2 65 16 0 8 -6 14 -12 14 -7 1 0 8 16 16 16 9 41 14 57 12 15 -3 26
-1 23 4 -7 11 -3 10 42 -5 22 -7 66 -12 99 -12 111 3 121 8 25 15 -52 4 -113
9 -135 13 -22 3 -66 1 -98 -4z"/>
<path d="M8046 3594 c-50 -28 -124 -88 -96 -79 23 7 24 6 11 -9 -8 -10 -22
-15 -32 -13 -11 3 -19 -2 -22 -13 -5 -20 -64 -53 -72 -40 -3 5 3 13 12 19 10
6 13 11 6 11 -6 0 -15 -4 -18 -10 -3 -5 -16 -10 -28 -11 -20 -1 -20 -2 3 -8
24 -7 23 -8 -15 -19 -22 -6 -80 -14 -130 -17 -75 -5 -100 -3 -149 15 -78 27
-99 26 -201 -10 -132 -47 -304 -160 -242 -160 7 0 24 14 39 30 16 18 32 28 41
24 9 -3 36 6 62 20 25 14 54 26 63 26 10 0 22 4 28 10 5 5 65 10 134 12 69 1
115 4 103 6 -13 2 -23 8 -23 14 0 6 8 7 18 3 9 -3 29 -9 45 -12 15 -3 27 -10
27 -16 0 -9 24 -8 148 5 6 1 12 6 12 11 0 5 -10 7 -22 3 -54 -14 -98 -18 -98
-8 0 9 96 25 156 25 13 0 24 4 24 9 0 5 4 7 10 3 5 -3 17 -1 27 5 10 5 40 19
66 30 30 12 46 24 41 31 -4 8 0 9 15 4 15 -4 21 -2 21 9 0 20 31 28 77 21 l38
-7 -28 16 c-16 9 -41 13 -60 10 -28 -4 -29 -3 -9 6 14 6 20 14 16 22 -5 8 -2
9 10 5 10 -4 15 -3 11 3 -11 17 45 31 99 24 28 -4 70 -15 94 -26 48 -20 72
-24 57 -9 -20 19 -140 51 -189 51 -28 -1 -64 -8 -80 -16z"/>
<path d="M3989 3300 c-45 -8 -218 -89 -189 -90 8 0 29 9 47 19 17 11 40 17 52
14 14 -4 21 -1 21 10 0 18 53 34 58 18 2 -6 13 -10 25 -10 17 1 18 2 5 6 -10
2 -18 9 -18 15 0 15 177 4 221 -15 19 -7 38 -13 42 -13 5 1 15 -11 23 -26 9
-18 23 -28 37 -28 12 0 28 -4 35 -8 14 -9 -114 -42 -163 -42 -21 0 -26 -3 -16
-9 11 -7 10 -11 -7 -20 -11 -6 -29 -11 -40 -11 -21 0 -160 -43 -189 -59 -25
-13 -84 -38 -109 -45 -12 -4 -60 -7 -108 -8 -47 -1 -80 -5 -73 -10 7 -5 2 -8
-15 -8 -15 0 -30 -5 -34 -11 -4 -8 -27 -10 -65 -6 -33 3 -61 2 -64 -3 -16 -26
167 -20 196 6 10 9 28 14 41 11 19 -4 18 -4 -6 -6 -22 -1 -27 -4 -19 -12 9 -9
20 -9 44 0 17 6 50 11 71 11 25 0 37 4 33 11 -4 6 2 9 17 8 40 -4 58 1 58 14
0 7 28 20 63 30 34 10 71 21 82 26 11 4 45 9 75 10 30 2 61 6 70 10 18 10 229
-4 285 -18 51 -13 230 -14 253 -2 9 6 42 18 72 27 30 9 82 29 115 44 33 14 75
32 93 39 17 8 32 17 32 22 0 5 6 9 14 9 14 0 28 6 117 51 24 12 50 17 75 14
l39 -5 -43 11 c-37 9 -49 7 -84 -10 -22 -11 -46 -17 -53 -15 -7 3 -15 -2 -18
-10 -4 -9 -17 -16 -30 -16 -13 0 -45 -14 -72 -31 -61 -39 -133 -71 -221 -98
-69 -22 -69 -22 -161 -3 -50 10 -90 15 -88 11 3 -4 21 -10 40 -13 19 -4 35
-11 35 -16 0 -14 -17 -12 -26 1 -4 7 -21 9 -43 5 -24 -3 -31 -2 -21 4 12 7 11
10 -5 15 -48 16 -60 25 -25 19 30 -5 25 -1 -28 26 -47 24 -67 29 -75 21 -6 -6
-29 -10 -51 -10 l-41 1 38 8 c59 11 64 23 21 59 -51 41 -91 59 -172 76 -73 16
-103 17 -173 5z"/>
<path d="M6393 3290 c-13 -5 -23 -14 -23 -20 0 -6 -6 -10 -12 -9 -22 4 -129
-34 -117 -42 7 -4 -2 -10 -20 -14 -17 -4 -29 -10 -26 -15 3 -5 -3 -9 -12 -9
-38 0 -79 -8 -100 -19 -12 -7 -29 -12 -39 -12 -10 0 -15 -2 -12 -5 7 -7 186
23 216 35 16 7 21 7 17 0 -4 -6 7 -10 27 -9 30 0 31 1 11 9 -26 10 -29 16 -10
18 60 8 116 20 134 30 26 14 62 16 48 3 -6 -5 -17 -11 -25 -14 -8 -2 -2 -3 15
-1 16 3 32 9 35 14 8 13 67 14 105 2 l30 -10 -30 -2 -30 -2 29 -8 c18 -6 36
-5 48 1 12 7 31 6 56 -1 20 -6 78 -13 129 -17 76 -5 96 -3 117 11 14 9 37 16
51 16 14 0 25 4 25 10 0 5 -7 6 -17 3 -11 -4 -14 -3 -9 6 4 6 -11 2 -34 -10
-32 -17 -59 -22 -118 -22 -80 0 -133 12 -242 57 -70 29 -180 42 -217 26z"/>
<path d="M5219 3223 c-21 -3 -26 -9 -22 -24 6 -21 55 -28 51 -7 -4 18 29 15
112 -11 41 -13 93 -25 114 -27 22 -2 42 -8 45 -13 4 -5 54 -13 114 -17 59 -3
107 -9 107 -13 0 -7 173 -3 238 5 23 3 40 9 37 14 -3 5 -15 6 -28 3 -42 -10
-283 -3 -370 11 -49 8 -112 24 -140 34 -88 34 -206 54 -258 45z"/>
</g>
</svg>
