<?xml version="1.0" standalone="no"?>
<!DOCTYPE svg PUBLIC "-//W3C//DTD SVG 20010904//EN"
 "http://www.w3.org/TR/2001/REC-SVG-20010904/DTD/svg10.dtd">
<svg version="1.0" xmlns="http://www.w3.org/2000/svg"
 width="1024.000000pt" height="1024.000000pt" viewBox="0 0 1024.000000 1024.000000"
 preserveAspectRatio="xMidYMid meet">
<metadata>
Created by potrace 1.16, written by Peter Selinger 2001-2019
</metadata>
<g transform="translate(0.000000,1024.000000) scale(0.100000,-0.100000)"
fill="#000000" stroke="none">
<path d="M130 10230 c8 -5 21 -10 27 -10 7 0 36 -11 65 -25 29 -14 78 -33 108
-44 66 -23 35 -28 -36 -5 -27 8 -61 19 -77 24 -30 10 -29 2 6 -37 17 -19 18
-23 5 -23 -9 0 -21 7 -28 15 -19 23 -48 18 -53 -7 -2 -13 -3 -6 -2 14 4 50
-26 77 -93 85 -48 5 -52 4 -52 -16 0 -11 5 -21 11 -21 7 0 9 -12 4 -36 -5 -31
-4 -36 9 -31 8 3 18 2 21 -3 4 -6 -5 -14 -19 -20 -23 -8 -26 -15 -26 -60 0
-57 12 -64 32 -20 16 38 42 35 46 -5 2 -17 10 -44 18 -62 20 -44 20 -211 -1
-219 -9 -4 -15 -19 -15 -39 0 -38 -11 -49 -41 -40 -15 5 -19 13 -15 29 6 26
-3 66 -15 66 -5 0 -9 -24 -9 -53 0 -41 4 -55 20 -65 26 -16 26 -35 0 -27 -18
6 -20 2 -20 -48 0 -43 4 -56 18 -60 9 -3 42 -15 72 -27 68 -26 82 -30 149 -36
30 -2 84 -11 120 -18 36 -8 102 -20 146 -27 44 -8 70 -15 58 -17 -12 -2 -62 4
-110 13 -48 10 -130 19 -181 20 -51 2 -99 8 -106 14 -7 6 -46 22 -87 34 l-74
24 -3 -25 c-2 -16 3 -29 12 -34 9 -5 14 -14 11 -19 -4 -5 -11 -7 -16 -4 -5 4
-9 -33 -9 -90 0 -73 3 -96 13 -93 6 3 16 19 22 36 13 46 40 39 41 -10 1 -21 7
-44 13 -52 19 -22 15 -201 -4 -229 -8 -12 -15 -36 -15 -54 0 -18 -4 -33 -9
-33 -27 0 -41 15 -41 44 0 17 -5 38 -10 46 -7 11 -10 -3 -10 -46 0 -54 3 -62
21 -67 24 -7 20 -33 -5 -31 -13 2 -16 -8 -16 -50 l0 -52 73 -22 c117 -34 253
-61 315 -62 7 0 10 -5 7 -10 -3 -6 -16 -8 -28 -5 -12 3 -62 10 -112 15 -111
11 -130 15 -180 34 -72 27 -75 25 -75 -53 0 -46 4 -71 13 -74 9 -4 9 -7 -1
-18 -7 -7 -12 -39 -12 -73 0 -58 0 -59 20 -41 11 10 20 27 20 37 0 13 6 18 17
16 10 -2 17 -10 15 -18 -2 -7 4 -42 13 -78 11 -43 15 -87 11 -131 -3 -36 -5
-76 -6 -88 0 -13 -5 -23 -11 -23 -5 0 -7 5 -4 10 3 6 1 10 -4 10 -14 0 -14
-27 -1 -35 5 -3 10 -15 10 -26 0 -14 -7 -19 -30 -19 -28 0 -30 2 -30 39 0 22
-4 43 -10 46 -6 4 -10 -16 -10 -53 0 -51 3 -60 20 -65 11 -3 20 -10 20 -17 0
-7 -8 -9 -20 -5 -18 6 -20 2 -20 -52 l0 -58 93 -32 c50 -17 116 -36 145 -42
65 -13 351 -14 372 -1 14 9 10 11 -57 35 -15 5 -17 25 -3 25 5 0 16 13 25 29
14 29 14 30 -20 49 l-34 21 -24 -25 c-21 -21 -26 -22 -37 -10 -9 12 -8 27 5
73 13 43 16 77 11 133 -6 76 5 124 19 81 3 -12 15 -21 26 -21 25 0 24 -16 -1
-30 -34 -18 -23 -80 14 -80 33 0 39 -12 13 -24 -32 -16 -36 -71 -7 -86 12 -7
31 -10 41 -7 15 4 19 0 20 -21 0 -15 4 -36 9 -47 5 -12 8 111 8 295 0 307 -8
359 -24 153 -7 -94 -14 -110 -34 -73 -9 16 -7 28 4 52 9 17 16 32 16 34 0 2
-14 18 -31 35 -28 29 -30 34 -15 44 21 16 20 27 -4 58 l-20 25 23 6 c12 3 34
6 49 6 15 0 29 4 33 9 9 16 -26 28 -100 36 -110 11 -113 26 -4 19 111 -8 135
4 63 32 l-46 18 26 19 c35 25 34 58 -3 79 -29 16 -31 16 -55 -8 l-25 -25 -11
21 c-9 16 -8 25 1 36 7 9 14 63 17 142 4 96 7 122 15 105 6 -13 18 -23 29 -23
24 0 23 -14 -3 -32 -18 -11 -20 -20 -14 -46 5 -25 12 -32 31 -32 29 0 31 -11
4 -28 -14 -8 -20 -23 -20 -46 0 -27 5 -35 24 -40 14 -3 32 -3 40 0 12 5 16 -1
16 -22 0 -16 5 -36 10 -44 6 -10 10 84 9 275 0 283 -9 342 -24 163 -8 -89 -13
-100 -35 -74 -9 12 -8 23 6 52 l18 37 -34 30 c-32 28 -32 31 -15 43 15 12 17
18 7 39 -16 34 -77 36 -88 3 -5 -17 0 -28 24 -48 28 -24 30 -28 16 -41 -20
-20 -8 -70 17 -76 26 -7 24 -18 -5 -31 -23 -10 -24 -9 -30 48 -4 36 -13 64
-25 74 -14 12 -18 29 -16 69 l2 52 87 2 c48 1 90 4 93 7 3 3 1 12 -6 20 -9 11
-9 15 1 19 7 2 -6 13 -29 23 -48 21 -53 29 -23 37 14 4 20 14 20 35 0 24 -6
32 -30 42 -26 11 -33 10 -49 -4 -36 -33 -39 -21 -34 127 3 78 7 144 10 147 2
2 6 -6 10 -18 3 -13 13 -22 24 -22 29 0 32 -18 5 -35 -19 -13 -23 -21 -17 -43
5 -18 15 -28 32 -30 32 -5 50 -22 22 -22 -26 0 -39 -17 -35 -45 4 -25 29 -45
58 -45 16 0 23 -8 28 -32 14 -71 18 -8 11 182 -4 110 -11 200 -16 200 -5 0 -9
-18 -9 -40 0 -43 -13 -52 -30 -20 -8 15 -7 26 6 45 14 22 15 30 4 50 -7 14
-22 28 -34 31 -20 6 -20 7 3 25 22 18 22 20 7 44 -25 38 -20 45 30 45 38 0 45
3 42 18 -2 12 -15 18 -43 20 -22 2 -44 7 -49 12 -4 4 15 7 43 5 79 -6 77 13
-4 40 -20 7 -19 7 3 22 12 9 22 24 22 34 0 32 16 21 27 -18 l10 -38 2 43 c0
23 2 42 4 42 1 0 20 -9 42 -20 22 -11 45 -20 52 -20 7 0 13 -6 13 -14 0 -8 6
-27 14 -43 8 -15 22 -45 32 -65 10 -21 21 -38 25 -38 8 0 28 46 34 79 7 36 10
36 54 0 38 -30 42 -31 59 -16 10 10 22 17 26 17 8 0 36 -26 36 -33 0 -2 -32
-7 -72 -11 -68 -6 -98 -18 -98 -37 0 -5 9 -9 19 -9 29 0 35 -18 9 -22 -40 -5
-21 -23 37 -34 31 -6 59 -14 63 -18 3 -4 -1 -21 -11 -39 -18 -30 -18 -31 4
-48 29 -21 7 -37 -27 -19 -21 12 -26 10 -49 -14 -15 -16 -27 -27 -29 -25 -1 2
-8 31 -15 64 -16 73 -31 115 -41 115 -4 0 -15 -22 -24 -49 -14 -42 -16 -106
-16 -417 0 -357 1 -367 22 -405 l21 -39 20 32 c11 18 21 44 23 58 2 14 8 50
13 80 5 30 10 102 11 160 l1 105 24 -29 24 -30 -20 -37 c-24 -47 -24 -48 5
-83 l24 -29 37 22 c21 12 40 20 42 17 11 -11 23 -100 14 -105 -5 -3 -11 -15
-13 -26 -3 -17 -6 -16 -21 11 -13 25 -24 33 -52 36 -33 4 -37 1 -51 -30 -13
-32 -13 -37 3 -54 31 -34 53 -41 72 -24 22 20 35 20 51 1 10 -12 8 -15 -12
-19 -30 -6 -75 -15 -117 -24 -42 -9 -51 -29 -17 -38 35 -8 33 -20 -4 -27 -54
-11 -31 -38 45 -52 55 -9 56 -11 37 -44 -16 -28 -15 -31 2 -50 24 -27 14 -38
-19 -21 -22 12 -28 11 -48 -8 -31 -30 -37 -28 -37 12 0 19 -4 37 -9 40 -4 3
-11 23 -15 45 -3 22 -10 42 -16 46 -34 21 -49 -142 -50 -522 0 -281 1 -294 22
-338 12 -25 25 -45 29 -45 7 0 17 25 37 90 6 19 14 68 18 108 7 76 17 89 36
47 12 -26 32 -33 43 -15 3 6 15 10 26 10 10 0 19 6 19 13 1 21 30 -26 30 -48
0 -12 6 -27 12 -33 10 -10 10 -15 1 -20 -7 -4 -16 -19 -22 -32 -9 -25 -9 -25
-25 11 -12 28 -22 38 -45 41 -37 5 -43 2 -59 -36 -12 -27 -11 -32 16 -59 29
-29 30 -29 62 -12 27 14 34 15 41 3 17 -26 7 -33 -41 -30 -24 1 -110 -29 -110
-39 0 -5 15 -15 33 -23 l32 -13 -30 -8 c-59 -14 -62 -16 -35 -30 14 -7 41 -16
60 -20 52 -11 62 -22 44 -50 -14 -22 -10 -55 7 -55 5 0 9 -7 9 -15 0 -12 -5
-11 -29 3 -29 16 -31 16 -54 -6 -32 -30 -37 -28 -37 12 0 19 -5 38 -11 41 -6
4 -8 13 -5 21 6 16 -12 74 -24 74 -15 0 -29 -26 -40 -75 -8 -33 -11 -176 -11
-408 1 -327 3 -362 20 -394 l18 -36 21 21 c13 13 22 35 22 51 0 17 4 32 9 35
5 3 12 44 16 91 4 47 10 85 13 85 4 0 15 -14 24 -30 l17 -30 35 17 c40 19 66
7 66 -31 0 -12 5 -27 12 -34 9 -9 8 -15 -4 -24 -9 -7 -18 -22 -21 -33 -3 -16
-7 -13 -21 18 -15 34 -20 37 -56 37 -37 0 -39 -2 -46 -37 -6 -32 -3 -40 20
-59 25 -22 27 -22 56 -6 22 13 32 14 41 5 24 -24 2 -40 -63 -47 -35 -4 -74
-13 -88 -21 -25 -13 -25 -13 22 -25 53 -14 55 -30 3 -30 -19 0 -36 -4 -40 -9
-6 -11 10 -16 70 -26 64 -10 69 -16 48 -59 -17 -36 -17 -39 0 -51 19 -14 23
-35 5 -35 -6 0 -20 7 -30 17 -17 15 -20 15 -42 -6 -27 -25 -46 -21 -46 10 0
31 -32 149 -40 149 -14 0 -30 -27 -44 -73 -11 -36 -13 -123 -11 -404 3 -467 4
-503 15 -503 6 0 10 13 10 29 0 37 13 46 35 24 16 -15 17 -15 14 3 -2 10 2 33
8 49 6 17 14 39 18 50 4 11 10 56 12 100 2 44 7 82 10 85 5 5 39 -33 45 -51 6
-18 73 25 76 49 5 30 -15 62 -38 62 -29 0 -25 11 14 42 l35 28 4 -83 c2 -45 9
-101 16 -124 9 -35 8 -50 -6 -84 -13 -33 -14 -46 -5 -60 10 -16 9 -19 -11 -23
-104 -20 -151 -33 -155 -44 -2 -7 9 -15 27 -18 37 -8 40 -21 6 -26 -14 -2 -26
-7 -27 -13 -2 -10 8 -14 94 -37 26 -7 44 -15 40 -18 -4 -3 -13 -17 -21 -32
-13 -25 -12 -30 3 -47 19 -21 3 -42 -17 -22 -17 17 -38 13 -63 -10 l-23 -22
-6 29 c-4 16 -10 40 -15 54 -5 14 -12 44 -15 68 -8 47 -23 54 -55 22 -12 -12
-20 -34 -21 -57 -4 -145 4 -779 11 -828 4 -33 8 -50 9 -38 1 28 16 37 31 18
21 -25 28 -17 35 38 4 28 12 58 18 65 5 7 12 80 15 163 5 153 12 174 40 116
11 -22 10 -31 -9 -63 -14 -26 -17 -40 -9 -42 6 -2 16 -15 21 -29 8 -21 12 -23
24 -13 8 7 15 9 15 5 0 -4 12 0 26 10 29 19 44 9 44 -30 0 -11 7 -31 16 -43
14 -20 14 -22 0 -22 -10 0 -16 -9 -16 -25 0 -35 -15 -31 -34 10 -15 30 -22 35
-51 35 -30 0 -37 -5 -50 -37 -8 -20 -14 -37 -13 -38 2 -1 16 -11 32 -23 l29
-22 34 21 c38 24 41 23 45 -11 3 -22 -2 -25 -52 -32 -121 -17 -150 -38 -73
-54 53 -11 50 -13 -55 -31 -37 -7 -55 -6 -60 1 -18 29 -25 -92 -26 -439 -1
-413 4 -554 18 -497 6 22 13 31 22 28 8 -4 20 -8 27 -11 8 -3 14 0 14 7 1 7 8
36 18 63 10 32 18 102 22 198 3 81 9 147 14 147 4 0 14 -9 22 -21 16 -22 12
-51 -10 -85 -13 -21 -9 -54 7 -54 4 0 10 -9 13 -20 5 -20 5 -20 41 1 20 11 36
25 36 30 0 5 4 9 10 9 5 0 12 -17 15 -37 3 -21 10 -46 16 -55 6 -11 6 -25 0
-35 -5 -10 -13 -27 -16 -38 -6 -17 -10 -14 -26 23 -17 38 -21 42 -54 42 -32 0
-38 -4 -51 -37 -15 -35 -15 -36 13 -59 34 -28 37 -28 69 -8 23 16 26 16 44 -4
16 -17 17 -21 4 -26 -9 -3 -28 -6 -42 -6 -39 0 -115 -25 -120 -38 -2 -7 7 -12
20 -12 13 0 29 -4 36 -9 15 -9 -15 -20 -58 -21 -44 -1 3 -26 62 -33 65 -8 73
-16 51 -55 -17 -29 -17 -31 2 -51 14 -16 16 -24 7 -33 -9 -9 -16 -7 -30 5 -24
22 -35 21 -57 -3 -23 -25 -35 -25 -35 0 0 26 -28 132 -37 141 -5 4 -19 9 -33
11 -22 3 -25 -1 -32 -47 -10 -60 -1 -616 11 -733 7 -66 13 -88 32 -108 l23
-25 14 48 c8 26 18 55 22 64 5 9 12 54 16 100 l7 83 24 -30 c23 -31 24 -31 58
-15 19 9 34 22 35 29 0 30 19 8 25 -31 4 -23 11 -49 16 -58 6 -11 4 -21 -6
-29 -7 -6 -15 -21 -17 -33 -3 -19 -7 -16 -23 18 -17 34 -25 40 -57 43 -30 3
-37 -1 -42 -17 -3 -12 -8 -30 -11 -40 -4 -14 3 -26 26 -42 30 -21 33 -21 59
-6 26 16 28 15 44 -2 17 -18 17 -20 -3 -31 -12 -6 -25 -9 -29 -7 -13 8 -127
-19 -122 -29 3 -5 33 -9 67 -8 83 1 74 -21 -13 -31 -35 -3 -66 -10 -69 -14 -5
-10 39 -31 65 -31 23 0 72 -21 67 -29 -31 -58 -31 -63 -14 -76 37 -27 8 -48
-33 -23 -16 10 -23 9 -44 -11 l-25 -24 -6 29 c-14 67 -29 120 -38 138 -13 26
-30 6 -51 -59 -19 -62 -18 -32 -21 -407 -2 -246 0 -325 10 -355 8 -21 19 -37
25 -35 6 1 15 -9 20 -23 10 -26 26 -34 28 -12 1 6 6 32 12 57 7 25 17 81 23
125 5 44 12 82 15 85 2 3 14 -7 26 -22 20 -26 24 -27 53 -16 18 7 35 21 38 32
5 17 10 11 22 -29 8 -27 19 -58 24 -68 7 -13 5 -19 -6 -23 -8 -4 -15 -17 -15
-30 0 -36 -13 -29 -32 16 -15 36 -20 40 -52 40 -29 0 -37 -5 -50 -31 -14 -28
-14 -33 2 -55 24 -33 48 -39 79 -19 25 17 27 17 40 -1 20 -27 16 -34 -18 -34
-47 0 -139 -30 -139 -45 0 -7 14 -16 30 -20 17 -4 28 -10 25 -15 -6 -9 -60
-21 -96 -21 -18 0 -30 -8 -37 -24 -15 -32 -20 -772 -6 -820 9 -31 47 -105 53
-105 8 0 31 74 31 98 0 10 3 21 6 24 3 4 8 39 10 79 6 92 18 117 36 71 7 -17
15 -32 19 -32 18 0 78 31 82 42 3 7 11 -9 18 -36 8 -27 19 -51 26 -53 19 -8
16 -20 -7 -26 -12 -3 -20 -14 -20 -26 0 -34 -16 -24 -33 20 -15 38 -18 40 -54
37 -35 -3 -39 -6 -47 -40 -8 -33 -7 -41 14 -63 27 -29 46 -31 71 -9 21 19 49
12 49 -10 0 -16 -14 -21 -91 -31 -51 -6 -86 -26 -75 -43 3 -6 27 -14 51 -18
60 -9 57 -24 -4 -24 -30 0 -53 -5 -60 -14 -19 -23 6 -31 104 -32 168 -2 195
-4 195 -14 0 -5 -23 -10 -51 -10 -33 0 -48 -4 -44 -11 5 -7 -4 -8 -28 -4 -31
6 -36 4 -56 -29 -23 -36 -21 -56 5 -56 17 0 19 -27 2 -33 -7 -2 -23 5 -35 16
l-23 20 -21 -27 c-24 -31 -39 -26 -39 13 0 15 -3 31 -7 35 -5 4 -12 31 -18 59
-12 60 -27 69 -49 27 -22 -44 -34 -186 -41 -486 -6 -219 -4 -265 8 -295 9 -18
21 -55 27 -81 10 -38 16 -46 27 -39 22 12 64 -10 57 -31 -7 -23 13 -27 156
-37 67 -5 126 -13 131 -18 6 -6 -6 -17 -31 -31 -32 -17 -40 -18 -40 -6 0 22
-82 19 -103 -4 -21 -23 -22 -41 -2 -48 19 -8 19 -24 0 -24 -8 0 -15 5 -15 10
0 19 -42 10 -60 -12 -18 -23 -29 -22 -34 4 -2 7 -6 31 -10 53 -10 53 -28 105
-37 105 -21 0 -49 -89 -49 -154 l0 -36 431 0 c374 0 430 2 420 14 -9 11 -9 20
-2 35 17 31 14 71 -6 71 -10 0 -13 3 -8 9 6 4 53 14 105 20 52 7 103 15 112
17 30 9 20 24 -16 24 -52 0 -52 17 0 25 58 8 70 -2 56 -47 -6 -18 -14 -63 -18
-100 -6 -64 -5 -68 14 -68 13 0 22 8 25 23 l4 22 2 -22 1 -23 1385 0 1385 0 1
33 c1 17 0 44 -1 60 -1 18 3 27 13 27 13 0 14 6 6 35 -6 19 -8 39 -5 44 8 13
-13 26 -59 39 -22 6 -78 24 -125 41 -47 17 -97 31 -112 31 -16 0 -28 5 -28 10
0 6 36 10 88 10 48 0 111 3 140 6 l52 7 0 73 c0 41 3 74 8 74 4 -1 18 -10 31
-21 21 -17 23 -24 14 -38 -8 -12 -8 -22 -2 -28 6 -6 4 -14 -6 -23 -18 -15 -20
-30 -2 -30 6 0 34 -12 61 -26 26 -14 47 -22 45 -17 -2 4 -17 32 -33 62 -23 45
-26 60 -19 85 7 25 14 31 37 31 15 1 31 7 36 15 7 12 15 9 40 -15 25 -24 30
-36 30 -76 0 -50 13 -70 28 -44 17 31 60 51 98 47 30 -4 35 -8 31 -24 -4 -14
0 -22 14 -25 25 -7 24 -26 -5 -59 l-23 -28 24 -19 c14 -11 22 -26 19 -34 -4
-8 3 -26 14 -40 26 -34 25 -45 -7 -83 l-26 -32 44 7 c50 7 65 -2 71 -45 3 -24
7 -25 77 -28 42 -2 79 2 85 8 5 5 19 10 29 10 14 0 18 5 14 20 -3 11 3 30 13
43 18 22 19 22 50 3 l32 -18 -7 30 c-5 24 -2 35 14 51 25 25 34 26 52 5 10
-12 10 -25 2 -55 -11 -43 -9 -47 13 -24 20 19 64 20 64 1 0 -8 10 -26 23 -40
22 -26 22 -26 75 -10 28 8 52 20 52 26 0 14 44 2 103 -28 l49 -24 1211 3
c1053 3 1579 12 1807 31 25 2 54 5 65 5 38 2 -2 22 -86 43 -77 19 -102 20
-314 14 -126 -4 -246 -9 -265 -11 -19 -1 -150 -4 -290 -5 -308 -3 -543 -21
-587 -44 -45 -23 -66 -20 -81 12 -12 25 -11 29 18 54 17 16 39 28 50 28 25 0
25 4 0 38 -11 15 -21 42 -22 59 l-3 33 255 5 c313 6 587 19 596 28 7 6 -259
10 -656 8 -176 -1 -200 2 -200 25 0 8 -4 22 -10 32 -5 9 -14 43 -20 74 -6 31
-20 68 -31 82 -11 14 -19 26 -17 27 2 0 35 2 73 4 39 3 142 9 230 15 88 5 259
14 380 20 346 16 424 21 515 32 203 24 206 26 100 48 -98 21 -297 23 -535 6
-126 -8 -378 -17 -558 -18 l-328 -2 -33 26 c-18 15 -50 31 -72 37 -28 8 -47
23 -67 51 -16 22 -33 40 -38 40 -12 0 -90 52 -139 93 -73 61 -207 161 -253
190 -42 25 -54 41 -93 121 -24 50 -48 98 -53 106 -5 8 -14 33 -21 55 -7 22
-23 53 -36 68 -15 18 -23 39 -22 61 1 20 -9 52 -25 79 -15 25 -27 56 -27 69 0
13 -9 37 -19 54 -10 17 -22 57 -25 88 -3 35 -13 67 -26 83 -14 17 -19 38 -18
69 2 33 -3 49 -22 69 -13 14 -32 25 -42 25 -15 0 -18 -8 -18 -56 0 -31 6 -68
14 -82 8 -15 33 -97 56 -182 24 -85 49 -173 57 -195 15 -41 21 -53 67 -159 14
-32 26 -63 26 -68 0 -5 -17 3 -37 17 -21 14 -41 25 -45 25 -15 0 -167 154
-172 175 -5 18 -12 22 -48 21 -36 -1 -42 2 -40 16 2 10 -2 27 -8 38 -10 18
-21 20 -116 20 -58 0 -114 5 -124 10 -17 9 -19 6 -18 -30 0 -32 -7 -49 -36
-85 -42 -51 -38 -55 19 -20 47 29 75 31 116 9 26 -13 29 -17 17 -31 -10 -13
-10 -17 0 -20 20 -7 14 -29 -13 -47 -30 -20 -91 -20 -125 -1 -46 27 -45 15 3
-30 45 -41 48 -47 45 -87 -2 -36 -6 -43 -23 -41 -11 1 -24 -5 -28 -13 -11 -19
-27 -17 -55 6 -18 15 -24 33 -29 86 l-6 67 -19 -49 c-37 -93 -71 -108 -89 -41
-6 23 -15 55 -20 71 -11 36 -10 36 40 43 56 8 52 23 -7 23 -45 0 -49 2 -59 32
-6 18 -14 49 -17 69 -6 34 -4 37 20 43 39 10 75 -9 108 -55 15 -22 30 -39 31
-37 2 2 -1 24 -7 49 -6 26 -8 58 -4 73 8 33 52 64 69 47 13 -13 27 -14 27 -2
0 12 -50 29 -75 24 -90 -16 -141 -15 -174 4 -39 22 -35 11 -91 248 -22 94 -51
211 -64 260 -55 202 -64 240 -59 248 3 4 0 13 -5 20 -5 7 -17 46 -26 87 -35
153 -152 609 -165 640 -13 32 -13 10 -1 -65 5 -33 16 -116 24 -185 47 -392 60
-472 96 -610 12 -48 27 -117 35 -162 3 -15 9 -38 15 -52 5 -13 16 -60 25 -103
8 -43 21 -100 29 -128 7 -27 16 -75 20 -106 l7 -56 -130 -13 c-119 -12 -129
-15 -121 -31 11 -19 -11 -84 -30 -91 -8 -2 -8 -11 -1 -31 6 -16 11 -45 11 -65
l0 -36 26 52 c28 57 40 67 97 77 33 6 37 5 37 -13 0 -14 8 -22 23 -24 19 -3
22 -8 19 -38 -2 -40 -58 -100 -91 -100 -11 0 -23 -4 -26 -10 -4 -6 8 -10 30
-10 48 0 91 -24 110 -61 13 -24 14 -34 5 -45 -10 -11 -7 -16 14 -24 17 -6 33
-24 42 -46 l15 -37 20 32 c16 27 39 42 39 25 0 -3 11 -55 25 -116 14 -61 25
-122 25 -135 0 -22 -3 -24 -30 -18 -27 6 -30 4 -30 -19 0 -14 -10 -36 -22 -49
-19 -20 -30 -24 -60 -20 -29 4 -39 11 -49 35 -10 25 -9 35 4 64 22 46 22 47
-15 24 -38 -23 -57 -25 -91 -9 -25 11 -30 33 -21 86 5 28 51 44 99 33 l36 -8
-40 37 c-24 22 -41 47 -41 59 0 14 -6 22 -17 22 -10 0 -37 19 -61 43 -39 36
-44 39 -37 17 5 -14 9 -44 9 -68 0 -33 -5 -48 -26 -69 -22 -21 -30 -24 -41
-14 -9 7 -26 9 -41 5 -23 -5 -28 -2 -37 25 -9 24 -16 30 -28 25 -40 -17 -59
-15 -85 9 -24 22 -25 27 -14 52 11 24 10 29 -7 41 -31 23 -42 16 -55 -34 -6
-26 -19 -67 -27 -92 -20 -62 -53 -217 -53 -252 0 -28 1 -29 22 -14 29 20 68
21 68 1 0 -8 9 -15 20 -15 16 0 20 -7 20 -32 l1 -33 18 22 c11 13 28 23 39 23
25 0 52 10 52 19 0 3 -18 6 -40 6 -51 0 -64 13 -50 50 10 25 13 27 51 21 38
-6 39 -5 29 14 -6 11 -8 30 -5 41 5 16 14 19 38 17 31 -3 32 -4 31 -50 l0 -48
26 31 c20 25 31 30 48 25 26 -9 39 -50 23 -70 -10 -11 -8 -16 8 -21 24 -7 27
-27 7 -44 -8 -7 -12 -20 -9 -30 6 -25 -22 -47 -42 -31 -8 7 -21 10 -29 7 -8
-3 -22 0 -32 8 -16 11 -21 9 -37 -11 -10 -13 -28 -24 -39 -24 -14 0 -18 -5
-14 -16 10 -26 -4 -37 -25 -18 -17 15 -19 15 -25 0 -3 -9 -1 -23 6 -32 10 -11
10 -18 2 -26 -7 -7 -12 -20 -12 -30 0 -20 -38 -33 -68 -24 -11 4 -32 19 -47
34 l-28 27 7 -35 c4 -19 9 -42 11 -50 3 -8 -4 -26 -14 -39 -26 -34 -45 -19
-37 29 l6 37 -46 7 c-26 3 -108 6 -182 6 -191 0 -469 49 -607 107 l-60 25
-330 -10 c-181 -6 -481 -12 -665 -12 -184 0 -371 -2 -415 -3 -44 -1 -93 0
-110 3 l-30 5 -5 -90 c-6 -105 -20 -83 -20 33 0 41 -4 72 -10 72 -6 0 -10 -58
-10 -155 l0 -155 103 0 c165 0 457 -8 517 -15 30 -3 90 -10 134 -15 43 -6 82
-7 86 -5 5 3 11 1 14 -3 3 -5 27 -7 54 -4 26 2 65 -1 86 -7 22 -5 44 -7 50 -3
6 4 34 8 61 9 28 1 95 4 150 7 217 12 487 7 545 -9 58 -17 215 -50 314 -66 33
-5 62 -12 65 -15 9 -9 -250 7 -294 18 -22 6 -67 14 -100 19 -33 4 -71 10 -85
14 -40 9 -415 13 -540 5 -63 -3 -191 -13 -285 -20 -149 -12 -196 -12 -385 3
-175 13 -263 15 -470 7 -140 -5 -265 -12 -278 -16 -21 -6 -22 -5 -11 22 13 35
3 754 -11 768 -11 11 -16 -3 -25 -69 -11 -83 -13 -114 -20 -260 -4 -77 -8
-142 -10 -143 -2 -2 -8 6 -15 17 -8 16 -8 32 0 63 10 36 9 44 -8 68 -18 24
-19 29 -6 42 23 23 21 75 -4 98 -12 11 -26 20 -32 20 -15 0 -12 21 6 41 15 17
15 21 -3 51 -10 18 -24 33 -31 32 -7 -1 -23 -2 -36 -3 -16 -1 -28 -10 -36 -31
-15 -36 -5 -52 49 -79 34 -18 34 -19 13 -30 -25 -13 -29 -46 -10 -86 8 -17 17
-24 29 -20 31 10 30 -13 -1 -27 -31 -13 -37 -36 -24 -85 5 -17 14 -23 35 -23
21 0 27 -4 23 -15 -3 -8 -14 -17 -24 -20 -26 -8 -32 -33 -18 -71 10 -27 17
-34 39 -34 41 0 43 -15 3 -29 -35 -13 -35 -14 -29 -54 8 -50 11 -53 53 -62 21
-4 32 -3 32 5 0 6 5 8 10 5 6 -3 10 -18 10 -33 0 -15 6 -34 13 -43 7 -10 11
-36 9 -63 l-4 -47 -37 7 c-77 13 -93 26 -46 38 16 4 25 13 25 26 0 10 4 22 10
25 19 12 10 31 -25 49 l-36 19 -33 -32 -34 -33 -24 25 c-23 22 -23 25 -7 35
27 17 37 95 33 267 -5 232 -9 261 -45 287 -19 15 -27 28 -23 38 14 35 13 80
-3 89 -14 8 -14 9 4 15 11 3 41 7 66 8 26 1 47 6 47 12 0 5 -115 6 -287 2
-238 -6 -286 -5 -275 6 10 10 81 13 325 13 172 0 322 4 335 8 33 12 22 31 -26
41 -54 13 -54 24 1 28 34 2 43 7 45 24 3 18 -4 22 -40 29 -24 4 -56 8 -73 9
-52 5 -55 6 -55 20 0 7 7 19 16 27 15 13 26 6 37 -24 1 -5 18 -5 37 0 27 7 36
16 43 42 9 38 -1 56 -39 65 -21 6 -32 0 -58 -29 -18 -19 -35 -35 -38 -35 -3 0
-9 11 -12 25 -6 22 -11 25 -42 23 -24 -1 -39 -9 -46 -23 -6 -11 -11 -21 -10
-22 1 -2 0 -3 -3 -3 -3 0 -9 0 -14 0 -5 0 -11 9 -14 21 -6 23 24 39 72 39 36
0 59 18 67 55 10 43 17 370 9 422 -7 50 -56 113 -86 113 -27 0 -24 18 3 22 18
2 23 10 25 41 2 24 -1 37 -9 37 -9 0 -8 4 2 14 8 8 38 16 65 19 92 10 135 19
146 33 15 18 -28 28 -87 20 -36 -4 -44 -3 -44 10 0 11 6 13 19 9 11 -3 22 -1
26 5 3 5 23 10 44 10 35 0 61 14 61 32 0 4 -9 8 -20 8 -23 0 -70 20 -70 31 0
4 10 9 23 13 16 4 27 17 34 41 11 35 10 37 -20 56 -44 26 -51 25 -85 -19 l-30
-37 -11 28 c-8 21 -8 44 1 85 6 31 13 107 14 167 4 166 4 166 15 127 8 -27 14
-32 39 -32 37 0 40 -21 5 -40 -28 -15 -34 -35 -21 -72 8 -21 17 -27 48 -30 37
-3 39 -2 33 20 -4 17 -2 23 7 20 7 -3 14 -14 16 -26 3 -17 -6 -25 -38 -39 -40
-18 -41 -19 -38 -62 3 -40 6 -45 32 -52 17 -5 35 -4 42 1 8 8 13 -1 18 -32 12
-87 21 -121 34 -126 10 -3 12 77 10 416 -2 231 -6 424 -10 428 -5 4 -11 4 -15
0 -15 -15 -35 -207 -34 -328 1 -124 -7 -158 -29 -119 -10 20 -9 33 4 83 5 18
2 34 -9 51 -12 20 -14 30 -6 45 19 36 16 76 -9 104 -12 15 -27 25 -32 22 -14
-9 -9 19 8 37 13 15 14 21 0 52 -13 32 -17 35 -51 32 -45 -4 -44 -4 -52 -49
-5 -32 -3 -38 15 -43 11 -3 23 -11 26 -19 3 -8 12 -14 21 -14 22 0 18 -21 -5
-27 -14 -4 -20 -14 -20 -32 1 -37 23 -61 56 -61 l29 0 -30 -25 c-16 -13 -35
-24 -42 -25 -11 0 -25 29 -22 46 8 45 -4 79 -38 110 -27 25 -33 36 -25 46 5 7
9 33 9 58 l-2 45 65 7 c68 7 137 22 147 32 4 3 3 9 -1 13 -7 7 -19 9 -110 11
-68 3 -51 13 30 19 37 3 76 8 85 12 24 8 11 28 -21 34 -37 8 -60 18 -60 28 0
5 6 9 14 9 20 0 46 39 46 67 0 17 -10 27 -37 38 l-38 16 -32 -38 c-17 -20 -33
-35 -35 -33 -22 34 -25 48 -15 66 6 10 13 92 15 181 3 90 8 163 13 163 4 0 9
-10 11 -22 2 -17 11 -24 31 -26 34 -4 35 -17 2 -38 -29 -19 -31 -34 -10 -74
12 -23 21 -28 50 -27 30 1 35 4 35 26 0 18 3 22 11 14 18 -18 7 -66 -16 -68
-54 -4 -65 -14 -62 -58 3 -36 6 -42 32 -49 17 -4 37 -5 46 -3 13 4 17 -5 22
-47 3 -29 11 -71 18 -92 10 -36 12 -38 23 -20 16 27 16 761 -1 795 -6 13 -14
33 -18 44 l-6 20 -12 -20 c-13 -22 -13 -30 -23 -205 -3 -69 -8 -127 -10 -129
-1 -2 -14 10 -28 25 l-24 29 -41 -23 -41 -23 0 38 c0 61 -18 110 -52 138 -23
19 -28 29 -19 34 7 5 14 28 16 52 2 31 8 45 19 47 17 4 17 -7 0 -70 -3 -10 4
-21 18 -29 13 -6 31 -19 41 -27 17 -15 17 -17 -3 -32 -19 -15 -20 -19 -8 -55
13 -39 15 -40 53 -37 22 2 41 5 41 5 1 1 4 18 8 37 5 30 1 40 -25 68 -25 27
-29 35 -18 48 9 11 9 23 0 53 -6 21 -11 41 -11 43 0 3 20 11 44 17 46 11 67
28 44 35 -7 2 -42 8 -78 13 l-65 9 83 8 c45 5 82 12 82 15 0 14 -25 31 -45 31
-27 0 -69 29 -44 30 25 0 57 32 61 60 2 20 -4 28 -37 43 l-39 19 -33 -36 -33
-35 -14 27 c-8 16 -11 34 -6 42 13 25 24 140 22 242 -1 55 2 100 8 103 6 3 10
-5 10 -19 0 -14 6 -27 13 -27 6 -1 18 -2 26 -3 25 -2 23 -24 -3 -42 -29 -18
-31 -29 -13 -67 10 -22 19 -27 50 -27 32 0 37 3 38 23 0 22 0 22 10 -2 11 -29
8 -43 -12 -47 -7 -1 -26 -7 -41 -13 -25 -9 -27 -15 -24 -51 2 -22 6 -43 9 -46
2 -3 23 -6 45 -7 40 -1 40 -1 45 -49 3 -26 12 -66 19 -90 11 -38 13 -40 19
-17 9 31 9 718 1 784 -7 53 -25 64 -30 18 -1 -15 -7 -37 -12 -48 -12 -27 -20
-96 -19 -177 0 -70 -7 -82 -29 -48 -10 17 -10 30 2 69 14 48 14 48 -14 74 -32
31 -48 34 -56 12 -4 -8 -12 -15 -19 -15 -8 0 -17 -9 -20 -21 -7 -20 -8 -19
-26 11 -11 17 -34 37 -51 44 -29 13 -30 14 -10 20 21 7 34 42 29 81 -2 17 4
20 43 21 25 1 33 0 19 -3 -48 -8 -62 -103 -14 -103 7 0 18 -7 25 -15 11 -13
16 -11 41 16 21 22 26 35 19 47 -8 17 -19 46 -20 59 -1 4 20 14 45 23 26 8 47
20 46 25 0 6 -40 14 -88 18 -131 13 -132 21 -3 27 63 3 120 8 126 12 20 13 26
124 25 468 0 234 -4 348 -13 378 -14 49 -25 54 -33 15 -3 -16 -10 -42 -15 -59
-6 -17 -10 -49 -10 -72 0 -23 -3 -42 -6 -42 -4 0 -24 16 -45 35 -38 34 -38 34
-17 49 20 14 20 16 4 50 -15 32 -21 36 -55 36 -31 0 -40 -5 -50 -26 -16 -36
-6 -59 35 -85 l35 -21 -23 -22 c-20 -18 -24 -19 -32 -6 -16 25 -50 49 -71 50
l-20 1 20 11 c11 6 21 12 23 13 2 2 5 19 8 39 3 26 0 38 -11 42 -9 4 3 15 38
34 31 17 56 25 61 19 13 -12 83 -11 107 2 29 15 14 29 -32 29 -54 0 -49 16 9
27 62 11 64 35 3 45 -24 4 -46 10 -48 12 -9 9 8 26 27 26 11 0 23 12 31 33 7
17 14 35 17 39 2 4 -15 16 -37 27 l-40 21 -30 -33 c-17 -17 -31 -35 -31 -39 0
-19 -17 -5 -27 23 -8 19 -9 38 -3 52 17 40 27 151 23 236 -4 88 4 137 16 92 5
-17 17 -28 39 -33 40 -11 40 -19 2 -41 -34 -21 -36 -31 -14 -75 12 -26 20 -31
38 -26 38 9 43 -25 5 -38 -28 -10 -30 -13 -27 -57 2 -37 7 -46 23 -48 74 -10
69 -4 82 -83 14 -83 32 -115 34 -60 4 97 -3 771 -8 810 -8 63 -20 72 -103 79
-29 3 13 21 48 21 22 0 32 5 32 15 0 17 -7 20 -63 30 -41 7 -46 28 -9 33 15 2
28 16 37 39 8 19 15 37 15 38 0 2 -16 13 -36 25 l-36 23 -36 -36 -37 -36 -18
25 c-14 19 -16 28 -7 38 17 22 22 52 29 206 5 100 9 137 15 118 6 -22 14 -28
37 -28 37 0 36 -7 -1 -39 -28 -25 -29 -28 -17 -63 10 -32 17 -38 39 -38 38 0
43 -16 11 -32 -24 -12 -28 -19 -26 -53 3 -48 12 -57 56 -58 32 -1 36 -4 41
-36 10 -68 18 -101 27 -107 13 -8 11 802 -1 847 -8 27 -17 39 -37 44 -30 7
-21 22 17 27 l25 3 0 456 c0 506 3 484 -67 495 -48 8 -32 24 23 24 23 0 39 6
42 15 8 18 -2 24 -55 33 -39 7 -67 32 -35 32 20 0 35 20 39 54 2 24 -3 33 -31
49 l-34 21 -34 -38 c-19 -21 -35 -36 -36 -34 -1 2 -8 13 -14 25 -10 18 -10 28
0 50 8 20 12 95 12 249 0 181 2 216 12 193 8 -19 19 -29 33 -29 28 0 25 -14
-5 -28 -40 -18 -31 -102 11 -102 35 0 37 -14 4 -43 -28 -25 -29 -28 -16 -59
10 -23 22 -34 42 -38 33 -6 45 -30 15 -30 -26 0 -38 -22 -33 -65 4 -36 10 -39
75 -38 9 0 18 -5 18 -11 10 -82 21 -136 28 -136 4 0 6 132 5 293 -2 160 -3
345 -3 410 -1 119 -14 156 -24 70 -3 -27 -11 -82 -17 -123 -7 -44 -10 -115 -6
-172 6 -95 -2 -128 -23 -90 -6 11 -6 32 2 59 9 36 8 45 -6 61 -18 20 -22 47
-9 56 4 2 9 20 10 39 2 28 -3 40 -29 61 -31 26 -31 27 -13 47 17 19 17 21 -1
57 -11 20 -21 40 -23 44 -2 4 14 10 35 14 55 10 80 24 62 35 -8 5 -24 9 -37 9
-35 0 -18 16 24 23 59 10 64 19 64 123 0 87 -1 94 -20 94 -15 0 -20 -7 -20
-29 0 -16 4 -40 9 -53 4 -13 11 -42 15 -66 l6 -42 -42 6 c-74 11 -98 33 -46
41 27 4 25 1 33 45 7 34 5 39 -26 58 l-34 20 -33 -35 c-38 -41 -43 -42 -60
-15 -9 15 -10 26 -1 41 6 11 8 23 6 26 -3 2 -112 1 -244 -4 -131 -5 -241 -5
-244 -1 -3 5 -39 8 -80 6 l-74 -3 23 -23 c18 -18 20 -24 8 -28 -8 -3 -18 -19
-21 -35 l-7 -30 -21 43 c-15 29 -29 44 -45 46 -16 2 -22 8 -18 18 5 12 -36 14
-270 14 -151 0 -273 -4 -270 -8 2 -4 1 -14 -5 -22 -7 -12 -9 -10 -9 8 0 22 -2
22 -127 22 -87 0 -123 -3 -113 -10z m41 -197 c8 -9 28 -22 46 -29 29 -13 31
-16 26 -52 -6 -47 15 -72 41 -47 9 9 16 23 16 31 0 16 2 16 24 8 9 -3 16 -15
16 -26 0 -10 22 -41 49 -68 52 -52 56 -65 52 -177 -1 -38 -4 -43 -25 -43 -14
0 -38 -11 -54 -25 -29 -24 -31 -25 -106 -13 -71 12 -76 14 -76 38 0 14 -7 38
-15 54 -20 37 -20 110 0 126 19 16 19 41 0 66 -9 12 -12 32 -9 55 5 30 1 41
-25 69 -16 18 -28 37 -25 42 9 14 51 9 65 -9z m933 -188 c5 -16 0 -23 -23 -32
-48 -18 -59 -46 -64 -171 -4 -114 -10 -141 -22 -103 -4 14 -15 21 -31 21 -31
0 -31 15 0 35 32 21 37 38 25 74 -8 23 -17 30 -46 33 -26 3 -38 0 -46 -14 -17
-27 -27 -22 -27 13 0 21 4 30 13 26 7 -2 30 -2 52 2 36 6 40 9 50 50 9 38 16
46 45 56 18 6 38 19 44 28 12 18 21 13 30 -18z m384 -95 c4 -27 88 -120 109
-120 9 0 13 -19 13 -69 0 -37 3 -89 6 -115 6 -41 5 -46 -13 -46 -17 0 -83 -58
-116 -102 -10 -14 -35 -17 -167 -19 l-155 -3 -3 25 c-5 33 -39 67 -71 71 l-26
3 0 144 0 143 25 10 c13 5 27 13 30 17 3 4 20 17 38 30 17 12 32 29 32 37 0
11 15 14 60 14 l60 0 -16 -25 c-29 -44 2 -84 50 -65 25 9 41 49 26 64 -24 24
-1 35 70 33 40 -2 45 -5 48 -27z m-1253 -518 c6 -4 10 -25 10 -47 0 -33 3 -40
20 -40 15 0 21 8 23 33 3 28 7 32 33 32 21 0 29 -5 29 -18 0 -25 51 -101 72
-108 16 -5 18 -18 18 -100 0 -87 -2 -94 -20 -94 -10 0 -35 -15 -53 -34 l-34
-34 -79 7 -78 6 -7 32 c-3 18 -12 40 -19 48 -8 10 -12 53 -13 127 -1 108 1
115 28 156 27 40 48 50 70 34z m859 -348 c4 -15 6 -27 4 -28 -2 -1 -15 -7 -30
-14 -50 -21 -63 -55 -65 -172 -2 -136 -3 -140 -12 -115 -4 11 -18 22 -31 25
-33 8 -36 28 -6 41 21 10 26 19 26 49 0 47 -15 60 -68 57 -29 -2 -42 1 -42 10
0 8 14 13 39 13 44 0 60 14 68 63 4 27 11 37 29 41 13 4 24 11 24 16 0 6 9 10
20 10 11 0 20 7 20 15 0 25 17 17 24 -11z m216 -85 c0 -5 -4 -9 -9 -9 -12 0
-22 -45 -15 -65 5 -12 17 -15 43 -13 33 3 36 6 39 37 2 20 -2 37 -9 42 -21 13
11 21 72 17 50 -3 54 -5 59 -31 5 -30 85 -117 107 -117 10 0 13 -27 13 -120 0
-117 -1 -121 -23 -129 -13 -5 -44 -32 -68 -59 l-45 -50 -156 -3 -157 -4 -5 26
c-5 27 -59 69 -88 69 -12 0 -14 25 -12 147 1 137 3 147 22 154 10 4 40 32 66
61 46 54 47 54 106 55 33 1 60 -3 60 -8z m405 -219 c34 0 39 -15 12 -37 -35
-28 -38 -38 -22 -77 12 -28 21 -36 40 -36 32 0 32 -14 0 -28 -21 -10 -25 -17
-21 -39 2 -16 5 -36 5 -45 1 -11 9 -18 20 -18 11 0 23 -5 26 -10 4 -6 15 -8
25 -5 14 5 18 -2 23 -37 3 -24 9 -62 13 -85 6 -41 6 -43 -19 -43 -14 0 -38 5
-54 11 l-28 11 24 13 c26 14 39 36 40 71 1 14 -10 26 -34 37 l-34 16 -30 -36
-30 -36 -20 24 c-18 22 -18 26 -3 54 12 23 17 70 20 195 4 119 8 156 14 133 7
-26 14 -33 33 -33z m-1483 -193 c-3 -27 1 -39 12 -43 25 -9 47 14 40 42 -7 26
2 29 44 18 15 -4 22 -14 22 -30 0 -13 16 -40 39 -64 39 -41 39 -43 43 -130 4
-88 3 -90 -22 -99 -26 -9 -65 -42 -71 -60 -3 -7 -33 -9 -86 -4 -81 6 -83 7
-83 32 0 31 -27 74 -41 66 -5 -4 -9 -1 -9 4 0 6 5 11 10 11 6 0 10 17 10 37 0
20 7 44 16 54 19 21 13 58 -12 83 -18 18 -13 40 19 92 17 25 28 33 47 31 22
-2 25 -6 22 -40z m1593 -429 c-3 -35 -8 -79 -9 -98 -2 -19 -7 -43 -11 -53 -4
-10 -5 -42 -1 -72 7 -59 -2 -74 -28 -46 -16 18 -16 22 -2 50 9 16 16 39 16 49
0 21 -25 53 -54 69 -18 10 -17 11 4 31 21 20 21 21 4 49 -10 15 -19 30 -21 32
-2 3 -19 5 -39 6 -30 1 -38 -4 -50 -27 -10 -20 -12 -34 -5 -47 12 -21 61 -56
76 -53 6 1 0 -5 -12 -14 -26 -18 -28 -36 -12 -83 9 -25 15 -30 30 -26 27 9 24
-12 -3 -26 -13 -7 -26 -17 -30 -23 -5 -6 -8 0 -9 14 -1 14 -2 32 -3 40 -2 8
-3 29 -4 47 -1 21 -12 41 -29 58 -25 22 -28 33 -28 85 0 33 2 60 5 61 3 1 19
3 35 4 66 8 158 24 164 31 17 17 23 -3 16 -58z m-735 -47 c0 -11 6 -22 13 -25
7 -4 8 -8 2 -11 -95 -47 -105 -70 -98 -212 2 -54 0 -93 -6 -97 -5 -4 -12 2
-16 13 -3 11 -16 21 -27 23 -32 5 -33 26 -3 40 23 10 26 16 23 57 l-3 45 -45
2 c-26 1 -48 -3 -52 -9 -5 -7 -8 -3 -8 11 0 19 5 22 38 22 49 0 59 8 67 54 6
31 14 41 41 52 19 8 40 23 46 34 16 25 28 26 28 1z m213 -90 c5 0 1 -11 -7
-23 -31 -44 -9 -86 39 -74 35 9 47 36 30 69 -16 31 -18 30 54 28 63 -2 71 -5
71 -33 0 -21 86 -108 108 -108 9 0 12 -32 12 -125 0 -112 -2 -125 -18 -125
-17 0 -88 -61 -107 -92 -8 -14 -34 -17 -167 -20 l-157 -3 -5 26 c-5 27 -59 69
-87 69 -11 0 -14 29 -14 150 0 143 1 149 21 154 11 3 42 28 67 55 26 27 54 51
64 53 16 4 74 3 96 -1z m526 -828 c-4 -26 -12 -77 -18 -113 -6 -36 -11 -93
-11 -127 0 -67 -9 -79 -28 -38 -10 21 -9 33 3 62 19 45 14 62 -25 88 -35 24
-36 27 -11 49 18 17 18 18 -3 57 -18 34 -19 41 -6 49 8 5 26 10 40 10 14 0 32
4 40 9 23 15 27 5 19 -46z m-735 -65 c20 -39 20 -38 -4 -38 -11 0 -34 -13 -52
-29 l-32 -29 -4 -131 c-3 -72 -8 -128 -13 -125 -5 3 -9 14 -9 25 0 10 -3 19
-7 20 -47 5 -65 17 -43 29 49 28 53 35 44 76 -9 37 -12 39 -52 42 -35 3 -42 0
-42 -14 0 -13 -3 -15 -11 -7 -6 6 -9 19 -7 29 2 14 13 18 46 18 48 1 58 11 67
69 4 20 12 36 18 35 20 -4 77 32 77 47 0 23 7 18 24 -17z m209 -84 c3 -4 0
-13 -8 -21 -35 -35 -7 -91 40 -79 29 7 44 50 26 78 -15 24 0 30 70 26 49 -3
54 -5 57 -28 5 -37 50 -90 88 -106 l34 -14 0 -120 c0 -116 -1 -121 -23 -129
-23 -9 -107 -90 -107 -103 0 -5 -51 -8 -112 -8 -62 -1 -131 -4 -153 -9 -52
-10 -65 -5 -65 24 0 25 -39 62 -76 71 -29 7 -30 14 -26 171 l3 133 35 16 c19
9 51 36 71 60 34 42 38 44 88 44 28 0 54 -3 58 -6z m-213 -893 c0 -11 5 -23
10 -26 6 -4 -9 -20 -34 -36 -53 -36 -58 -51 -57 -186 1 -58 -3 -104 -9 -108
-5 -3 -10 3 -10 14 0 19 -23 39 -45 39 -21 1 -15 22 9 33 26 12 32 32 20 76
-4 15 -16 22 -42 26 -21 2 -43 0 -49 -6 -9 -7 -13 -5 -13 7 0 9 8 17 18 17 74
6 79 9 87 59 6 35 12 42 51 59 25 11 44 27 44 35 0 9 5 16 10 16 6 0 10 -9 10
-19z m206 -110 c-37 -41 -1 -95 48 -73 29 13 36 58 14 81 -11 10 1 11 57 9 66
-3 70 -4 73 -28 4 -31 79 -110 104 -110 16 0 18 -11 18 -119 0 -112 -1 -120
-20 -126 -12 -4 -44 -30 -73 -60 l-52 -53 -151 -4 -151 -5 -11 31 c-11 31 -56
66 -84 66 -20 0 -17 291 3 299 33 14 70 46 90 77 20 33 22 34 86 34 65 0 66 0
49 -19z m419 -211 c32 0 32 -23 0 -38 -28 -13 -30 -24 -14 -71 9 -26 16 -32
33 -27 11 3 27 6 34 6 6 0 12 9 12 20 0 29 20 25 22 -5 0 -14 1 -31 2 -37 1
-7 -7 -12 -16 -10 -9 1 -19 -2 -23 -8 -3 -5 -15 -10 -26 -10 -16 0 -19 -7 -19
-39 0 -22 5 -43 12 -47 21 -13 62 -14 70 -1 9 15 13 2 27 -83 5 -36 13 -75 17
-88 6 -22 5 -23 -32 -17 -81 14 -96 27 -49 45 14 5 25 15 25 22 0 7 3 22 6 34
4 17 -2 26 -30 42 l-36 22 -20 -23 c-10 -12 -25 -30 -33 -41 -13 -17 -14 -17
-30 8 -12 18 -15 32 -9 44 15 28 23 117 23 241 0 108 1 114 15 89 10 -19 23
-28 39 -28z m-767 -562 c45 -7 82 -16 82 -21 0 -5 -11 -6 -24 -3 -18 4 -28 0
-40 -19 -20 -30 -20 -42 0 -62 24 -25 0 -42 -26 -18 -20 18 -21 18 -48 -8 -32
-31 -42 -27 -42 15 0 16 -4 37 -9 46 -4 9 -11 34 -14 56 -6 36 -5 38 16 32 12
-3 59 -11 105 -18z m147 -48 c-15 -17 -15 -21 0 -50 9 -18 15 -33 13 -33 -83
-41 -98 -71 -98 -204 0 -96 -10 -130 -25 -83 -4 13 -15 20 -31 20 -31 0 -31
15 1 36 28 18 34 59 13 86 -14 18 -66 27 -86 15 -8 -6 -12 -1 -12 13 0 14 5
20 13 17 8 -3 29 -2 47 2 30 6 35 12 45 51 8 31 17 46 30 49 11 2 30 10 43 19
18 12 22 21 17 43 -8 36 0 49 25 42 19 -5 20 -7 5 -23z m215 -137 c0 -3 -7
-14 -16 -24 -11 -12 -14 -27 -10 -44 6 -23 11 -26 44 -23 32 3 37 7 40 31 2
16 -2 35 -8 42 -17 20 4 27 71 23 49 -3 53 -5 60 -32 9 -34 64 -94 97 -107 21
-8 22 -13 22 -124 0 -111 -1 -116 -23 -124 -12 -5 -43 -32 -70 -59 l-47 -51
-133 -5 c-72 -3 -141 -6 -152 -8 -14 -2 -21 3 -23 19 -4 29 -47 70 -80 78
l-27 5 0 145 c0 139 1 144 22 149 11 3 43 30 70 60 47 54 49 55 106 55 31 1
57 -2 57 -6z m-212 -884 c7 -12 12 -22 10 -23 -48 -29 -79 -55 -87 -74 -6 -13
-11 -65 -11 -117 0 -51 -3 -100 -6 -109 -8 -20 -24 -11 -24 14 0 14 -9 20 -32
22 l-33 4 32 19 c34 21 41 47 24 89 -10 27 -88 32 -94 8 -3 -10 -5 -5 -6 11
-1 25 2 27 38 27 43 0 56 11 66 57 6 31 29 51 78 69 9 3 17 10 17 15 0 16 15
10 28 -12z m199 -97 c-36 -39 -10 -90 38 -78 32 8 41 31 28 67 l-11 29 69 0
c67 0 69 -1 69 -25 0 -29 79 -115 105 -115 13 0 15 -19 15 -119 0 -117 0 -119
-24 -125 -13 -3 -47 -31 -75 -62 l-51 -56 -72 5 c-39 2 -105 1 -147 -3 -42 -5
-77 -7 -79 -5 -1 1 -5 13 -7 25 -6 32 -33 59 -69 68 l-31 8 2 143 1 144 31 14
c17 9 45 35 63 59 33 43 33 43 97 44 61 0 63 -1 48 -18z m-216 -909 c-14 -6
-37 -23 -51 -38 -25 -26 -25 -30 -28 -216 -2 -106 -8 -189 -13 -189 -5 0 -9 7
-9 15 0 8 -6 15 -12 15 -7 0 -20 5 -28 10 -12 8 -9 14 19 38 33 27 34 29 22
65 -10 29 -18 37 -37 37 -33 0 -30 22 6 44 28 16 30 21 24 54 -4 20 -8 40 -10
44 -6 9 -77 6 -91 -5 -10 -7 -13 -4 -13 12 0 17 6 21 36 21 52 0 70 14 78 60
5 30 11 40 25 40 10 0 31 12 47 28 l29 27 16 -25 c16 -24 15 -25 -10 -37z
m215 -62 c-37 -41 -1 -95 48 -73 28 13 36 58 14 80 -9 9 4 12 60 12 64 0 72
-2 72 -19 0 -10 10 -30 21 -45 16 -21 28 -26 52 -24 17 2 32 -2 34 -9 3 -7 -2
-13 -11 -13 -23 0 -20 -17 4 -25 19 -6 20 -15 20 -125 l0 -118 -29 -10 c-15
-5 -48 -33 -72 -61 l-44 -51 -125 -1 c-69 0 -134 -4 -145 -8 -24 -10 -45 4
-45 29 0 22 -55 70 -80 70 -24 0 -26 15 -22 173 3 117 5 127 22 127 10 0 40
25 67 55 l48 55 64 0 c63 0 64 0 47 -19z m-379 -784 c33 -3 65 -1 70 4 12 12
71 -8 97 -33 11 -10 14 -18 8 -18 -16 0 -15 -29 3 -63 13 -26 13 -28 -8 -37
-65 -27 -78 -60 -86 -204 -5 -86 -9 -113 -15 -93 -5 17 -15 27 -26 27 -32 0
-35 22 -5 46 25 20 27 25 18 60 -8 35 -13 39 -46 45 -29 4 -40 2 -47 -10 -7
-13 -9 -11 -10 11 0 25 3 27 35 24 42 -3 61 14 70 67 4 20 13 37 20 37 6 0 27
7 44 16 26 13 32 21 27 38 -3 11 -6 28 -6 36 0 11 -11 15 -39 15 -31 0 -44 -6
-62 -29 l-22 -28 24 -19 c22 -16 22 -18 6 -25 -12 -4 -25 -1 -35 10 -15 15
-19 14 -48 -15 l-32 -31 -16 89 c-20 108 -20 106 2 95 9 -5 45 -12 79 -15z
m379 -206 c-25 -27 -18 -75 11 -79 35 -5 63 15 63 46 0 16 -5 33 -12 40 -9 9
3 12 54 12 46 0 69 -4 78 -15 8 -9 21 -13 32 -9 14 4 30 -4 54 -27 42 -41 43
-49 2 -49 -30 0 -31 0 -13 -20 10 -11 24 -20 32 -20 10 0 13 -24 13 -104 0
-57 3 -111 6 -120 4 -10 -1 -19 -13 -23 -32 -13 -112 -77 -118 -95 -7 -19 -48
-25 -222 -31 -113 -5 -113 -5 -113 19 0 29 -47 74 -77 74 -23 0 -23 1 -22 150
l0 150 35 16 c19 9 52 36 72 60 36 42 39 43 96 44 58 0 59 0 42 -19z m-203
-920 c16 -32 13 -41 -12 -41 -26 -1 -61 -37 -72 -72 -5 -18 -9 -79 -9 -135 0
-97 -11 -139 -24 -89 -4 16 -15 25 -36 29 -38 8 -38 17 0 42 32 21 36 38 21
78 -12 31 -69 44 -88 19 -11 -14 -13 -12 -13 11 0 23 4 27 30 28 52 2 55 4 58
22 3 15 0 18 -17 12 -29 -9 -45 3 -30 21 14 17 49 18 50 2 0 -7 5 -1 11 15 7
19 17 27 33 27 12 0 35 13 51 29 16 16 30 29 31 30 1 0 8 -12 16 -28z m203
-100 c-10 -11 -16 -31 -14 -48 2 -22 9 -29 31 -31 16 -2 35 2 43 9 17 14 19
60 2 77 -9 9 3 12 55 12 64 0 67 -1 73 -27 8 -35 82 -113 106 -113 16 0 18
-12 18 -125 0 -93 -3 -125 -12 -125 -8 0 -14 -18 -16 -48 -3 -49 -26 -80 -46
-63 -14 11 -311 -6 -345 -20 -29 -12 -51 4 -51 35 0 28 -37 63 -70 68 -21 2
-25 8 -24 36 0 17 1 84 2 147 2 111 3 116 25 124 13 5 44 32 68 60 l44 50 64
1 c62 0 64 0 47 -19z m3843 -255 c7 -8 8 -27 4 -47 l-6 -33 28 22 c36 29 59
28 73 -2 9 -20 7 -27 -7 -40 -10 -9 -25 -16 -34 -16 -24 0 -30 -18 -7 -25 33
-10 45 -43 24 -66 -23 -25 -39 -24 -62 5 l-19 25 -16 -35 c-18 -37 -37 -43
-61 -18 -22 22 -20 41 7 68 l24 24 -37 -5 c-41 -6 -63 13 -58 49 2 17 11 24
32 26 16 2 33 -1 39 -7 20 -20 28 -11 13 17 -18 36 -5 72 27 72 14 0 30 -6 36
-14z m-4221 -206 c5 0 24 7 42 16 36 18 50 9 50 -31 0 -12 5 -26 12 -33 11
-11 9 -20 -23 -83 -4 -9 -5 -26 -2 -38 5 -18 1 -21 -25 -21 -17 0 -58 -7 -92
-16 -34 -8 -64 -13 -67 -11 -2 3 0 14 6 25 6 12 11 32 11 46 0 14 4 27 9 31 6
3 10 13 10 23 0 9 3 46 7 81 l7 64 23 -26 c13 -15 27 -27 32 -27z m4689 -86
c3 -8 1 -27 -6 -40 -10 -22 -9 -25 6 -23 55 5 73 -16 45 -51 -15 -18 -21 -20
-45 -11 -31 12 -34 6 -10 -21 22 -24 7 -53 -27 -53 -17 0 -26 8 -35 34 -10 29
-12 31 -24 17 -16 -20 -45 -21 -60 -2 -16 19 -3 45 26 52 l25 7 -28 22 c-18
15 -25 27 -21 39 10 25 35 31 56 12 23 -21 31 -20 31 2 0 10 3 22 7 25 12 13
54 7 60 -9z m1421 -106 c7 -7 12 -25 12 -40 0 -27 1 -28 23 -14 30 19 67 5 67
-27 0 -30 -18 -47 -48 -47 l-25 0 27 -25 c30 -28 32 -41 9 -67 -21 -23 -32
-23 -61 5 -18 15 -26 18 -29 9 -11 -31 -33 -41 -63 -30 -36 12 -39 39 -8 68
l22 20 -27 0 c-35 0 -34 10 3 50 17 18 30 38 30 46 0 48 41 79 68 52z"/>
<path d="M9201 10053 c4 -238 17 -349 42 -340 17 5 34 66 47 168 16 128 17
130 44 96 22 -27 23 -27 58 -13 39 17 48 13 48 -19 0 -13 7 -28 16 -36 14 -11
14 -14 1 -24 -8 -6 -16 -19 -18 -30 -4 -16 -8 -13 -26 18 -18 29 -27 36 -45
33 -13 -3 -29 -5 -35 -5 -7 -1 -13 -10 -13 -20 0 -11 -5 -23 -11 -26 -7 -5 -4
-13 7 -26 23 -25 49 -32 74 -19 16 8 25 7 41 -4 21 -14 21 -14 2 -25 -11 -5
-28 -10 -39 -10 -66 -2 -132 -29 -106 -45 5 -3 51 -9 103 -13 l94 -8 -93 -6
c-50 -3 -95 -9 -99 -13 -11 -10 16 -25 58 -32 59 -10 67 -18 47 -52 -16 -26
-16 -31 -3 -42 19 -16 19 -30 0 -30 -8 0 -15 5 -15 10 0 17 -26 11 -45 -10
-10 -11 -21 -20 -25 -20 -4 0 -13 26 -20 58 -16 74 -38 118 -52 104 -6 -6 -14
-30 -19 -54 -11 -60 -11 -566 1 -658 12 -86 27 -140 41 -140 6 0 8 4 4 9 -3 5
-1 12 4 16 16 9 32 75 37 150 6 91 10 101 29 85 8 -7 15 -19 15 -26 0 -17 8
-17 49 -3 30 11 32 14 29 53 -2 34 -7 42 -25 44 -31 5 -29 18 6 35 l28 14 5
-87 c3 -47 11 -97 18 -110 9 -18 10 -25 1 -28 -6 -2 -11 -12 -11 -23 0 -29
-17 -23 -29 11 -9 26 -15 30 -49 30 -38 0 -40 -2 -46 -35 -6 -30 -3 -39 16
-55 27 -23 33 -24 59 -10 13 8 25 7 39 0 31 -17 17 -26 -50 -33 -119 -13 -129
-46 -15 -48 70 -1 61 -7 -24 -17 -34 -4 -62 -11 -62 -17 0 -5 21 -15 47 -22
62 -16 71 -26 54 -58 -12 -22 -11 -27 6 -39 18 -14 18 -15 1 -21 -9 -4 -24 -2
-32 5 -13 11 -20 9 -40 -10 -28 -26 -26 -28 -46 68 -7 34 -18 61 -23 59 -6 -2
-16 -26 -24 -53 -18 -66 -30 -550 -13 -567 6 -6 11 -34 12 -61 1 -89 39 -174
47 -106 2 14 6 32 10 40 3 8 7 31 8 50 3 52 16 120 23 120 3 0 12 -9 19 -20
14 -24 28 -25 64 -6 19 10 30 11 34 4 13 -21 23 -83 15 -93 -5 -5 -11 -19 -13
-30 -4 -16 -8 -13 -22 18 -15 34 -20 37 -56 37 -31 0 -40 -4 -40 -17 0 -10 -3
-27 -5 -38 -8 -29 46 -59 79 -43 19 8 29 7 47 -5 26 -19 20 -22 -52 -31 -25
-3 -58 -10 -74 -16 -23 -9 -26 -13 -15 -20 8 -6 25 -10 38 -10 12 0 22 -4 22
-10 0 -5 -13 -10 -29 -10 -17 0 -32 -4 -36 -9 -7 -12 26 -31 52 -31 11 0 28
-6 38 -14 18 -13 18 -15 2 -40 -17 -25 -16 -26 3 -38 23 -15 27 -38 5 -38 -8
0 -15 4 -15 9 0 21 -34 21 -56 0 -27 -25 -27 -25 -44 64 -13 66 -26 69 -49 11
-21 -53 -23 -687 -2 -746 7 -21 16 -38 20 -38 11 0 31 46 31 70 0 10 5 22 10
25 6 4 10 23 9 43 -2 41 10 122 18 122 3 0 14 -9 24 -21 15 -18 22 -19 55 -10
43 12 46 11 50 -24 1 -14 8 -32 14 -40 9 -11 9 -15 1 -15 -6 0 -15 -10 -20
-22 -8 -22 -8 -21 -22 7 -12 25 -21 30 -55 33 -40 3 -42 2 -47 -30 -4 -26 0
-38 19 -57 21 -22 26 -23 47 -12 19 10 29 10 46 2 27 -15 18 -31 -17 -31 -41
0 -123 -24 -123 -35 1 -6 45 -12 98 -15 113 -6 114 -18 2 -17 -41 0 -84 -5
-94 -11 -19 -10 -18 -11 5 -21 14 -5 42 -12 63 -16 41 -7 45 -19 21 -54 -16
-22 -16 -24 0 -33 17 -10 22 -38 7 -38 -5 0 -17 7 -26 16 -15 15 -18 15 -39
-5 -28 -26 -36 -26 -36 -1 0 10 -4 29 -9 42 -5 13 -12 35 -15 51 -9 40 -29 33
-44 -15 -19 -59 -27 -507 -13 -630 12 -99 27 -158 41 -158 14 0 30 62 42 163
7 53 15 97 20 97 4 0 15 -11 23 -24 16 -23 18 -24 50 -10 48 20 55 18 55 -15
0 -16 7 -37 16 -45 14 -15 14 -17 0 -22 -9 -3 -16 -15 -16 -25 0 -30 -18 -22
-25 11 -5 24 -13 31 -41 36 -40 7 -50 1 -58 -41 -5 -24 -1 -33 20 -49 21 -15
30 -16 51 -7 19 9 29 8 44 -2 24 -17 15 -27 -24 -27 -33 0 -107 -19 -121 -31
-5 -5 -3 -10 5 -13 52 -16 55 -19 24 -25 -43 -9 -33 -24 25 -37 61 -14 68 -19
52 -44 -17 -27 -15 -47 5 -59 27 -15 6 -26 -23 -12 -22 10 -30 9 -44 -4 -9 -8
-21 -15 -26 -15 -6 0 -16 36 -23 80 -15 88 -24 94 -56 39 -19 -32 -20 -53 -21
-319 -1 -157 -4 -306 -7 -331 -8 -67 12 -202 31 -213 13 -7 12 -11 -5 -25 -43
-35 -52 -114 -53 -455 -1 -433 16 -516 74 -366 10 25 20 63 22 85 10 104 17
145 24 145 5 0 17 -11 27 -25 18 -25 19 -25 51 -10 36 19 52 13 52 -18 0 -12
4 -28 9 -36 5 -8 2 -25 -7 -44 l-16 -32 -12 30 c-9 23 -20 31 -49 36 -29 5
-38 3 -42 -10 -2 -9 -9 -24 -14 -33 -13 -24 -13 -24 21 -48 24 -17 33 -19 51
-9 16 8 27 8 45 -1 29 -16 22 -30 -14 -30 -42 0 -125 -25 -130 -38 -2 -7 13
-14 37 -18 52 -8 53 -24 2 -24 -37 0 -68 -19 -54 -33 3 -4 28 -10 55 -13 54
-7 69 -24 49 -56 -10 -16 -9 -23 5 -39 23 -25 11 -36 -21 -19 -23 12 -27 11
-46 -8 -29 -32 -36 -28 -43 27 -10 76 -26 114 -41 101 -33 -27 -40 -110 -40
-465 0 -365 3 -395 43 -395 13 0 21 18 35 78 9 42 20 103 24 134 3 32 8 58 10
58 3 0 14 -11 24 -24 19 -24 21 -24 56 -10 39 17 53 9 53 -32 0 -11 5 -25 12
-32 9 -9 9 -12 0 -12 -6 0 -15 -15 -20 -32 l-9 -33 -13 42 c-12 40 -15 43 -49
43 -31 -1 -38 -5 -52 -35 -16 -33 -15 -35 8 -57 21 -19 27 -21 54 -11 24 9 35
9 50 0 10 -6 19 -15 19 -19 0 -9 -38 -21 -48 -14 -13 8 -105 -18 -109 -31 -2
-6 12 -11 38 -11 50 -1 66 -12 18 -13 -19 0 -43 -4 -54 -8 -19 -8 -19 -9 5
-19 14 -6 41 -13 60 -17 57 -9 66 -19 47 -48 -14 -22 -14 -25 1 -40 11 -12 13
-20 6 -27 -8 -8 -15 -6 -24 5 -17 20 -29 19 -57 -6 -24 -23 -26 -22 -36 31
-25 124 -41 139 -64 59 -24 -81 -21 -603 3 -717 19 -88 41 -95 60 -19 7 27 14
51 17 53 3 3 21 -6 42 -20 35 -24 38 -24 61 -9 19 12 27 13 39 3 21 -18 11
-27 -37 -33 -56 -6 -101 -24 -93 -37 4 -6 68 -10 158 -10 88 0 146 -4 138 -9
-7 -5 -77 -9 -156 -9 -79 0 -149 -4 -157 -8 -7 -5 -22 -9 -33 -9 -38 0 -47
-73 -40 -350 4 -137 10 -263 15 -280 5 -16 11 -52 13 -80 7 -69 17 -105 30
-105 6 0 8 3 4 6 -3 4 0 19 9 35 8 16 12 29 9 29 -3 0 -1 9 5 20 l11 21 26
-21 c27 -21 54 -25 81 -12 12 6 22 3 34 -9 16 -17 13 -18 -55 -29 -40 -6 -80
-14 -89 -16 -30 -9 -20 -22 22 -29 43 -7 46 -22 5 -22 -14 0 -28 -3 -31 -6
-13 -13 9 -27 41 -27 63 0 79 -18 53 -60 -11 -16 -9 -22 7 -34 27 -19 11 -33
-19 -17 -21 12 -27 10 -47 -10 l-24 -24 -7 35 c-17 88 -31 131 -38 123 -4 -4
-15 -33 -24 -65 -22 -76 -22 -493 -1 -653 8 -60 15 -112 15 -113 0 -2 66 -1
148 2 81 3 305 6 497 8 l350 3 2 389 c1 263 -2 397 -9 410 -11 20 -11 20 -20
-3 -11 -32 -30 -163 -32 -228 -1 -62 -7 -70 -31 -43 -13 14 -15 23 -8 32 6 7
13 27 17 43 5 24 1 33 -20 48 -14 10 -32 16 -40 13 -20 -8 -17 4 7 30 17 18
19 28 12 51 -8 24 -16 28 -50 31 -35 3 -41 0 -47 -20 -11 -42 -6 -58 18 -68
33 -12 41 -29 23 -47 -13 -13 -13 -19 1 -54 13 -34 18 -38 40 -32 32 8 21 -14
-14 -27 -17 -7 -24 -17 -24 -35 0 -36 19 -68 35 -61 22 8 30 -16 10 -30 -10
-7 -22 -15 -28 -17 -6 -2 -5 -17 4 -40 11 -31 18 -37 41 -37 35 0 36 -15 2
-32 -15 -7 -26 -16 -25 -20 0 -5 1 -21 1 -38 0 -25 4 -30 24 -30 14 0 28 -5
31 -10 5 -8 11 -7 21 1 11 9 14 7 14 -15 0 -31 -5 -32 -45 -7 l-30 19 -33 -31
c-30 -29 -33 -30 -49 -15 -14 15 -14 20 -2 50 10 24 14 80 14 203 0 215 -6
254 -45 280 -17 11 -26 24 -21 30 14 18 20 72 9 83 -11 11 11 17 108 27 33 4
66 10 73 15 21 12 3 30 -30 30 -45 0 -26 17 26 22 80 9 75 -15 75 403 0 460
15 420 -165 430 -69 4 -125 9 -123 10 2 2 63 6 137 9 74 3 137 9 140 12 3 3 7
178 9 388 3 363 -2 436 -26 436 -21 0 -52 -169 -52 -284 l0 -50 -22 21 c-19
19 -20 26 -10 48 20 43 15 73 -15 92 -16 9 -30 18 -32 20 -2 2 4 12 15 24 17
18 17 23 4 47 -22 38 -71 42 -94 7 -18 -27 -14 -65 7 -65 7 0 21 -8 32 -16 19
-14 19 -16 3 -28 -22 -16 -22 -29 -3 -66 11 -21 20 -27 35 -23 11 3 20 0 20
-6 0 -6 -5 -11 -12 -11 -6 0 -20 -7 -30 -16 -21 -20 -23 -15 -33 59 -5 36 -14
55 -35 74 -16 14 -27 30 -24 35 11 18 14 78 4 78 -6 0 -9 4 -6 9 3 4 38 11 78
14 40 3 90 11 110 17 35 10 37 13 34 43 -2 25 -8 33 -27 35 -57 7 -107 42 -60
42 23 0 37 16 46 52 6 24 3 29 -30 45 l-37 18 -30 -34 c-28 -31 -30 -32 -43
-14 -18 22 -18 36 -3 51 7 7 13 69 16 172 4 143 12 187 24 125 2 -13 11 -20
27 -20 33 -1 38 -21 9 -36 -33 -17 -37 -27 -24 -63 14 -41 13 -39 38 -41 28
-2 37 -25 10 -25 -23 0 -31 -15 -27 -54 5 -38 18 -50 59 -50 33 0 34 -1 40
-51 3 -27 12 -70 20 -95 l13 -45 17 32 c13 27 16 68 16 261 0 134 -4 232 -10
238 -5 5 -11 81 -12 168 l-3 158 -35 18 c-19 10 -46 23 -60 28 -23 9 -20 11
26 17 28 4 56 10 62 14 19 12 25 109 29 456 3 251 1 360 -8 386 -12 38 -41 59
-83 59 -13 0 -38 3 -56 6 -51 11 -14 24 68 24 50 0 72 4 73 13 1 6 2 196 3
420 1 361 -2 432 -20 415 -12 -13 -38 -210 -35 -275 1 -29 -3 -43 -12 -43 -16
0 -42 41 -29 49 5 3 12 21 15 39 6 28 2 37 -21 57 -15 14 -34 22 -42 19 -8 -3
-3 7 11 22 23 23 25 29 16 55 -9 22 -18 29 -39 31 -15 0 -33 1 -40 2 -7 1 -17
-14 -22 -33 -9 -31 -7 -36 24 -61 29 -24 32 -30 21 -44 -8 -10 -11 -26 -6 -43
9 -39 22 -52 45 -46 32 8 23 -14 -10 -26 -22 -7 -30 -16 -30 -33 0 -47 12 -68
36 -68 31 0 30 -14 -3 -38 -26 -19 -26 -20 -10 -54 14 -29 21 -34 42 -30 33 6
32 -12 -3 -37 -26 -18 -28 -24 -23 -58 5 -32 10 -37 28 -35 12 2 24 -2 27 -7
4 -6 13 -8 21 -4 11 4 15 -2 15 -24 0 -16 4 -33 9 -38 5 -6 11 -28 13 -50 3
-38 2 -39 -29 -39 -59 2 -85 26 -43 39 11 3 20 15 20 25 0 10 5 22 10 25 18
11 11 21 -27 39 l-37 18 -27 -30 c-27 -30 -28 -30 -45 -11 -15 17 -16 22 -3
47 9 19 14 78 15 207 3 212 -4 261 -40 290 -23 18 -24 24 -16 60 6 25 5 44 -1
51 -14 17 -4 21 89 34 46 6 90 14 98 17 29 11 13 23 -31 23 -61 0 -57 16 5 22
29 3 59 13 70 23 20 18 21 28 18 411 -2 216 -6 396 -10 400 -5 4 -11 5 -14 1
-9 -8 -24 -80 -29 -137 -3 -25 -7 -54 -9 -65 -2 -11 -5 -39 -5 -62 -1 -46 -14
-55 -31 -22 -7 13 -8 25 -2 32 5 7 13 26 16 43 6 27 3 35 -23 57 -35 29 -37
35 -15 51 14 10 14 14 0 41 -13 24 -23 30 -50 31 -29 1 -36 -4 -50 -32 l-16
-34 40 -26 c38 -26 40 -28 24 -45 -26 -29 -8 -82 31 -89 l30 -5 -37 -22 -36
-21 -6 21 c-3 12 -6 40 -6 62 0 32 -6 45 -30 65 -28 24 -29 27 -19 69 7 32 7
46 -2 51 -16 11 1 19 52 24 121 13 191 39 135 50 -82 18 -83 19 -22 28 75 10
92 24 40 33 -54 9 -86 23 -79 35 4 6 10 8 14 6 11 -7 25 7 40 39 11 27 11 31
-9 47 -31 25 -59 22 -88 -9 -24 -26 -25 -26 -39 -7 -8 10 -11 28 -8 39 18 56
24 111 25 215 2 104 3 112 15 85 7 -17 21 -30 31 -30 28 0 27 -20 -2 -33 -22
-11 -25 -16 -19 -45 10 -45 12 -47 46 -47 36 0 38 -17 3 -30 -22 -9 -25 -15
-22 -52 3 -37 7 -43 32 -49 18 -5 35 -4 42 2 9 7 13 0 17 -28 7 -56 24 -114
36 -126 7 -7 10 110 9 391 0 360 -5 429 -24 410 -8 -9 -26 -114 -25 -150 0
-20 -4 -40 -9 -43 -6 -3 -10 -33 -10 -65 0 -47 -3 -58 -14 -54 -19 7 -29 34
-17 48 5 6 12 25 15 42 6 27 3 35 -23 57 -35 29 -37 35 -15 52 15 11 15 14 0
43 -14 28 -22 32 -55 32 -35 0 -39 -3 -45 -31 -3 -17 -10 -28 -15 -24 -6 3 -7
13 -4 21 3 9 0 20 -7 24 -21 13 17 26 94 34 70 7 106 19 106 36 0 6 -16 10
-35 10 -38 0 -50 20 -12 21 12 0 38 6 57 13 l35 13 -47 8 c-26 4 -55 13 -64
20 -16 11 -15 13 9 19 17 4 27 13 27 24 0 10 5 23 12 30 15 15 -3 37 -43 51
-26 9 -31 7 -51 -19 -26 -36 -31 -37 -48 -5 -11 20 -11 27 0 41 10 11 15 60
18 162 4 134 6 143 19 118 9 -17 20 -25 28 -22 27 10 27 -16 1 -38 -25 -20
-25 -23 -14 -59 10 -33 15 -37 34 -33 31 8 40 -10 12 -25 -32 -17 -36 -26 -29
-62 5 -23 14 -33 35 -38 15 -4 34 -5 42 -2 9 3 14 -2 14 -17 0 -31 29 -128 41
-135 5 -4 9 149 9 394 0 251 -4 401 -10 401 -26 0 -51 -123 -50 -243 1 -60 -7
-73 -30 -52 -16 14 -16 19 -2 62 l16 47 -37 31 c-37 32 -37 32 -15 47 20 13
20 16 7 46 -12 29 -18 32 -55 32 -38 0 -42 -2 -48 -31 -9 -46 -9 -47 24 -64
28 -15 42 -45 20 -45 -14 0 -13 -33 2 -65 8 -18 18 -25 30 -22 32 9 29 -11 -3
-27 -18 -9 -33 -16 -34 -16 -2 0 -6 26 -10 57 -5 44 -13 63 -37 87 -25 25 -28
33 -19 48 15 24 14 65 -1 71 -24 8 0 18 68 28 87 12 105 16 127 24 28 11 20
25 -15 26 -32 0 -84 16 -63 19 6 1 30 3 55 6 63 6 81 14 55 24 -11 5 -32 9
-46 9 -39 1 -55 25 -26 38 12 6 27 25 34 42 11 30 10 32 -25 50 l-37 19 -32
-30 c-31 -30 -31 -30 -43 -9 -6 12 -8 32 -4 44 4 12 9 33 11 47 7 46 7 335 0
368 -8 40 5 42 20 3 9 -25 15 -29 44 -26 50 3 79 63 42 84 -10 6 -27 17 -37
26 -18 14 -18 16 -3 33 14 15 15 24 6 50 -9 28 -16 32 -45 32 -30 0 -37 -5
-49 -32 -14 -32 -13 -34 13 -55 15 -13 33 -23 40 -23 18 0 15 -13 -7 -32 -19
-16 -22 -15 -57 18 -21 19 -32 34 -25 34 9 0 12 14 9 50 -3 57 -13 51 107 68
39 6 78 13 89 18 17 6 18 4 13 -27 -3 -19 -11 -92 -18 -164 -7 -71 -14 -132
-16 -135 -3 -3 -13 6 -23 19 -16 23 -20 23 -49 11 -28 -11 -31 -17 -31 -56 0
-42 1 -44 30 -44 38 0 41 -26 5 -40 -14 -5 -25 -16 -25 -24 0 -32 20 -65 41
-68 32 -4 34 -23 3 -36 -22 -11 -25 -16 -19 -45 9 -42 17 -49 56 -52 33 -2 34
-4 46 -66 28 -134 33 -86 32 306 0 450 -1 454 -79 447 -27 -3 -171 20 -165 26
3 3 55 7 115 7 61 1 113 5 118 9 4 4 8 120 10 257 l3 249 -37 0 -37 0 6 -39
c6 -48 -4 -69 -23 -46 -11 13 -11 21 -2 36 27 42 17 49 -68 49 l-79 0 -3 -97
c-3 -87 -5 -98 -23 -103 -35 -9 -72 -39 -91 -75 l-18 -35 -121 0 c-66 -1 -131
-2 -145 -3 -17 -1 -25 4 -28 18 -6 30 -32 54 -66 63 l-31 8 4 112 3 112 -26 0
c-24 0 -26 -3 -26 -47 0 -25 -3 -43 -7 -39 -8 7 -9 11 -12 37 0 6 -7 9 -14 6
-8 -3 -20 -1 -28 4 -11 7 -10 11 6 23 19 15 18 15 -17 16 -31 0 -35 -3 -31
-20 7 -25 -4 -70 -17 -70 -6 0 -10 20 -10 45 l0 45 -51 0 -51 0 3 -187z m895
127 c31 0 31 -13 -1 -39 -23 -17 -25 -24 -17 -53 6 -26 14 -34 35 -36 27 -3
39 -32 13 -32 -22 0 -34 -23 -29 -56 4 -23 12 -33 36 -42 24 -9 33 -9 38 0 6
9 9 9 13 -2 10 -33 28 -151 23 -156 -8 -9 -97 7 -97 17 0 5 11 15 25 21 14 6
25 16 25 22 0 6 3 21 6 33 5 17 -1 25 -26 38 -33 17 -52 11 -73 -22 -11 -18
-28 -16 -42 4 -10 14 -10 22 4 42 13 20 16 54 17 161 2 158 2 164 16 128 7
-20 17 -28 34 -28z m-566 -640 c0 -12 -9 -24 -22 -29 -52 -20 -62 -45 -68
-169 -3 -80 -7 -108 -13 -89 -5 20 -14 27 -32 27 -32 0 -32 18 0 30 27 10 31
32 16 73 -8 20 -17 25 -45 25 -20 0 -36 -4 -36 -9 0 -5 -4 -9 -10 -9 -5 0 -10
11 -10 24 0 23 3 24 40 21 48 -4 70 13 70 56 0 21 5 29 18 29 9 0 28 9 42 20
32 25 50 25 50 0z m190 -69 c0 -6 -4 -13 -10 -16 -19 -12 -12 -63 10 -70 44
-14 80 36 53 74 -14 21 -13 21 51 21 56 0 66 -3 66 -18 0 -28 49 -93 81 -106
29 -12 29 -13 34 -117 l5 -105 -39 -17 c-21 -10 -50 -35 -65 -56 l-27 -38
-127 -5 c-70 -3 -134 -9 -144 -12 -12 -6 -18 0 -23 22 -7 35 -37 64 -68 68
-12 1 -24 3 -27 3 -3 1 -4 60 -3 132 l3 131 44 28 c24 16 52 42 62 59 17 28
23 31 71 31 29 0 53 -4 53 -9z m-14 -910 c-21 -23 -18 -60 5 -74 40 -25 90 48
57 81 -9 9 3 12 55 12 65 0 67 -1 67 -25 0 -30 54 -93 86 -101 24 -6 25 -7 22
-117 -3 -103 -5 -112 -24 -117 -26 -6 -78 -50 -92 -77 -10 -18 -24 -21 -134
-27 -68 -3 -134 -7 -148 -8 -20 -2 -26 2 -28 22 -5 36 -31 60 -64 60 l-29 0 2
118 c1 64 -1 127 -5 139 -6 19 -2 25 26 37 42 19 60 34 82 69 17 24 24 27 79
27 59 0 60 0 43 -19z m-188 -842 c-7 -5 -18 -9 -24 -9 -6 0 -21 -11 -34 -25
-21 -23 -24 -37 -29 -143 -2 -64 -7 -106 -11 -92 -4 18 -14 26 -33 28 -33 4
-34 7 -1 36 22 18 25 27 19 54 -3 18 -10 32 -13 33 -4 0 -20 3 -36 5 -18 3
-32 0 -37 -8 -6 -9 -9 -5 -9 12 0 22 4 25 34 24 50 -3 62 9 65 63 1 7 19 22
41 33 23 12 44 28 47 37 5 12 9 10 21 -12 12 -23 12 -29 0 -36z m192 -48 c0
-6 -4 -13 -10 -16 -16 -10 -12 -51 6 -66 13 -11 20 -11 42 2 27 15 32 37 17
72 -6 15 0 17 53 17 57 0 60 -1 67 -27 8 -33 60 -91 93 -104 21 -8 22 -14 22
-111 l-1 -103 -39 -18 c-22 -10 -52 -36 -67 -58 l-28 -39 -107 -2 c-197 -4
-183 -5 -186 19 -4 26 -25 45 -66 58 l-30 10 2 128 2 129 45 30 c25 17 52 43
61 59 13 27 19 29 69 29 30 0 55 -4 55 -9z m-191 -750 c11 -7 10 -11 -5 -19
-18 -10 -18 -12 -1 -46 l17 -36 -36 -15 c-49 -20 -64 -62 -65 -182 0 -76 -3
-93 -11 -76 -6 12 -22 24 -37 28 l-26 7 29 23 c25 20 28 27 22 59 -4 20 -10
37 -14 37 -33 7 -72 5 -72 -2 0 -6 -4 -7 -10 -4 -23 14 -9 33 23 31 47 -3 65
10 73 50 5 27 14 39 45 55 42 21 45 29 28 61 -9 16 -8 23 2 29 17 11 21 11 38
0z m175 -150 c14 -5 16 -10 8 -15 -7 -4 -12 -20 -12 -36 0 -24 5 -31 27 -36
46 -12 68 20 52 75 -3 11 9 14 50 15 53 1 55 0 63 -30 8 -33 78 -104 102 -104
12 0 14 -20 13 -107 -2 -103 -3 -108 -24 -111 -12 -2 -45 -28 -72 -58 l-50
-54 -113 0 c-62 -1 -124 -2 -138 -3 -19 -1 -26 3 -28 19 -4 28 -40 61 -71 66
-23 3 -23 4 -25 140 -1 134 0 137 21 143 29 7 90 61 98 86 5 14 15 19 43 18
20 0 46 -4 56 -8z m402 -206 c28 0 28 -24 -1 -37 -24 -11 -26 -16 -20 -47 9
-48 13 -53 43 -49 32 4 41 -18 10 -27 -31 -10 -36 -21 -29 -58 6 -28 12 -33
49 -41 37 -8 42 -12 42 -35 0 -15 4 -31 9 -36 5 -6 12 -30 16 -54 l7 -44 -38
7 c-57 10 -74 16 -74 27 0 5 9 9 20 9 13 0 25 11 34 33 16 38 14 42 -27 63
-31 16 -31 16 -60 -16 -27 -30 -29 -31 -43 -13 -8 10 -11 28 -8 43 14 59 16
81 21 200 4 111 6 122 18 100 7 -14 21 -25 31 -25z m-573 -615 c4 -15 -3 -24
-28 -36 -54 -25 -58 -36 -63 -162 -3 -78 -7 -110 -13 -94 -6 15 -17 22 -34 22
-32 0 -32 13 1 37 22 16 25 24 19 55 -6 32 -11 36 -42 40 -23 3 -37 -1 -42
-10 -6 -11 -10 -11 -16 -3 -13 23 3 39 36 37 39 -3 69 23 69 59 0 18 8 28 33
38 17 8 38 21 46 30 16 20 26 15 34 -13z m176 -69 c23 -1 23 -2 7 -20 -10 -11
-16 -30 -14 -43 4 -33 62 -39 78 -8 12 22 5 60 -11 60 -6 0 -7 5 -4 10 3 6 30
10 60 10 54 0 54 0 73 -43 20 -44 73 -97 98 -97 12 0 14 -19 12 -107 -3 -104
-4 -108 -26 -111 -27 -4 -92 -66 -92 -87 0 -10 -10 -15 -27 -16 -128 -2 -241
-8 -253 -13 -11 -5 -19 3 -28 27 -12 33 -38 53 -77 59 -19 3 -20 10 -18 133 2
72 3 132 3 135 0 3 14 11 30 18 17 8 47 33 67 57 31 35 43 42 68 40 16 -2 41
-3 54 -4z m-339 -441 c5 0 12 5 15 10 3 6 15 10 26 10 10 0 19 5 19 12 0 9 3
9 11 1 16 -16 30 -86 19 -97 -6 -6 -10 -18 -10 -28 0 -29 -15 -21 -25 15 -9
29 -14 32 -49 32 -37 0 -40 -3 -49 -34 -7 -29 -5 -38 16 -59 24 -23 25 -23 50
-7 24 15 28 15 48 1 25 -17 19 -21 -41 -29 -19 -3 -55 -10 -79 -16 -47 -12
-59 -9 -45 11 16 21 36 87 29 97 -3 5 0 39 7 75 l12 65 19 -29 c11 -17 23 -30
27 -30z m825 -327 c-3 -27 -10 -79 -15 -118 -5 -38 -9 -95 -9 -125 l-1 -54
-21 21 c-21 21 -21 22 -5 70 18 53 21 46 -38 89 -19 13 -19 14 -1 33 15 18 16
25 5 51 -11 26 -17 30 -51 30 -33 0 -41 -4 -50 -26 -11 -30 -4 -64 14 -64 13
-1 57 -35 57 -44 0 -3 -6 -6 -14 -6 -23 0 -28 -18 -16 -55 9 -28 17 -35 38
-35 l27 0 -25 -20 c-39 -31 -47 -25 -54 42 -5 54 -10 66 -36 86 -17 13 -27 28
-24 33 3 6 8 29 11 52 6 55 8 57 51 57 28 1 133 20 160 29 2 1 0 -20 -3 -46z
m-865 26 c25 -5 65 -10 90 -11 40 -1 41 -1 9 -5 -27 -3 -40 -12 -53 -35 -17
-28 -17 -31 -2 -40 16 -9 23 -38 8 -38 -5 0 -17 6 -28 14 -17 13 -22 12 -45
-10 -24 -23 -27 -24 -33 -7 -4 10 -10 46 -13 80 -7 70 -8 69 67 52z m178 -103
c9 -21 8 -25 -16 -36 -64 -27 -66 -31 -73 -163 -4 -77 -9 -114 -14 -99 -5 14
-15 22 -31 22 -31 0 -30 9 2 35 22 18 25 25 19 57 -6 33 -10 36 -48 41 -27 4
-45 1 -50 -6 -5 -8 -7 -5 -5 7 2 13 13 20 38 22 52 6 57 9 64 48 6 29 15 40
46 56 22 11 40 25 40 30 0 19 17 10 28 -14z m192 -75 c0 -6 -4 -13 -10 -16
-19 -12 -11 -63 10 -70 46 -14 89 35 61 69 -16 20 -3 26 54 26 50 0 53 -1 59
-30 6 -31 66 -95 99 -106 15 -5 17 -20 17 -120 0 -107 -1 -114 -20 -114 -24 0
-89 -56 -101 -87 -8 -22 -13 -23 -139 -25 -71 -1 -138 -2 -147 -2 -10 -1 -19
8 -21 19 -6 29 -31 54 -65 63 l-30 8 0 138 1 139 31 13 c17 7 45 33 63 58 31
45 33 46 85 46 29 0 53 -4 53 -9z m395 -211 c32 0 32 -13 -1 -38 -25 -17 -26
-22 -17 -58 8 -35 12 -39 36 -36 33 3 36 -19 5 -33 -16 -7 -24 -20 -26 -43 -3
-35 13 -66 30 -56 5 3 16 0 25 -8 13 -10 17 -10 20 0 9 24 23 11 23 -21 0 -19
7 -56 15 -83 20 -65 19 -78 -2 -69 -10 5 -51 13 -91 20 -40 7 -75 15 -78 18
-4 3 1 14 10 23 16 16 18 15 31 -3 10 -14 22 -19 39 -16 31 6 42 19 50 58 6
28 3 33 -28 48 l-36 16 -29 -32 c-30 -31 -31 -31 -45 -12 -9 11 -13 27 -9 35
14 36 22 113 23 230 1 117 2 123 15 93 11 -25 20 -33 40 -33z m99 -552 c-4
-13 -9 -34 -11 -48 -2 -14 -8 -52 -12 -85 -5 -33 -10 -86 -10 -117 -1 -59 -9
-70 -32 -42 -10 12 -10 22 -1 48 18 50 15 70 -17 96 -27 23 -28 26 -13 43 14
16 14 21 0 50 -13 27 -21 32 -49 32 -27 0 -36 -6 -47 -28 -16 -32 -10 -54 15
-64 10 -4 24 -13 32 -21 13 -13 13 -16 -2 -27 -9 -7 -17 -19 -17 -28 0 -29 23
-68 39 -66 34 3 35 -2 3 -21 -18 -11 -34 -20 -36 -20 -2 0 -6 28 -10 62 -5 54
-10 66 -36 86 -21 16 -28 28 -21 36 12 15 17 68 7 84 -9 16 2 19 93 26 40 4
81 11 90 16 29 17 43 12 35 -12z m-700 -94 c9 -23 7 -34 -5 -34 -6 0 -24 -9
-39 -20 -32 -23 -40 -56 -45 -176 -1 -41 -5 -78 -9 -81 -3 -4 -6 1 -6 10 0 12
-9 17 -30 17 -38 0 -38 11 1 34 27 16 29 22 23 49 -9 44 -9 44 -50 52 -26 4
-39 3 -45 -7 -7 -10 -9 -9 -9 3 0 17 27 29 67 29 18 0 25 9 34 44 8 32 17 46
33 50 12 3 31 14 41 25 25 24 31 25 39 5z m196 -84 c0 -5 -4 -10 -10 -10 -5 0
-10 -13 -10 -30 0 -38 27 -54 61 -36 20 10 24 19 22 49 l-2 37 54 0 c51 0 55
-2 55 -23 0 -25 62 -94 97 -108 22 -8 23 -13 23 -119 0 -101 -1 -110 -19 -110
-10 0 -42 -25 -71 -57 l-51 -56 -72 2 c-40 1 -103 -3 -141 -9 -83 -13 -103 -8
-111 32 -4 18 -18 36 -34 45 l-26 15 1 141 c1 112 4 142 15 145 35 9 60 28 85
64 25 36 29 38 80 38 30 0 54 -4 54 -10z m-180 -836 c0 -8 -6 -14 -14 -14 -8
0 -28 -13 -45 -29 l-31 -29 0 -119 c-1 -110 -2 -116 -15 -85 -11 25 -20 32
-42 32 -24 1 -26 2 -11 13 9 7 24 17 34 22 13 9 16 19 10 47 -6 32 -10 36 -41
40 -22 2 -40 -1 -50 -11 -13 -14 -15 -12 -15 11 0 24 3 26 38 23 45 -4 62 9
62 44 0 31 16 51 40 51 9 0 25 8 36 19 20 20 44 12 44 -15z m186 -73 c-28 -30
-17 -65 20 -69 43 -4 62 20 47 59 l-11 29 58 0 c57 0 59 -1 65 -30 7 -31 52
-76 92 -91 22 -8 23 -14 25 -99 0 -49 1 -96 2 -102 1 -7 -9 -14 -21 -16 -12
-2 -44 -27 -71 -56 l-48 -54 -142 -4 c-123 -3 -142 -1 -142 12 0 29 -30 59
-65 66 -38 7 -38 6 -34 99 4 95 4 98 -4 132 -6 31 -4 34 33 53 21 11 51 36 66
55 25 33 29 35 87 35 59 0 60 0 43 -19z m-379 -148 c3 -9 2 -33 -4 -54 -8 -32
-7 -40 10 -58 20 -19 20 -19 0 -58 l-20 -39 22 -28 c22 -27 24 -28 60 -16 40
13 55 5 55 -32 0 -9 5 -20 11 -24 8 -5 6 -10 -5 -16 -9 -5 -16 -19 -17 -31 0
-18 -3 -17 -15 11 -13 29 -18 32 -59 32 -38 0 -45 -3 -45 -19 0 -11 -4 -23
-10 -26 -7 -4 -10 60 -10 184 0 125 4 191 10 191 6 0 13 -7 17 -17z m743 -2
c0 -20 14 -34 38 -37 19 -3 29 -16 16 -21 -36 -13 -46 -29 -39 -66 6 -32 11
-37 36 -37 37 0 47 -18 16 -29 -33 -13 -38 -23 -31 -60 6 -26 11 -31 49 -36
42 -7 42 -7 53 -63 6 -32 14 -67 18 -79 7 -24 3 -25 -83 -7 -28 5 -30 20 -3
27 10 3 25 20 33 38 14 34 14 34 -20 52 -32 17 -36 17 -59 2 -13 -8 -24 -20
-24 -25 0 -16 -22 -11 -35 7 -8 10 -10 25 -5 38 29 78 32 101 25 206 -5 77 -4
109 4 109 6 0 11 -9 11 -19z m141 -593 c-6 -35 -14 -102 -17 -150 -6 -81 -8
-86 -25 -77 -23 12 -24 26 -3 69 10 19 13 35 7 39 -5 3 -23 17 -39 29 -27 22
-28 24 -11 37 17 12 17 17 6 50 -15 40 -5 54 36 55 11 0 27 4 35 10 22 14 23
7 11 -62z m-499 -120 c-28 -28 -7 -78 33 -78 40 0 61 50 33 79 -11 10 0 11 52
9 56 -3 65 -6 68 -23 5 -27 50 -75 85 -89 27 -12 27 -14 32 -114 4 -99 4 -102
-17 -102 -13 0 -43 -22 -74 -54 l-53 -55 -138 -2 c-110 -2 -138 1 -141 12 -8
25 -44 58 -71 64 l-27 6 0 129 0 128 32 16 c18 8 45 31 61 50 26 33 32 36 83
36 42 0 51 -3 42 -12z m371 -168 c3 -14 14 -20 31 -20 33 0 33 -13 0 -35 -21
-13 -25 -22 -19 -43 9 -38 23 -51 45 -45 14 4 20 0 20 -11 0 -9 -6 -16 -14
-16 -25 0 -38 -26 -28 -61 7 -31 12 -34 48 -34 34 -1 39 -5 42 -26 2 -13 6
-31 9 -39 8 -18 12 -38 15 -70 3 -23 0 -25 -32 -21 -19 1 -44 8 -55 13 -19 11
-19 11 3 19 21 8 42 45 42 74 0 7 -16 19 -36 25 -34 12 -38 11 -60 -16 -22
-25 -26 -26 -40 -12 -13 13 -14 23 -4 69 7 30 12 102 11 162 -1 98 9 136 22
87z m-549 -606 c9 -25 7 -34 -8 -34 -8 0 -28 -11 -43 -24 -27 -23 -28 -29 -34
-138 -4 -73 -8 -105 -14 -90 -5 16 -15 22 -36 22 -37 0 -37 11 2 32 27 16 30
21 24 50 -4 18 -9 34 -10 36 -7 8 -75 9 -75 1 0 -5 -5 -9 -11 -9 -16 0 -6 35
11 36 8 1 25 2 38 2 18 2 28 12 39 42 9 22 21 40 27 40 6 0 25 11 41 25 36 29
41 30 49 9z m187 -87 c-17 -17 -13 -65 7 -75 44 -24 89 32 56 69 -18 20 -17
20 51 17 66 -3 69 -4 76 -32 10 -36 53 -82 85 -90 23 -6 24 -9 24 -111 0 -104
0 -105 -24 -105 -17 0 -40 -17 -73 -55 l-49 -55 -120 1 c-65 0 -128 -1 -139
-3 -14 -2 -21 3 -23 18 -4 28 -41 61 -72 66 l-25 3 2 130 c1 97 5 131 15 134
24 7 98 72 98 86 0 14 55 23 98 16 17 -2 20 -7 13 -14z"/>
<path d="M3398 10014 c-4 -3 -2 -19 3 -36 6 -21 5 -36 -2 -45 -7 -7 -7 -13 -2
-13 5 0 15 -12 22 -27 9 -23 9 -25 -1 -12 -7 9 -28 24 -46 33 -41 21 -81 14
-122 -21 -33 -27 -38 -43 -15 -43 8 0 15 4 15 9 0 14 57 33 78 26 31 -9 72
-45 72 -61 0 -11 -6 -13 -20 -9 -11 4 -29 0 -42 -9 -12 -9 -26 -16 -31 -16
-14 0 -26 44 -14 52 6 4 9 10 5 13 -7 7 -42 -25 -51 -46 -4 -11 -6 -11 -6 -1
-1 7 -5 10 -11 7 -14 -9 -13 -68 2 -83 9 -9 6 -12 -15 -12 -33 0 -35 -17 -4
-29 19 -7 22 -16 21 -59 -1 -42 2 -49 15 -45 24 8 41 34 41 60 0 27 6 28 49 7
59 -29 83 6 35 51 -15 14 -31 25 -37 25 -6 0 -2 9 8 20 10 11 31 20 46 20 30
0 46 14 28 26 -8 5 -8 8 0 14 7 4 13 17 14 28 1 12 6 22 12 22 6 0 28 18 49
39 38 39 45 72 15 76 -8 2 -35 12 -59 24 -50 24 -45 23 -52 15z"/>
<path d="M2396 9989 c-18 -17 -21 -18 -37 -4 -13 13 -27 14 -64 8 -60 -10 -91
-45 -76 -85 7 -20 6 -29 -4 -38 -8 -6 -15 -21 -17 -33 -2 -14 -10 -22 -23 -23
-37 -2 -38 -4 -20 -24 9 -10 22 -18 29 -17 6 1 11 -7 12 -18 1 -39 15 -55 49
-55 42 0 61 21 45 50 -9 17 -8 22 12 29 13 5 28 6 34 4 7 -2 15 0 18 6 4 6 -9
13 -31 16 -80 13 -101 35 -67 69 25 25 57 19 103 -20 50 -44 67 -38 22 8 -32
33 -33 37 -22 77 6 24 7 24 39 -13 25 -29 32 -46 30 -68 -2 -18 2 -33 10 -35
6 -3 12 3 12 12 0 9 7 29 15 46 14 27 19 29 55 23 39 -6 40 -6 40 23 0 63
-119 108 -164 62z"/>
<path d="M8760 9996 c14 -18 13 -19 -15 -12 -98 24 -139 16 -169 -34 -23 -39
-13 -52 38 -48 41 3 41 3 56 -42 18 -57 16 -54 37 -45 10 5 20 9 23 10 29 10
47 22 58 37 15 21 60 24 87 4 27 -19 13 -40 -36 -56 -24 -7 -48 -16 -54 -20
-5 -4 -25 -7 -44 -8 -42 -3 -82 -26 -105 -61 l-17 -26 5 36 c7 41 -10 99 -29
99 -16 0 -25 -22 -25 -61 0 -16 -4 -29 -10 -29 -5 0 -7 7 -4 15 7 16 -34 74
-53 74 -12 1 -17 -23 -13 -62 1 -16 -2 -17 -19 -8 -37 20 -85 7 -51 -14 6 -3
10 -14 10 -24 0 -14 -10 -20 -38 -24 -41 -7 -122 -61 -122 -82 0 -16 21 -24
75 -31 48 -5 90 8 122 38 13 12 26 19 29 15 13 -12 6 -94 -10 -125 -10 -19
-15 -36 -12 -39 3 -3 25 11 49 31 36 29 52 36 88 36 l44 -1 -30 -15 c-41 -22
-55 -42 -55 -80 0 -24 8 -39 31 -58 17 -14 34 -26 39 -26 11 0 21 30 15 40 -3
5 5 16 18 25 33 21 50 61 37 86 -9 16 -7 19 12 20 13 1 27 1 31 0 13 -2 47 19
47 29 0 5 -12 16 -27 24 -26 14 -27 15 -8 22 50 18 66 54 24 54 -20 0 -26 24
-8 36 6 3 9 22 7 40 -4 31 -2 34 24 34 25 0 28 -3 28 -34 0 -53 49 -63 95 -20
25 23 27 30 21 72 -3 26 -15 56 -28 69 -17 18 -19 25 -9 37 10 11 9 21 -3 44
-12 24 -26 33 -68 43 -29 7 -57 12 -62 11 -4 -2 -16 3 -25 10 -15 12 -15 11
-1 -6z"/>
<path d="M3628 9964 c-13 -13 -19 -14 -37 -2 -20 12 -24 10 -41 -10 -18 -22
-18 -25 -2 -58 14 -31 20 -35 48 -32 23 3 35 -1 43 -14 13 -22 41 -24 41 -3 0
7 -8 18 -17 24 -25 13 -9 25 15 12 29 -15 42 -14 36 4 -4 9 0 15 10 15 9 0 16
6 16 13 0 18 -21 37 -41 37 -9 0 -19 7 -23 15 -7 19 -28 19 -48 -1z"/>
<path d="M3795 9970 c-4 -6 2 -13 12 -16 37 -11 48 -22 51 -47 6 -46 -14 -69
-56 -65 -34 3 -38 0 -55 -35 -20 -44 -35 -52 -81 -43 -37 7 -105 54 -106 74 0
13 -26 17 -34 4 -15 -25 118 -112 173 -112 14 0 41 17 69 46 35 34 53 44 70
41 49 -9 85 100 45 135 -22 19 -80 31 -88 18z"/>
<path d="M7051 9963 c-43 -8 -71 -33 -71 -63 0 -39 45 -90 78 -90 18 0 39 -14
68 -45 35 -39 46 -45 80 -45 68 1 173 63 205 122 14 26 -18 12 -55 -24 -42
-40 -109 -70 -148 -66 -24 2 -36 10 -48 33 -8 17 -16 32 -18 34 -1 3 -23 6
-49 7 -52 3 -63 14 -63 62 0 28 5 35 35 48 19 8 35 19 35 24 0 10 -7 11 -49 3z"/>
<path d="M7227 9956 c-3 -7 -19 -16 -36 -19 -36 -7 -43 -37 -10 -37 18 0 19
-2 9 -15 -20 -24 -2 -31 30 -13 27 15 40 14 40 -3 0 -3 -9 -9 -20 -12 -22 -6
-28 -37 -7 -37 6 0 23 9 37 20 16 12 34 17 52 13 24 -5 29 -1 44 30 16 34 16
37 0 61 -19 29 -38 33 -56 11 -12 -14 -15 -14 -30 0 -21 19 -46 19 -53 1z"/>
<path d="M3056 9944 c-11 -10 -16 -34 -16 -69 l0 -54 -56 0 c-60 1 -90 -14
-64 -32 26 -16 118 -8 137 13 24 27 33 22 33 -16 0 -34 18 -80 33 -84 5 -1 10
35 11 80 2 90 16 124 61 148 14 7 25 18 25 23 0 11 -52 -1 -61 -14 -3 -6 -11
-3 -19 6 -16 20 -64 19 -84 -1z"/>
<path d="M7756 9951 c-3 -5 15 -20 41 -32 72 -37 87 -64 91 -170 2 -49 8 -89
12 -89 16 0 42 89 36 122 -6 32 -5 33 26 33 27 0 34 4 36 24 2 13 -4 43 -13
67 -14 37 -21 44 -44 44 -15 0 -31 -3 -35 -7 -9 -9 -77 -12 -71 -3 2 4 -1 7
-8 7 -7 0 -24 3 -39 6 -15 4 -29 3 -32 -2z"/>
<path d="M2750 9920 c0 -16 -4 -30 -9 -30 -5 0 -12 -7 -15 -16 -4 -10 -2 -13
6 -8 8 5 9 2 4 -12 -19 -45 -19 -54 2 -54 11 0 23 -6 26 -12 3 -9 9 -8 20 5
14 18 15 18 26 -2 6 -12 18 -21 27 -21 12 0 14 7 10 30 -5 23 -3 28 8 23 17
-6 19 5 5 27 -7 11 -4 16 11 20 33 8 24 24 -22 37 -23 7 -50 19 -59 28 -26 23
-40 18 -40 -15z"/>
<path d="M8300 9925 c-14 -8 -48 -22 -77 -30 -38 -12 -50 -20 -46 -31 3 -8 17
-14 31 -14 20 0 23 -3 14 -12 -17 -17 -15 -28 6 -28 15 0 18 -6 14 -30 -6 -38
20 -41 37 -4 8 19 15 23 24 16 15 -12 77 -12 77 1 0 5 -11 22 -24 38 -20 23
-23 36 -19 69 6 43 1 47 -37 25z"/>
<path d="M7579 9900 c-48 -25 -76 -67 -61 -91 8 -12 8 -20 2 -24 -18 -11 -10
-25 14 -25 32 0 76 -17 76 -29 0 -6 -16 -26 -35 -46 -20 -19 -33 -40 -30 -45
10 -16 68 -12 93 6 27 18 33 15 48 -29 14 -43 50 -49 64 -11 8 21 7 31 -6 45
-15 16 -14 18 13 21 33 4 47 38 15 38 -17 0 -19 4 -12 43 10 49 6 56 -19 40
-16 -10 -20 -8 -25 13 -7 24 -36 34 -36 12 0 -7 -7 -21 -15 -32 -13 -17 -15
-17 -37 -2 -12 9 -37 16 -56 16 -29 0 -32 2 -23 19 12 21 87 61 116 61 10 0
31 -12 47 -27 33 -32 48 -24 24 12 -31 47 -104 64 -157 35z"/>
<path d="M5141 9844 c-62 -31 -122 -70 -140 -90 -27 -30 -38 -34 -79 -34 -26
0 -57 6 -68 13 -68 39 -103 55 -138 60 l-39 6 7 -237 c3 -130 9 -310 13 -399
l6 -163 297 0 c163 0 299 2 301 4 2 2 1 89 -2 193 -4 103 -10 304 -14 446 -6
204 -10 257 -21 257 -7 0 -62 -25 -123 -56z"/>
<path d="M3469 9838 c0 -7 -2 -24 -3 -38 -1 -14 -3 -43 -4 -66 -3 -59 -42 -98
-124 -124 -67 -20 -97 -40 -116 -76 -7 -13 -7 -25 -1 -35 8 -11 12 -11 16 -1
9 24 46 51 82 63 73 23 132 53 147 77 13 20 18 22 26 11 7 -10 7 -8 3 9 -3 12
-3 31 0 43 l7 21 15 -22 c12 -17 24 -21 57 -19 77 5 86 18 30 45 -19 9 -48 32
-62 51 -26 32 -27 33 -34 11 -6 -22 -6 -21 -7 4 -1 33 -11 58 -22 58 -5 0 -9
-6 -10 -12z"/>
<path d="M2514 9804 c-4 -20 -2 -53 4 -73 l12 -36 -34 37 c-21 23 -49 41 -77
48 -39 11 -45 10 -60 -8 -16 -21 -15 -77 2 -88 18 -10 9 -24 -16 -24 -38 0
-30 -17 17 -38 l41 -20 -27 -17 c-33 -22 -19 -45 29 -45 31 0 33 -2 32 -35 -1
-27 7 -43 32 -68 17 -19 31 -40 29 -47 -6 -24 17 -20 49 8 23 21 29 32 22 43
-5 8 -9 26 -9 40 0 20 -8 30 -31 40 -28 11 -29 13 -13 20 37 13 78 1 105 -30
14 -17 31 -31 37 -31 16 0 15 4 -7 51 -15 31 -17 46 -10 74 9 30 13 34 29 25
10 -6 22 -15 25 -20 10 -17 102 -12 120 6 11 12 13 20 6 27 -19 19 -12 27 19
20 23 -4 40 1 72 23 36 25 51 29 110 29 73 0 85 7 38 23 -19 7 -51 7 -97 1
-37 -5 -84 -7 -104 -4 -31 5 -39 3 -58 -21 -17 -21 -24 -24 -35 -15 -8 7 -29
13 -46 13 -31 1 -32 2 -26 40 7 42 -5 49 -36 21 -17 -15 -18 -15 -18 14 0 17
-7 36 -15 43 -12 10 -18 6 -35 -22 -11 -18 -18 -40 -14 -48 3 -10 2 -12 -5 -5
-5 6 -11 26 -13 45 -4 51 -35 54 -44 4z"/>
<path d="M7440 9796 c0 -27 -5 -46 -11 -46 -7 0 -9 10 -5 25 8 30 -19 36 -29
6 -7 -22 -62 -67 -89 -72 -28 -6 -30 -26 -4 -33 52 -13 103 -7 117 16 13 21
14 21 28 -13 27 -64 93 -112 173 -125 22 -4 40 -11 40 -16 0 -6 10 -8 22 -5
36 10 112 -42 101 -69 -3 -8 -1 -14 5 -14 17 0 21 38 6 59 -20 28 -73 57 -116
65 -21 4 -39 6 -40 5 -2 -1 -13 3 -26 10 -13 7 -33 14 -44 16 -55 11 -107 103
-108 192 0 17 -4 35 -10 38 -6 4 -10 -12 -10 -39z"/>
<path d="M5666 9775 c-7 -56 -4 -745 3 -750 8 -4 215 -7 485 -6 l199 1 -6 376
c-3 207 -9 379 -12 382 -3 3 -38 0 -78 -6 -87 -15 -161 -62 -220 -139 -41 -56
-56 -63 -77 -38 -10 12 -10 15 3 15 26 0 67 51 57 70 -5 9 -7 26 -4 37 3 12 0
24 -8 29 -21 14 -77 32 -82 27 -8 -8 6 -33 15 -27 13 8 46 -4 52 -19 3 -7 -3
-13 -14 -13 -11 0 -19 4 -19 8 0 4 -4 8 -8 8 -5 0 -8 -10 -8 -22 1 -16 -5 -23
-19 -23 -11 -1 -25 -4 -32 -8 -13 -8 -7 -37 8 -37 4 0 6 7 3 15 -4 8 -2 15 4
15 5 0 15 -7 22 -15 10 -12 10 -15 0 -15 -10 0 -10 -3 0 -15 10 -12 9 -15 -5
-15 -19 0 -77 58 -70 70 3 4 -4 10 -15 13 -12 3 -20 14 -20 26 0 12 -5 18 -13
15 -7 -2 -30 14 -52 36 -22 23 -32 38 -22 35 9 -4 17 -3 17 3 0 5 -18 9 -39 8
-38 -1 -40 -2 -45 -41z"/>
<path d="M8025 9730 c-50 -8 -81 -24 -95 -50 -11 -21 3 -29 15 -10 3 6 19 17
35 25 37 19 124 4 198 -35 49 -26 57 -27 85 -15 41 17 44 35 13 64 -22 21 -27
22 -60 10 -26 -10 -41 -10 -58 -2 -31 15 -85 21 -133 13z"/>
<path d="M3140 9635 c-46 -16 -48 -37 -11 -82 l30 -36 -19 -37 c-23 -46 -104
-117 -142 -126 -34 -7 -37 -24 -5 -24 28 0 92 32 124 62 25 23 57 74 59 93 3
29 17 64 24 60 5 -3 6 5 3 17 -4 19 -3 20 6 8 9 -13 11 -13 11 3 0 9 -5 17
-11 17 -5 0 -7 5 -4 10 4 6 11 8 16 5 5 -4 4 5 -3 19 -12 28 -25 30 -78 11z"/>
<path d="M7813 9614 c-4 -11 7 -43 31 -88 67 -124 84 -144 151 -176 61 -29
133 -41 120 -20 -4 6 -12 9 -18 8 -26 -6 -97 33 -150 82 -32 29 -57 57 -57 62
0 6 12 27 28 47 43 57 55 81 40 82 -61 3 -87 6 -110 13 -22 6 -29 4 -35 -10z"/>
<path d="M2874 9595 c-15 -24 -15 -38 0 -76 5 -10 -2 -28 -18 -46 -25 -30 -25
-31 -7 -48 28 -25 92 -30 129 -11 36 19 65 72 60 113 -3 24 -7 28 -36 28 -25
0 -41 8 -63 33 -35 39 -44 40 -65 7z"/>
<path d="M8151 9575 c-21 -36 -24 -38 -76 -39 -25 -1 -31 -6 -33 -29 -4 -36
31 -92 68 -107 39 -16 126 -8 148 13 15 15 14 19 -11 44 -25 27 -25 31 -15 72
10 41 10 46 -11 63 -33 26 -46 23 -70 -17z"/>
<path d="M2212 9558 c-17 -17 -15 -38 4 -38 8 0 22 -16 30 -37 25 -59 12 -135
-44 -245 -2 -5 2 -8 10 -8 15 1 67 68 90 117 30 61 4 191 -41 207 -9 3 -21 8
-26 11 -6 3 -16 0 -23 -7z"/>
<path d="M8850 9525 c-50 -53 -27 -188 47 -275 22 -26 61 -43 51 -22 -2 4 -16
31 -31 60 -19 36 -28 69 -29 105 -1 63 7 85 40 113 30 27 22 44 -22 44 -22 0
-40 -8 -56 -25z"/>
<path d="M2631 9446 c-17 -20 -26 -86 -13 -86 6 0 14 5 17 10 11 18 23 11 18
-10 -4 -15 0 -20 16 -20 14 0 25 -11 36 -36 14 -34 14 -40 -2 -73 -14 -28 -27
-38 -55 -45 -55 -14 -46 -46 13 -46 36 0 15 -51 -31 -75 -35 -18 -38 -31 -10
-38 13 -3 31 4 50 20 27 22 26 18 -15 -44 -31 -46 -43 -74 -39 -88 11 -34 24
-41 24 -12 0 32 36 108 56 120 8 4 14 14 14 21 0 8 6 16 14 19 17 7 39 105 37
162 0 22 -7 65 -15 95 -14 54 -13 77 3 52 4 -7 16 -14 27 -16 10 -2 31 -7 45
-11 16 -4 30 -2 33 4 4 6 2 11 -4 11 -6 0 -28 11 -48 25 -39 27 -87 33 -95 13
-3 -7 -6 -2 -6 13 -2 44 -45 66 -70 35z"/>
<path d="M8452 9439 c-13 -5 -26 -18 -29 -29 -3 -11 -10 -20 -17 -19 -32 4
-57 -3 -90 -26 -20 -14 -44 -25 -53 -25 -12 0 -14 -3 -7 -10 11 -11 109 14
119 30 3 6 11 10 17 10 7 0 7 -4 0 -13 -14 -17 -37 -124 -36 -167 1 -72 37
-159 76 -188 20 -15 44 -61 53 -102 8 -34 25 -31 25 5 0 26 -42 95 -66 108 -7
4 -19 17 -25 29 l-11 21 28 -20 c35 -25 85 -33 91 -15 3 6 -2 12 -9 12 -16 0
-62 47 -71 73 -5 13 -1 17 21 17 29 0 72 24 72 41 0 5 -17 7 -40 3 -46 -8 -66
5 -87 53 -11 28 -11 38 3 72 12 30 19 38 35 34 14 -4 19 0 19 16 0 24 3 25 30
9 28 -18 34 -5 19 44 -15 45 -29 53 -67 37z"/>
<path d="M2362 9392 c-18 -12 -14 -162 5 -162 7 0 13 5 13 10 0 6 11 15 25 20
14 5 25 14 25 20 0 6 5 8 10 5 16 -10 11 -41 -10 -60 -54 -49 23 -110 93 -74
70 36 99 104 70 163 -19 41 -33 44 -74 15 -19 -13 -39 -19 -55 -16 -13 2 -27
0 -30 -4 -10 -16 -24 -9 -24 11 0 18 -26 80 -33 80 -1 0 -8 -4 -15 -8z"/>
<path d="M8742 9351 c-15 -35 -21 -40 -62 -45 -39 -5 -47 -3 -69 20 l-24 27
-28 -34 c-48 -58 -31 -127 41 -168 43 -24 68 -26 104 -9 38 17 42 43 12 79
-22 26 -24 33 -14 52 l13 22 3 -23 c2 -16 8 -22 19 -18 9 4 17 -1 20 -14 10
-38 30 -22 35 28 11 114 -17 160 -50 83z"/>
<path d="M2269 9204 c-42 -21 -45 -77 -8 -132 16 -23 29 -44 29 -46 0 -2 -18
0 -41 4 -40 8 -41 7 -34 -19 18 -73 20 -100 13 -145 -4 -28 -5 -52 -2 -55 10
-11 32 30 39 72 10 55 38 93 80 108 43 16 45 33 4 49 -34 15 -89 83 -89 111 0
9 12 26 27 37 32 23 18 36 -18 16z"/>
<path d="M8820 9201 c0 -5 14 -14 30 -20 22 -7 30 -16 30 -33 0 -37 -36 -86
-80 -108 -22 -11 -40 -24 -40 -28 0 -4 16 -14 35 -21 59 -21 75 -47 102 -166
4 -18 3 -18 -9 -4 -23 28 -55 40 -67 26 -7 -9 -7 -17 0 -24 17 -17 39 -112 27
-119 -5 -4 -8 -24 -6 -45 3 -31 0 -39 -17 -45 -11 -3 -23 -6 -27 -5 -5 1 -8
-3 -8 -9 0 -16 -160 -4 -208 15 -42 17 -60 16 -48 -3 3 -5 32 -20 63 -32 89
-35 94 -43 53 -85 -53 -54 -28 -53 47 3 37 28 69 49 71 47 2 -1 -6 -22 -18
-46 -19 -37 -21 -48 -11 -79 6 -21 28 -53 49 -73 20 -19 57 -54 82 -77 50 -48
67 -40 22 10 -34 37 -82 127 -82 153 0 10 7 20 15 23 8 4 15 10 15 16 0 5 -5
6 -11 2 -12 -7 -12 -3 16 81 11 33 24 64 30 68 5 4 26 5 46 2 30 -4 38 -1 49
19 20 38 1 80 -38 84 -36 4 -36 4 -22 51 13 45 15 91 6 119 -6 17 -3 22 9 22
13 0 14 4 5 20 -8 15 -7 27 5 51 20 38 13 69 -9 46 -9 -9 -26 -12 -41 -9 -15
2 -23 7 -18 11 5 3 19 23 31 44 24 41 22 78 -6 110 -16 17 -72 24 -72 8z"/>
<path d="M2430 8869 c0 -32 0 -32 -20 -14 -16 14 -23 16 -32 7 -9 -9 -9 -15 0
-24 16 -16 15 -28 -3 -28 -21 0 -55 -40 -55 -66 0 -36 20 -39 47 -8 17 21 22
23 17 9 -12 -32 -10 -88 4 -92 6 -3 12 2 12 10 0 24 51 79 66 73 8 -4 21 -9
31 -13 17 -7 16 5 -2 51 -8 17 -5 18 38 12 43 -7 47 -5 47 13 0 31 -49 64 -87
58 -27 -5 -32 -2 -35 15 -5 36 -28 34 -28 -3z"/>
<path d="M8684 8872 c-5 -26 -9 -30 -28 -23 -11 5 -28 6 -36 3 -28 -9 -60 -45
-60 -69 0 -27 0 -27 36 -8 40 20 58 19 49 -2 -14 -34 -17 -63 -7 -63 6 0 14 5
17 10 11 18 41 10 69 -19 15 -16 27 -33 26 -37 -1 -5 3 -10 9 -12 16 -5 24 43
12 66 -18 34 -12 37 17 9 31 -30 42 -27 42 12 -1 31 -16 53 -49 70 -17 9 -20
16 -12 24 15 15 14 37 -3 37 -7 0 -20 -7 -27 -17 -13 -15 -14 -13 -19 12 -7
40 -29 44 -36 7z"/>
<path d="M2256 8821 c-23 -24 -27 -35 -21 -60 6 -27 4 -31 -14 -31 -39 0 -68
-74 -38 -99 8 -6 31 -10 53 -8 l39 2 32 -80 c18 -44 33 -90 33 -102 0 -18 -4
-20 -27 -14 -20 5 -34 19 -48 49 -27 56 -48 56 -43 0 3 -26 0 -47 -8 -53 -7
-5 -15 -20 -19 -32 -5 -20 -3 -23 21 -23 21 0 24 -3 15 -14 -9 -10 -8 -16 3
-26 12 -9 20 -7 41 14 14 14 25 32 25 41 0 8 6 15 14 15 12 0 13 -7 5 -32 -5
-17 -13 -36 -19 -42 -14 -14 -13 -26 2 -26 16 0 85 75 93 100 4 11 13 20 22
20 12 0 13 3 3 15 -6 8 -9 18 -6 24 4 5 -5 30 -18 55 l-24 45 59 -41 c33 -22
59 -44 59 -49 0 -5 5 -9 10 -9 17 0 11 18 -15 45 -22 25 -23 29 -9 49 8 13 31
28 52 35 20 6 46 18 56 26 36 28 7 28 -54 1 -42 -19 -74 -27 -103 -25 -24 2
-49 -1 -56 -5 -21 -14 -58 31 -66 80 -3 24 -10 46 -15 49 -6 4 -6 13 -1 23 10
19 41 100 41 107 0 17 -51 0 -74 -24z"/>
<path d="M6816 8233 l2 -428 326 -3 325 -2 -5 257 c-2 142 -7 336 -10 431 l-6
172 -317 0 -316 0 1 -427z"/>
<path d="M2840 8631 c0 -5 7 -14 15 -21 8 -7 15 -18 15 -24 0 -7 11 -23 25
-36 34 -32 31 -60 -9 -99 -32 -31 -39 -33 -119 -37 -85 -4 -85 -4 -92 23 l-6
26 -23 -34 c-31 -46 -38 -91 -34 -249 2 -74 3 -200 3 -279 l0 -144 320 6 c176
4 322 6 324 7 4 0 -4 352 -15 683 l-7 187 -198 0 c-110 0 -199 -4 -199 -9z"/>
<path d="M5726 8633 c-3 -4 -6 -192 -6 -420 l0 -413 333 2 332 3 0 413 0 413
-326 4 c-180 2 -329 1 -333 -2z"/>
<path d="M7875 8367 c4 -149 8 -340 9 -422 l1 -150 60 0 c33 0 168 1 300 3
l240 2 -3 92 c-2 51 1 161 6 243 5 83 6 153 3 157 -13 15 -188 27 -224 16 -75
-23 -125 22 -134 120 -6 60 12 112 58 171 11 13 19 28 19 32 0 5 -77 9 -171 9
l-171 0 7 -273z"/>
<path d="M3664 8615 c-9 -22 0 -821 9 -817 4 1 141 2 305 2 l298 0 -1 198 c-1
108 1 289 4 402 4 113 5 211 3 218 -3 9 -74 12 -308 12 -264 0 -305 -2 -310
-15z"/>
<path d="M4715 8615 c-2 -5 -6 -196 -8 -423 l-6 -412 287 0 c158 1 293 4 299
8 9 6 13 115 13 422 l2 415 -292 0 c-186 0 -294 -4 -295 -10z"/>
<path d="M0 7837 c0 -14 5 -29 10 -32 6 -3 10 -18 9 -33 0 -24 -1 -25 -9 -7
-8 18 -9 17 -9 -7 -1 -14 5 -28 12 -31 10 -4 10 -7 0 -18 -7 -7 -13 -37 -13
-67 0 -47 2 -53 15 -42 8 7 15 20 15 30 0 10 6 23 14 29 18 15 32 -3 28 -36
-2 -12 3 -35 12 -51 18 -35 21 -199 4 -220 -7 -7 -14 -32 -17 -55 -5 -34 -10
-43 -28 -45 -21 -3 -23 1 -23 37 0 22 -5 43 -10 46 -6 4 -10 -16 -10 -53 0
-52 3 -60 21 -65 12 -3 18 -10 15 -16 -4 -6 -13 -8 -21 -4 -12 4 -15 -6 -15
-55 0 -59 1 -60 33 -71 17 -7 113 -19 212 -27 99 -9 187 -20 195 -25 9 -5 -4
-6 -35 -3 -27 2 -117 9 -200 14 -82 6 -162 13 -178 16 l-27 6 0 -69 c0 -38 5
-74 11 -80 8 -8 8 -13 0 -17 -13 -8 -15 -126 -2 -126 11 0 21 25 21 56 0 17 6
24 19 24 16 0 20 -7 19 -40 0 -22 4 -46 10 -53 12 -14 19 -227 9 -244 -3 -5
-8 -22 -11 -38 -12 -63 -56 -60 -56 4 0 22 -4 43 -10 46 -6 4 -10 -43 -10
-133 0 -104 3 -139 13 -139 6 0 55 -3 107 -7 52 -3 146 -8 208 -12 62 -4 115
-11 119 -17 4 -6 -3 -8 -19 -4 -14 4 -65 7 -113 8 -82 1 -90 -1 -106 -22 -17
-23 -17 -24 3 -35 15 -8 17 -13 9 -19 -12 -7 -45 16 -84 59 -13 14 -35 21 -78
24 -58 4 -59 4 -59 -21 0 -14 6 -28 13 -30 8 -4 8 -8 2 -14 -18 -15 -16 -53 3
-53 16 -1 16 -1 0 -14 -14 -10 -18 -28 -18 -70 0 -31 4 -56 9 -56 11 0 21 25
21 51 0 12 7 19 19 19 26 0 34 -56 34 -238 1 -118 -2 -145 -15 -159 -27 -27
-48 -9 -48 41 0 25 -4 48 -10 51 -6 4 -10 -43 -10 -134 l0 -140 43 -5 c23 -3
139 -10 257 -16 118 -6 237 -13 264 -17 38 -4 47 -2 44 8 -3 8 -21 18 -41 22
-41 10 -47 22 -16 32 20 7 43 50 34 65 -3 4 -18 13 -34 18 -26 9 -33 7 -55
-14 l-25 -25 -11 21 c-9 17 -8 32 4 70 10 31 16 88 17 152 1 85 3 98 12 76 7
-19 18 -28 34 -28 30 0 29 -18 -2 -32 -26 -12 -29 -19 -19 -55 4 -16 14 -23
30 -23 33 0 39 -18 10 -30 -39 -14 -36 -64 4 -85 17 -9 30 -11 30 -5 0 5 4 10
9 10 5 0 12 -26 17 -57 7 -54 8 -56 13 -23 7 42 3 565 -4 558 -7 -7 -17 -85
-19 -145 -1 -62 -9 -73 -30 -40 -15 22 -15 27 -1 53 8 16 15 34 15 40 0 15
-45 56 -53 47 -4 -3 -7 -1 -7 5 0 6 9 17 19 24 18 13 18 15 1 50 -10 20 -15
39 -12 42 3 4 22 6 43 6 70 0 60 38 -11 41 -33 2 -32 2 9 8 57 8 65 28 14 37
-60 11 -73 21 -42 33 47 17 52 64 10 85 -27 15 -30 14 -56 -10 -26 -24 -28
-24 -40 -7 -10 13 -10 23 -2 38 6 11 13 75 15 143 4 115 13 149 25 101 3 -12
10 -18 16 -14 6 3 16 3 23 -1 8 -5 3 -14 -15 -28 -36 -29 -28 -74 15 -83 l30
-6 -27 -21 c-22 -18 -25 -26 -20 -49 8 -30 44 -51 70 -41 11 5 15 -2 16 -27 1
-19 5 -45 9 -59 4 -14 8 126 8 310 0 203 -4 319 -9 295 -4 -22 -8 -57 -8 -77
-1 -47 -17 -49 -55 -6 -25 29 -26 33 -11 44 15 11 15 15 0 43 -8 17 -21 31
-28 31 -26 1 20 18 65 24 69 10 54 33 -28 41 -88 10 -91 25 -5 25 78 0 91 12
34 30 -52 17 -61 28 -30 35 18 5 28 16 32 37 4 16 5 30 3 32 -1 1 -16 8 -33
15 -27 12 -31 11 -52 -13 -12 -14 -24 -26 -26 -26 -14 0 -15 55 -1 100 9 29
15 78 14 109 -1 31 -1 74 0 96 2 34 3 36 9 15 4 -15 15 -26 29 -28 27 -4 29
-32 2 -39 -35 -9 -24 -67 14 -74 27 -5 31 -25 6 -32 -15 -4 -20 -13 -20 -40 0
-29 4 -36 24 -41 14 -3 32 -3 40 0 13 5 16 -1 16 -32 0 -22 5 -46 10 -54 6
-10 10 94 10 304 0 176 -2 317 -4 315 -7 -7 -29 -172 -28 -211 1 -41 -8 -47
-28 -23 -10 13 -10 23 3 55 l15 40 -30 25 c-29 25 -30 26 -13 45 16 18 17 21
1 45 -23 35 -68 35 -84 0 -11 -23 -9 -29 14 -50 15 -14 32 -25 38 -25 6 0 3
-7 -8 -15 -26 -19 -15 -85 14 -85 11 0 20 -4 20 -9 0 -11 -50 -44 -51 -34 -8
101 -12 120 -31 140 -15 16 -21 36 -21 70 l0 48 92 9 c50 5 91 12 91 16 0 17
-33 19 -122 8 -126 -15 -277 2 -368 42 -36 16 -77 32 -92 35 -25 6 -28 4 -28
-18z m234 -242 c1 -33 4 -40 21 -40 16 0 20 7 20 33 0 30 2 32 33 32 22 0 34
-6 38 -17 12 -37 28 -64 55 -91 27 -26 28 -32 29 -119 0 -85 -2 -93 -19 -93
-10 0 -33 -16 -50 -35 l-31 -36 -83 3 -82 3 -3 32 c-2 17 -10 37 -18 43 -20
17 -19 109 1 116 17 7 21 74 5 74 -18 0 -11 68 11 105 17 29 27 35 47 33 23
-3 26 -8 26 -43z m-2 -817 c-5 -37 -3 -40 19 -36 19 2 25 10 27 36 3 29 6 33
30 30 18 -2 28 -10 32 -26 7 -30 58 -92 75 -92 12 0 15 -19 15 -98 l0 -97 -30
-13 c-17 -8 -41 -28 -54 -45 -24 -32 -25 -32 -105 -29 l-81 4 0 33 c0 18 -7
38 -15 45 -16 14 -12 94 6 117 13 15 8 65 -7 70 -6 2 -15 -15 -20 -39 l-8 -43
-4 34 c-2 18 1 38 7 44 6 6 11 22 11 37 0 14 13 46 29 71 25 39 34 46 54 42
23 -5 24 -8 19 -45z m2 -798 c-5 -32 -3 -41 11 -46 24 -10 46 22 39 53 -6 23
-4 24 27 21 27 -2 35 -8 37 -26 2 -12 22 -42 44 -65 l41 -42 4 -92 c4 -89 3
-93 -16 -93 -12 0 -39 -18 -60 -39 -39 -39 -41 -40 -123 -42 l-83 -2 3 30 c2
22 -4 39 -22 58 -14 15 -26 37 -25 49 0 21 1 21 9 1 7 -17 9 -15 9 12 1 17 -3
35 -9 38 -13 8 -13 62 0 70 6 4 10 -10 10 -36 0 -36 2 -40 15 -29 20 16 20 69
0 76 -21 8 -19 50 3 82 10 15 22 35 25 45 4 11 17 17 37 17 30 0 30 -1 24 -40z"/>
<path d="M2235 7781 c31 -62 31 -91 0 -137 l-25 -37 30 -21 c36 -25 38 -39 8
-53 -22 -10 -22 -11 -4 -19 24 -9 89 24 94 47 2 9 -8 30 -22 45 -24 29 -24 29
-5 50 17 18 17 24 6 55 -6 18 -14 36 -17 39 -3 3 -16 22 -30 42 -14 21 -33 38
-42 38 -15 0 -14 -6 7 -49z"/>
<path d="M8879 7798 c-23 -29 -28 -31 -43 -19 -9 7 -16 10 -16 6 0 -4 7 -13
16 -20 15 -10 15 -16 3 -49 -13 -36 -12 -38 11 -57 14 -10 21 -19 15 -19 -19
-1 -46 -50 -40 -71 6 -19 58 -49 85 -49 16 0 12 22 -7 36 -17 12 -16 14 10 41
33 36 34 43 2 73 -28 26 -28 67 0 122 18 37 18 38 3 38 -7 0 -25 -15 -39 -32z"/>
<path d="M8714 7517 c1 -61 -2 -76 -12 -72 -72 27 -128 11 -157 -45 -23 -44
-8 -56 25 -20 34 36 60 39 60 7 0 -26 28 -57 51 -57 8 0 0 -9 -18 -20 -42 -25
-70 -67 -55 -82 9 -9 17 -7 34 9 45 39 51 39 44 -1 -6 -29 -4 -36 10 -36 9 0
29 -14 44 -30 25 -27 31 -29 53 -19 32 15 40 44 21 81 -9 17 -13 32 -10 35 8
9 45 -8 76 -34 75 -63 68 29 -8 98 -24 23 -42 42 -40 43 2 1 20 11 42 21 44
23 96 68 96 84 0 11 -38 15 -110 11 -22 -1 -42 -9 -53 -22 -10 -11 -19 -19
-21 -17 -11 13 -21 88 -15 110 6 26 5 27 -22 19 -19 -6 -29 -4 -32 3 -2 6 -3
-23 -3 -66z"/>
<path d="M2390 7505 c-12 -65 -13 -66 -32 -48 -15 14 -35 18 -85 17 -106 -2
-104 -27 10 -91 26 -14 47 -29 47 -32 0 -3 -15 -16 -34 -28 -42 -27 -78 -109
-55 -123 8 -6 19 -4 29 4 8 8 30 21 48 30 l33 17 -7 -50 c-6 -45 -4 -50 19
-66 32 -20 62 -8 71 30 4 16 13 25 26 25 27 0 31 12 14 45 -8 15 -13 29 -11
31 5 5 67 -29 67 -37 0 -5 7 -9 15 -9 32 0 13 44 -34 75 -19 14 -30 25 -24 25
23 0 53 42 47 67 -4 12 -4 23 -1 23 20 0 56 -26 66 -46 11 -25 31 -33 31 -11
0 6 -9 26 -19 43 -25 41 -79 60 -123 45 -47 -17 -51 -14 -45 25 6 38 -14 104
-31 104 -6 0 -15 -29 -22 -65z"/>
<path d="M5749 7430 c-1 -3 -2 -206 -3 -452 l-1 -447 110 -3 c61 -2 193 -4
295 -3 l185 0 0 455 0 455 -292 0 c-161 0 -293 -2 -294 -5z"/>
<path d="M4678 7394 c-4 -3 -4 -38 -1 -77 2 -40 6 -189 7 -332 2 -143 4 -304
5 -357 l1 -98 310 0 310 0 0 428 0 429 -182 6 c-224 9 -443 9 -450 1z"/>
<path d="M6816 7374 c-3 -9 -6 -200 -6 -425 l0 -410 243 1 c133 1 275 4 315 7
l72 5 0 419 0 419 -309 0 c-272 0 -310 -2 -315 -16z"/>
<path d="M2837 7353 c14 -48 7 -156 -11 -190 -16 -32 -160 -156 -204 -176 -19
-9 -23 -16 -18 -40 3 -16 6 -126 6 -243 l0 -214 323 2 c177 2 321 6 320 11 -2
4 -3 203 -3 442 l0 435 -210 0 -210 0 7 -27z"/>
<path d="M3644 7313 c3 -38 9 -225 12 -416 l5 -349 307 2 c168 0 307 2 307 3
1 1 0 188 -3 415 l-4 412 -316 0 -315 0 7 -67z"/>
<path d="M7867 6968 c3 -227 6 -413 7 -414 0 -1 139 1 309 4 l307 5 0 224 0
224 -35 30 c-52 46 -89 130 -90 203 0 34 4 78 8 99 l8 37 -260 0 -261 0 7
-412z"/>
<path d="M4710 5740 l0 -460 290 0 291 0 -3 458 -3 457 -287 3 -288 2 0 -460z"/>
<path d="M5764 5769 c4 -238 8 -434 9 -436 3 -2 570 -6 621 -4 19 1 19 12 13
428 -4 234 -8 427 -10 428 -1 2 -146 6 -321 10 l-319 7 7 -433z"/>
<path d="M7897 6193 c-4 -3 -7 -204 -7 -445 l0 -438 294 0 294 0 7 363 c4 199
5 398 3 442 l-3 80 -291 3 c-160 1 -293 -1 -297 -5z"/>
<path d="M7116 6182 l-309 -2 7 -318 c3 -174 9 -369 12 -433 l6 -116 47 3 c25
2 166 7 314 10 l267 6 0 212 c-1 255 -16 627 -27 635 -4 3 -147 5 -317 3z"/>
<path d="M2593 6144 c-3 -7 -6 -201 -6 -431 l-2 -418 80 -3 c44 -2 198 0 343
3 l262 7 -2 427 -3 426 -334 1 c-259 0 -334 -3 -338 -12z"/>
<path d="M3668 6154 c-10 -9 -10 -339 -1 -621 l6 -211 36 -6 c20 -3 164 -8
320 -12 l284 -7 -7 423 c-3 233 -9 426 -12 429 -8 9 -618 14 -626 5z"/>
<path d="M1 5355 c0 -66 2 -75 15 -65 11 10 14 9 14 -4 0 -9 -7 -16 -15 -16
-12 0 -15 -13 -15 -56 0 -40 4 -55 13 -52 6 3 13 19 15 37 3 24 8 31 20 29 12
-2 17 -15 19 -46 1 -24 6 -48 11 -55 11 -12 14 -66 13 -176 -1 -53 -3 -62 -17
-57 -13 5 -15 -1 -12 -36 3 -41 2 -43 -26 -46 -27 -3 -28 -2 -24 25 3 15 2 37
-2 48 -5 12 -9 -33 -9 -111 -1 -153 -10 -144 124 -144 44 0 132 -4 195 -9 187
-15 280 -17 281 -6 0 6 -14 15 -32 21 -35 12 -51 34 -25 34 14 0 36 36 36 59
0 5 -14 14 -30 21 -28 12 -33 10 -56 -11 -22 -21 -26 -21 -40 -7 -14 13 -14
19 -3 39 8 14 15 73 17 147 4 114 13 149 25 102 3 -12 14 -20 26 -20 25 0 28
-18 4 -27 -27 -10 -32 -23 -21 -54 7 -21 17 -29 33 -29 13 0 27 -4 30 -10 3
-5 -3 -10 -13 -10 -29 0 -43 -23 -36 -59 6 -31 18 -37 67 -33 13 1 17 -6 18
-31 1 -17 5 -45 9 -62 4 -16 7 123 7 310 0 313 -1 333 -13 255 -7 -47 -13
-109 -13 -137 -1 -55 -13 -67 -31 -33 -8 15 -8 30 2 56 14 38 6 60 -28 78 -10
6 -21 12 -24 14 -3 2 6 11 19 21 23 17 23 19 7 50 -22 41 -14 51 40 51 32 0
44 4 44 15 0 8 -10 17 -23 19 -97 20 -169 26 -352 31 -116 3 -218 8 -227 11
-15 4 -17 -4 -17 -71z m228 -145 c5 0 8 -17 7 -37 -1 -32 2 -38 19 -38 16 0
20 7 21 35 0 26 4 35 17 34 57 -3 59 -4 54 -26 -5 -16 5 -32 38 -66 l45 -45 0
-93 c0 -84 -2 -94 -18 -94 -19 0 -82 -55 -82 -71 0 -5 -38 -9 -85 -9 l-85 0 0
30 c0 17 -8 38 -17 48 -12 11 -17 29 -15 51 2 18 -1 38 -7 44 -12 12 -15 73
-3 80 4 3 7 -8 8 -24 1 -34 8 -44 23 -34 16 9 13 61 -4 75 -22 19 -18 43 17
100 20 33 36 49 46 45 7 -3 17 -5 21 -5z"/>
<path d="M3850 4949 c-107 -3 -205 -7 -217 -8 l-23 -1 0 -435 0 -436 107 3
107 3 6 30 c20 98 80 98 80 1 0 -20 5 -36 10 -36 6 0 10 3 11 8 5 64 12 100
24 119 34 52 70 12 59 -67 -7 -55 10 -72 21 -21 13 62 67 70 75 11 5 -34 7
-35 53 -38 l47 -3 -2 436 -3 436 -80 2 c-44 2 -168 0 -275 -4z"/>
<path d="M6812 4508 l3 -423 315 0 315 0 -1 33 c0 17 -1 208 -2 422 l-2 390
-315 0 -315 0 2 -422z"/>
<path d="M8053 4921 c-83 -3 -155 -10 -160 -14 -10 -10 -4 -789 6 -800 4 -4
142 -6 307 -5 l299 3 4 75 c1 41 -3 227 -9 413 l-13 337 -141 -2 c-78 -1 -209
-4 -293 -7z"/>
<path d="M2865 4907 c-143 -4 -261 -10 -263 -11 -5 -6 -2 -828 4 -837 6 -11
287 -12 503 -2 l153 6 -7 421 c-4 232 -9 424 -12 428 -2 4 -30 7 -61 6 -31 -1
-174 -6 -317 -11z"/>
<path d="M0 4549 c0 -50 3 -69 10 -59 5 8 12 11 16 8 10 -11 -4 -40 -16 -33
-6 4 -10 -15 -10 -49 0 -63 11 -73 25 -23 13 44 29 37 36 -16 4 -25 11 -53 16
-63 13 -25 15 -159 4 -209 -5 -23 -9 -30 -10 -17 -2 34 -21 26 -21 -9 0 -22 4
-30 14 -26 18 7 10 -27 -10 -44 -25 -21 -43 -3 -47 48 -2 26 -4 -14 -5 -89
l-2 -138 33 -1 c17 0 63 0 100 1 91 2 248 -11 242 -20 -2 -3 -87 -6 -190 -6
l-185 1 0 -27 c0 -16 5 -28 10 -28 6 0 10 -5 10 -11 0 -5 -4 -7 -10 -4 -6 4
-10 -7 -9 -27 0 -18 3 -27 6 -20 7 19 23 14 23 -8 0 -10 -7 -23 -16 -28 -11
-6 -14 -22 -12 -63 l3 -54 11 35 c14 47 38 46 39 -2 1 -20 6 -43 12 -50 19
-23 25 -78 18 -158 -6 -63 -10 -78 -22 -73 -12 5 -14 -4 -11 -43 3 -43 1 -49
-17 -49 -17 0 -20 6 -17 33 1 18 -2 41 -8 50 -6 12 -9 -27 -10 -124 l0 -142
163 -2 c359 -6 442 -5 445 5 2 6 -15 15 -37 20 -39 10 -65 25 -43 25 19 0 52
38 52 59 0 11 -12 23 -30 31 -28 12 -33 10 -56 -11 -23 -21 -26 -22 -41 -6
-14 14 -14 18 -3 32 9 11 15 55 18 133 4 121 14 164 26 124 4 -13 16 -22 27
-22 26 0 24 -14 -6 -34 -21 -14 -23 -19 -14 -46 9 -25 16 -30 44 -30 18 0 36
6 38 13 3 7 6 5 6 -5 1 -11 -9 -20 -23 -24 -40 -10 -58 -37 -47 -68 10 -25 24
-31 64 -28 13 1 17 -6 17 -28 0 -16 4 -32 10 -35 6 -4 9 96 9 287 -1 195 -4
285 -10 269 -5 -14 -13 -89 -16 -168 -4 -97 -10 -142 -17 -140 -16 5 -19 47
-6 73 11 19 10 26 -4 39 -20 20 -20 24 -2 66 13 31 12 36 -4 57 -10 12 -26 22
-36 22 -15 0 -15 3 6 25 l23 24 -21 35 -20 34 21 6 c12 3 31 6 42 6 11 0 27 5
35 10 13 9 13 11 0 20 -8 5 -31 10 -51 10 -20 0 -52 3 -70 8 -28 6 -21 8 44
12 86 6 103 20 40 35 -54 13 -62 22 -31 34 28 10 43 48 27 67 -20 24 -60 26
-79 4 -37 -43 -58 -11 -35 56 10 29 15 84 15 152 1 101 2 105 16 80 8 -16 23
-28 34 -28 28 0 25 -15 -5 -28 -28 -13 -29 -19 -15 -56 7 -19 17 -26 47 -28
l38 -4 -30 -13 c-34 -14 -45 -28 -45 -57 0 -24 43 -48 71 -39 16 5 19 1 20
-27 1 -18 5 -46 9 -63 4 -16 8 110 8 280 0 171 -3 301 -8 290 -14 -36 -30
-139 -24 -161 7 -27 -10 -39 -26 -19 -10 12 -10 24 -1 55 13 44 5 71 -27 89
-16 9 -16 11 -1 26 16 16 16 19 0 46 -22 39 -70 37 -84 -5 -8 -24 -6 -31 23
-55 29 -23 31 -28 17 -39 -13 -11 -21 -9 -46 14 -24 21 -28 30 -20 41 7 7 9
28 6 48 -6 34 -5 35 25 35 49 0 158 21 158 31 0 14 -55 19 -300 29 -129 5
-252 12 -272 16 l-38 6 0 -73z m213 -135 c11 -4 14 -15 10 -40 -4 -25 -2 -35
11 -40 26 -10 49 16 42 49 -5 24 -3 28 10 23 9 -3 24 -6 35 -6 13 0 19 -7 19
-24 0 -16 15 -38 45 -64 l46 -40 -3 -89 c-3 -82 -4 -88 -25 -91 -12 -2 -37
-20 -54 -40 -31 -35 -36 -37 -110 -42 l-77 -5 -6 37 c-4 22 -15 43 -26 50 -11
7 -20 21 -20 31 0 10 5 15 10 12 6 -4 10 5 10 20 0 15 7 33 15 41 8 9 15 24
15 34 0 10 -7 25 -15 34 -22 22 -18 62 11 112 27 45 31 48 57 38z m9 -847 c-3
-27 1 -39 12 -43 24 -9 47 15 44 45 -2 16 2 26 10 25 6 -1 21 -2 32 -2 13 -2
20 -9 20 -24 0 -24 56 -88 77 -88 10 0 13 -24 13 -100 0 -83 -3 -100 -15 -100
-24 0 -64 -30 -79 -58 -11 -22 -20 -25 -77 -27 -35 -1 -75 -5 -88 -10 -21 -6
-23 -5 -16 23 7 33 -11 72 -32 72 -7 0 -13 5 -13 10 0 6 5 10 10 10 16 0 11
52 -6 72 -14 14 -15 24 -6 50 l10 33 1 -42 c1 -33 4 -41 16 -37 20 8 20 73 0
80 -17 7 -21 59 -5 69 6 4 19 24 31 46 15 31 25 40 42 37 19 -3 22 -8 19 -41z"/>
<path d="M5395 4409 c-62 -39 -173 -159 -200 -217 -16 -31 -45 -91 -65 -132
-43 -88 -73 -174 -112 -325 -15 -60 -32 -123 -37 -140 -5 -16 -34 -70 -65
-119 -51 -82 -56 -94 -56 -147 0 -32 4 -69 10 -83 9 -23 15 -26 63 -26 30 0
76 7 103 15 27 8 53 15 57 15 11 0 47 -80 47 -105 0 -12 -9 -38 -19 -58 -23
-46 -10 -57 37 -33 37 19 62 78 62 147 0 68 13 89 53 89 89 0 102 -73 37 -199
l-40 -77 7 -100 c9 -105 -1 -169 -34 -231 -17 -32 -17 -34 5 -55 l22 -22 27
20 c18 13 32 37 39 65 14 52 100 209 115 209 4 0 9 -16 12 -35 3 -19 15 -49
27 -65 34 -48 140 -102 140 -71 0 5 -9 12 -19 16 -38 12 -62 126 -49 230 11
82 24 88 32 14 9 -73 22 -103 68 -145 50 -47 90 -64 154 -64 l58 0 -46 29
c-50 32 -88 96 -88 150 0 18 9 53 21 78 11 25 23 62 27 82 5 34 6 34 13 11 4
-14 7 -48 8 -75 1 -59 31 -173 55 -209 16 -26 63 -62 70 -55 3 2 -2 27 -9 55
-7 28 -16 101 -20 161 -7 111 -7 112 31 232 6 20 31 -3 55 -52 15 -28 19 -50
15 -75 -10 -62 6 -70 48 -26 44 48 51 72 36 120 -11 32 -10 38 8 56 23 24 85
28 129 9 18 -8 59 -56 113 -131 148 -208 157 -220 185 -242 33 -25 118 -37
140 -18 29 24 18 50 -29 70 -52 22 -66 43 -66 100 0 39 1 41 27 38 57 -6 26
69 -49 122 -24 16 -48 34 -54 39 -6 5 -34 19 -62 31 -49 21 -50 23 -57 73 -14
116 -25 147 -64 175 -92 67 -149 128 -176 187 -15 33 -44 96 -65 140 -21 44
-43 94 -49 112 -5 18 -27 58 -49 90 -21 32 -46 78 -56 103 -28 72 -105 178
-155 211 -43 29 -50 31 -114 25 -54 -4 -79 -1 -118 15 -61 24 -95 23 -134 -2z"/>
<path d="M6822 3295 l3 -415 313 0 312 0 0 415 0 415 -315 0 -316 0 3 -415z"/>
<path d="M3660 3330 c0 -203 3 -370 8 -370 8 0 59 145 72 205 4 22 10 80 14
128 3 49 11 115 17 148 9 46 9 77 0 137 -21 128 -17 122 -67 122 l-44 0 0
-370z"/>
<path d="M4117 3682 c-9 -10 -17 -22 -17 -26 0 -5 -14 -25 -30 -46 -42 -53
-60 -101 -60 -157 0 -26 -4 -64 -10 -83 -19 -69 -21 -231 -3 -295 19 -73 34
-86 87 -80 23 2 55 4 72 4 l32 1 6 228 c3 125 3 281 -1 347 -8 119 -8 120 -34
123 -15 2 -32 -5 -42 -16z"/>
<path d="M7873 3298 l3 -403 307 0 306 0 2 335 c1 184 1 365 0 403 l-1 67
-310 0 -310 0 3 -402z"/>
<path d="M2580 3275 l0 -405 329 0 328 0 7 133 c11 201 18 641 10 660 -6 16
-35 17 -340 17 l-334 0 0 -405z"/>
<path d="M0 2960 c0 -17 5 -30 12 -30 9 0 9 -3 0 -12 -7 -7 -12 -21 -12 -32 1
-21 1 -21 16 -1 14 19 15 18 12 -20 -2 -25 -8 -39 -15 -37 -10 1 -13 -15 -12
-60 l1 -63 12 39 c16 53 33 56 42 9 4 -21 11 -41 17 -44 23 -16 11 -295 -14
-326 -14 -16 -46 -17 -52 0 -3 6 -6 -61 -6 -151 -1 -94 3 -161 8 -158 5 3 11
0 13 -7 7 -17 -2 -38 -13 -31 -5 3 -9 -20 -9 -52 0 -55 13 -66 22 -19 5 28 34
26 30 -2 -2 -12 5 -37 14 -55 23 -45 27 -233 4 -233 -11 0 -15 -12 -15 -49 0
-31 -5 -51 -13 -53 -6 -3 -12 -18 -12 -34 0 -19 -4 -28 -11 -23 -6 3 -8 17 -5
29 3 13 2 27 -4 30 -6 4 -10 -28 -10 -91 l0 -97 75 5 c55 4 81 10 96 24 19 17
21 18 30 1 7 -12 23 -17 57 -17 65 0 122 -11 122 -22 0 -6 -50 -9 -123 -8 -67
1 -126 1 -132 0 -5 -1 -36 -1 -67 0 l-58 2 0 -35 c0 -20 5 -37 11 -39 17 -6
18 -89 2 -95 -9 -3 -13 -25 -13 -61 0 -56 15 -64 22 -12 5 41 32 31 40 -15 3
-22 11 -58 17 -80 13 -51 14 -182 1 -190 -6 -3 -10 -1 -10 4 0 6 -4 11 -10 11
-13 0 -13 -63 0 -76 12 -12 0 -31 -25 -36 -18 -3 -21 4 -26 62 -3 40 -6 -9 -7
-122 -1 -104 2 -188 6 -188 5 0 10 -20 10 -45 1 -25 -2 -45 -8 -45 -6 0 -10
-25 -9 -57 1 -58 1 -58 11 -21 13 49 34 49 43 1 4 -21 12 -44 18 -51 6 -8 11
-57 11 -115 1 -84 -2 -102 -14 -102 -10 0 -16 -12 -18 -32 l-3 -33 55 0 c60 0
75 18 36 42 -16 10 -18 19 -13 53 3 22 11 46 17 54 16 20 16 69 0 81 -10 9
-14 3 -19 -27 -10 -58 -13 -62 -14 -16 -1 23 4 45 9 48 6 3 7 17 4 30 -4 17 0
26 14 34 11 6 26 27 32 46 10 29 16 35 40 35 28 0 29 -1 18 -31 -9 -25 -8 -34
6 -47 16 -16 18 -16 32 3 8 11 13 30 11 43 -4 19 0 22 29 22 29 0 34 -4 34
-23 0 -24 57 -87 78 -87 8 0 12 -28 12 -95 l0 -95 -32 -13 c-18 -8 -42 -24
-53 -36 l-19 -22 69 3 70 3 3 108 c3 100 13 134 25 86 4 -14 11 -20 21 -16 26
10 27 -10 2 -30 -35 -26 -26 -70 18 -82 l31 -8 -27 -13 c-16 -7 -28 -21 -28
-32 0 -15 8 -18 50 -18 l50 0 -1 218 c-1 143 -4 202 -10 172 -4 -25 -8 -66 -8
-92 -1 -49 -10 -59 -30 -34 -10 11 -9 24 0 57 13 40 12 42 -15 66 -27 23 -27
25 -11 43 15 17 15 20 0 43 -22 35 -71 34 -89 -1 l-13 -25 -1 30 c-1 29 2 31
45 37 25 3 63 6 85 6 44 0 64 25 33 42 -14 8 -15 12 -4 19 12 8 12 11 -1 19
-8 5 -25 10 -37 10 -29 0 -40 20 -15 27 23 6 38 59 22 78 -21 25 -50 24 -75
-3 -35 -37 -50 -20 -34 39 7 24 15 94 18 154 4 75 9 103 14 88 5 -13 17 -23
28 -23 25 0 24 -16 -1 -30 -35 -19 -23 -80 15 -80 37 0 38 -17 4 -29 -29 -10
-31 -14 -25 -43 7 -37 4 -34 37 -41 16 -4 31 -2 37 6 12 16 24 387 11 387 -5
0 -9 -22 -9 -50 0 -27 -4 -50 -10 -50 -14 0 -30 36 -21 46 5 5 12 23 15 40 6
26 3 35 -18 52 -28 22 -33 38 -14 44 10 4 10 10 0 32 -15 34 -37 42 -74 28
-22 -8 -28 -8 -25 1 2 7 37 16 78 21 68 8 94 19 83 37 -2 4 -50 13 -106 20
l-103 13 102 11 c108 11 134 20 87 30 -62 14 -70 23 -32 40 12 6 25 22 29 38
6 24 3 29 -22 43 -28 14 -31 13 -63 -11 -34 -26 -34 -26 -41 -6 -3 12 -3 26 0
31 11 18 17 60 24 170 4 68 9 99 15 88 4 -10 17 -18 27 -18 25 0 24 -14 -3
-32 -20 -13 -21 -19 -13 -44 6 -16 19 -30 30 -32 35 -7 40 -21 12 -31 -48 -19
-32 -91 20 -91 13 0 23 5 23 12 0 23 18 -7 23 -37 2 -16 5 67 7 185 2 118 4
243 5 278 1 34 -1 62 -5 62 -7 0 -23 -124 -22 -172 1 -35 -14 -44 -28 -18 -8
15 -8 30 0 55 12 38 3 67 -27 84 -17 9 -17 10 -1 28 16 18 16 21 -2 51 -22 36
-21 37 43 46 45 7 62 22 35 31 -22 7 -345 22 -377 17 -32 -4 -48 -29 -31 -46
19 -19 10 -26 -30 -23 -29 1 -40 6 -39 17 3 31 -2 40 -20 40 -11 0 -23 5 -26
10 -3 6 5 10 19 10 14 0 28 5 31 10 4 7 38 9 93 6 193 -12 385 -11 389 1 3 7
-13 14 -41 18 -48 8 -59 20 -27 30 11 3 24 19 30 36 10 28 8 31 -25 47 -36 17
-36 17 -61 -12 -23 -27 -25 -27 -38 -10 -10 14 -11 24 -2 39 6 11 13 74 15
140 2 66 8 124 13 130 5 5 9 0 9 -13 0 -15 6 -22 19 -22 29 0 35 -17 11 -32
-34 -22 -23 -78 15 -78 34 0 41 -18 12 -29 -52 -20 -35 -84 22 -84 28 0 31 -3
31 -33 0 -18 5 -36 10 -39 7 -4 10 92 10 282 0 287 -11 358 -25 166 -4 -51
-11 -93 -15 -93 -4 0 -13 7 -20 15 -10 12 -9 23 4 55 15 39 15 41 -6 65 -12
14 -29 25 -37 25 -12 1 -10 6 7 20 25 20 24 48 -2 70 -21 16 -64 1 -82 -29 -8
-14 -13 -18 -9 -7 3 10 0 25 -6 32 -14 17 -5 20 79 28 83 8 114 16 109 30 -9
27 -469 50 -495 24 -9 -9 -15 -9 -24 0 -7 7 -31 12 -55 12 -41 0 -43 -1 -43
-30z m225 -203 c-5 -24 -2 -37 9 -46 24 -20 49 4 44 41 -4 27 -3 29 26 26 23
-2 32 -9 34 -25 2 -12 23 -40 48 -61 l44 -40 0 -91 c0 -73 -3 -91 -15 -91 -19
0 -85 -58 -85 -76 0 -11 -16 -14 -64 -14 -36 0 -76 -4 -90 -10 -24 -9 -25 -8
-24 32 0 26 -5 46 -14 52 -18 14 -36 176 -19 176 6 0 11 -16 11 -36 0 -21 4
-33 10 -29 13 8 13 62 0 70 -17 11 -11 51 16 104 21 40 32 51 51 51 22 0 23
-3 18 -33z m-2 -800 c-7 -44 20 -70 42 -41 9 10 14 29 11 42 -3 18 1 22 24 22
22 0 29 -6 33 -28 3 -17 22 -40 51 -61 l45 -34 -3 -89 -4 -89 -33 -17 c-19 -9
-43 -31 -54 -49 -19 -29 -25 -32 -95 -39 -41 -4 -77 -6 -80 -5 -3 1 -4 12 -2
25 2 13 -4 30 -12 39 -10 10 -16 33 -16 62 0 27 -6 52 -14 61 -9 9 -12 26 -9
46 7 48 13 48 13 0 0 -30 4 -42 15 -42 23 0 30 46 11 75 -22 33 -20 47 10 105
20 38 32 50 49 50 21 0 23 -4 18 -33z m7 -817 c-15 -27 -3 -60 20 -60 21 0 34
31 25 60 -5 17 -2 20 24 20 26 0 31 -4 31 -24 0 -23 68 -96 90 -96 6 0 10 -38
10 -93 l0 -93 -38 -17 c-20 -9 -45 -30 -55 -47 -11 -17 -26 -30 -38 -30 -31 0
-59 -18 -53 -35 4 -8 12 -15 20 -15 8 0 14 -8 14 -17 0 -13 -3 -14 -12 -5 -16
16 -38 15 -38 -2 0 -7 -6 -19 -14 -25 -11 -9 -15 -6 -20 14 -5 21 -11 25 -29
19 -12 -4 -25 -12 -29 -18 -9 -13 -14 -8 -22 27 -5 20 -3 27 9 27 28 0 39 50
20 90 -11 23 -19 73 -22 146 -6 105 -5 112 14 123 11 5 26 24 33 41 10 24 19
30 42 30 26 0 28 -2 18 -20z"/>
<path d="M1846 2129 c-14 -41 -30 -266 -29 -424 0 -99 -2 -172 -4 -162 -9 36
-20 15 -20 -38 0 -42 3 -53 12 -45 16 13 25 3 25 -28 0 -14 5 -55 12 -91 10
-61 12 -64 20 -36 14 51 15 812 1 826 -10 10 -13 9 -17 -2z"/>
<path d="M1716 1835 c-10 -8 -23 -16 -28 -17 -6 -2 -7 -23 -3 -50 5 -35 11
-45 23 -42 10 2 23 0 31 -5 11 -7 7 -15 -17 -37 -29 -28 -30 -30 -16 -61 12
-28 19 -33 49 -33 25 0 35 5 35 15 0 8 5 24 12 34 9 15 7 23 -11 42 -14 15
-20 31 -16 44 17 59 16 74 -1 99 -22 29 -32 31 -58 11z"/>
<path d="M9378 730 c-64 -3 -118 -7 -121 -10 -28 -34 -48 -529 -25 -657 10
-59 12 -63 38 -63 27 0 28 3 35 60 8 68 20 83 37 46 13 -30 15 -31 61 -11 39
16 37 19 51 -46 7 -31 -16 -46 -34 -23 -19 21 -77 18 -90 -5 -10 -19 -2 -20
421 -20 l431 0 -23 26 c-20 22 -21 25 -5 19 10 -3 25 -1 32 5 11 9 14 6 14
-20 0 -24 4 -31 19 -31 19 0 20 10 20 349 -1 270 -3 352 -13 360 -34 28 -447
38 -848 21z m836 -67 c-13 -72 -31 -248 -27 -259 8 -22 -16 -25 -29 -4 -15 23
-27 25 -63 8 -41 -19 -33 -98 11 -98 29 0 32 -26 5 -35 -25 -8 -32 -26 -22
-62 5 -21 14 -29 34 -31 34 -4 34 -15 1 -37 -15 -9 -23 -22 -20 -31 5 -14 -31
-41 -41 -30 -3 3 -5 76 -4 163 2 230 -6 265 -69 304 -10 6 -12 11 -4 16 16 12
25 68 12 81 -15 15 -5 18 97 30 132 15 125 16 119 -15z m-697 -20 c-13 -16
-14 -20 -1 -37 22 -30 17 -44 -21 -62 -20 -9 -39 -22 -42 -28 -4 -6 -10 -63
-14 -126 -4 -74 -9 -107 -14 -92 -5 14 -15 22 -31 22 -31 0 -30 14 3 38 24 18
26 23 17 53 -8 29 -15 35 -47 40 -29 4 -40 2 -47 -10 -8 -13 -9 -11 -10 9 0
24 3 26 34 22 41 -5 76 24 76 63 0 16 6 25 15 25 9 0 27 7 41 16 21 14 23 22
18 50 -6 31 -4 34 16 34 21 0 22 -1 7 -17z m203 -128 c0 -3 -7 -16 -15 -29
-28 -42 2 -74 51 -55 24 8 26 13 21 48 l-5 39 47 -3 c71 -3 71 -3 71 -29 0
-27 72 -96 101 -96 15 0 17 -13 18 -105 l2 -104 -34 -14 c-30 -13 -65 -47 -92
-90 -8 -14 -34 -17 -154 -18 -134 -2 -145 -1 -152 17 -8 22 -42 52 -72 63 -19
7 -20 16 -21 138 l-1 130 40 20 c22 10 51 35 64 56 23 35 27 37 78 37 29 0 53
-2 53 -5z"/>
<path d="M10041 650 c-5 -3 -12 -19 -15 -37 -6 -25 -3 -34 11 -42 10 -6 27
-17 37 -26 19 -15 19 -15 1 -29 -16 -11 -17 -19 -9 -47 9 -30 14 -34 44 -34
18 0 40 6 47 13 14 14 18 62 6 62 -5 0 -21 12 -37 27 -29 24 -29 26 -11 39 18
13 18 16 2 49 -13 28 -22 34 -42 33 -14 -1 -30 -5 -34 -8z"/>
</g>
</svg>
